<svg width="20" height="21" viewBox="0 0 20 21" fill="none" xmlns="http://www.w3.org/2000/svg">
<path d="M16.692 8.44205L10.442 14.692C10.384 14.7502 10.3151 14.7963 10.2392 14.8277C10.1633 14.8592 10.082 14.8754 9.99986 14.8754C9.91772 14.8754 9.8364 14.8592 9.76052 14.8277C9.68465 14.7963 9.61572 14.7502 9.55767 14.692L3.30767 8.44205C3.1904 8.32477 3.12451 8.16571 3.12451 7.99986C3.12451 7.83401 3.1904 7.67495 3.30767 7.55767C3.42495 7.4404 3.58401 7.37451 3.74986 7.37451C3.91571 7.37451 4.07477 7.4404 4.19205 7.55767L9.99986 13.3663L15.8077 7.55767C15.8657 7.4996 15.9347 7.45354 16.0105 7.42211C16.0864 7.39069 16.1677 7.37451 16.2499 7.37451C16.332 7.37451 16.4133 7.39069 16.4892 7.42211C16.565 7.45354 16.634 7.4996 16.692 7.55767C16.7501 7.61574 16.7962 7.68468 16.8276 7.76055C16.859 7.83642 16.8752 7.91774 16.8752 7.99986C16.8752 8.08198 16.859 8.1633 16.8276 8.23917C16.7962 8.31504 16.7501 8.38398 16.692 8.44205Z" fill="white"/>
</svg>
