<svg xmlns="http://www.w3.org/2000/svg" width="100" height="100" viewBox="0 0 100 100" fill="none"><defs>
  <linearGradient id="logoGradient" x1="0" y1="0" x2="100" y2="100" gradientUnits="userSpaceOnUse">
    <stop offset="0%" stop-color="#7C3AED"></stop>
    <stop offset="100%" stop-color="#4C1D95"></stop>
  </linearGradient>

  <clipPath id="clip0_203_113">
    <rect width="100" height="100" rx="18"></rect>
  </clipPath>
</defs><g clip-path="url(#clip0_203_113)">
  <rect width="100" height="100" fill="url(#logoGradient)"></rect>

  <path fill-rule="evenodd" clip-rule="evenodd" d="M28.7327 62.8889H19.8038V76.6726H28.7327V62.8889ZM44.536 52.5148H35.6071V76.6697H44.536V52.5148ZM60.3415 44.6809H51.4126V76.6726L60.3415 76.6698V44.6809ZM76.1448 32.2374H67.2159V76.6726H76.1448V32.2374ZM53.13 20.4276L63.6228 13L68.9805 24.6611L65.2182 23.6518C64.7905 23.5396 64.3516 23.7808 64.2193 24.1985C62.1201 29.9324 56.3515 35.2201 49.2941 39.6647C42.1383 44.0471 34.4734 47.5459 26.4701 50.084C38.3475 43.3211 54.4937 33.2498 57.4738 22.4378C57.592 22.0032 57.3331 21.5546 56.897 21.4369H56.8942L53.13 20.4276ZM16.7992 80.9994C16.3518 80.9882 16 80.6237 16 80.1807C16 79.7349 16.3517 79.3732 16.7992 79.3592H79.1502C79.3725 79.3508 79.5892 79.4349 79.7496 79.5891C79.9099 79.7433 80 79.9564 80 80.1807C80 80.4022 79.91 80.6153 79.7496 80.7695C79.5892 80.9237 79.3725 81.0078 79.1502 80.9994L16.7992 80.9994Z" fill="white"></path>
</g></svg>