<svg width="1437" height="664" viewBox="0 0 1437 664" fill="none" xmlns="http://www.w3.org/2000/svg">
<g style="mix-blend-mode:soft-light" opacity="0.7">
<path d="M41.8857 9.66599H9.66602V41.8857M41.8857 9.66599V41.8857M41.8857 9.66599H74.1055M41.8857 41.8857H9.66602M41.8857 41.8857V74.1054M41.8857 41.8857H74.1055M9.66602 41.8857V74.1054M41.8857 74.1054H9.66602M41.8857 74.1054V106.325M41.8857 74.1054H74.1055M9.66602 74.1054V106.325M41.8857 106.325H9.66602M41.8857 106.325V138.545M41.8857 106.325H74.1055M9.66602 106.325V138.545M41.8857 138.545H9.66602M41.8857 138.545V170.765M41.8857 138.545H74.1055M9.66602 138.545V170.765M41.8857 170.765H9.66602M41.8857 170.765V202.984M41.8857 170.765H74.1055M9.66602 170.765V202.984M41.8857 202.984H9.66602M41.8857 202.984V235.204M41.8857 202.984H74.1055M9.66602 202.984V235.204M41.8857 235.204H9.66602M41.8857 235.204V267.424M41.8857 235.204H74.1055M9.66602 235.204V267.424M41.8857 267.424H9.66602M41.8857 267.424V299.644M41.8857 267.424H74.1055M9.66602 267.424V299.644M41.8857 299.644H9.66602M41.8857 299.644V331.863M41.8857 299.644H74.1055M9.66602 299.644V331.863M41.8857 331.863H9.66602M41.8857 331.863V364.083M41.8857 331.863H74.1055M9.66602 331.863V364.083M41.8857 364.083H9.66602M41.8857 364.083V396.303M41.8857 364.083H74.1055M9.66602 364.083V396.303M41.8857 396.303H9.66602M41.8857 396.303V428.522M41.8857 396.303H74.1055M9.66602 396.303V428.522M41.8857 428.522H9.66602M41.8857 428.522V460.742M41.8857 428.522H74.1055M9.66602 428.522V460.742M41.8857 460.742H9.66602M41.8857 460.742V492.962M41.8857 460.742H74.1055M9.66602 460.742V492.962M41.8857 492.962H9.66602M41.8857 492.962V525.182M41.8857 492.962H74.1055M9.66602 492.962V525.182M41.8857 525.182H9.66602M41.8857 525.182V557.401M41.8857 525.182H74.1055M9.66602 525.182V557.401M41.8857 557.401H9.66602M41.8857 557.401V589.621M41.8857 557.401H74.1055M9.66602 557.401V589.621M41.8857 589.621H9.66602M41.8857 589.621V621.841M41.8857 589.621H74.1055M9.66602 589.621V621.841M41.8857 621.841H9.66602M41.8857 621.841V654.061M41.8857 621.841H74.1055M9.66602 621.841V654.061H41.8857M41.8857 654.061H74.1055M74.1055 9.66599V41.8857M74.1055 9.66599H106.325M74.1055 41.8857V74.1054M74.1055 41.8857H106.325M74.1055 74.1054V106.325M74.1055 74.1054H106.325M74.1055 106.325V138.545M74.1055 106.325H106.325M74.1055 138.545V170.765M74.1055 138.545H106.325M74.1055 170.765V202.984M74.1055 170.765H106.325M74.1055 202.984V235.204M74.1055 202.984H106.325M74.1055 235.204V267.424M74.1055 235.204H106.325M74.1055 267.424V299.644M74.1055 267.424H106.325M74.1055 299.644V331.863M74.1055 299.644H106.325M74.1055 331.863V364.083M74.1055 331.863H106.325M74.1055 364.083V396.303M74.1055 364.083H106.325M74.1055 396.303V428.522M74.1055 396.303H106.325M74.1055 428.522V460.742M74.1055 428.522H106.325M74.1055 460.742V492.962M74.1055 460.742H106.325M74.1055 492.962V525.182M74.1055 492.962H106.325M74.1055 525.182V557.401M74.1055 525.182H106.325M74.1055 557.401V589.621M74.1055 557.401H106.325M74.1055 589.621V621.841M74.1055 589.621H106.325M74.1055 621.841V654.061M74.1055 621.841H106.325M74.1055 654.061H106.325M106.325 9.66599V41.8857M106.325 9.66599H138.545M106.325 41.8857V74.1054M106.325 41.8857H138.545M106.325 74.1054V106.325M106.325 74.1054H138.545M106.325 106.325V138.545M106.325 106.325H138.545M106.325 138.545V170.765M106.325 138.545H138.545M106.325 170.765V202.984M106.325 170.765H138.545M106.325 202.984V235.204M106.325 202.984H138.545M106.325 235.204V267.424M106.325 235.204H138.545M106.325 267.424V299.644M106.325 267.424H138.545M106.325 299.644V331.863M106.325 299.644H138.545M106.325 331.863V364.083M106.325 331.863H138.545M106.325 364.083V396.303M106.325 364.083H138.545M106.325 396.303V428.522M106.325 396.303H138.545M106.325 428.522V460.742M106.325 428.522H138.545M106.325 460.742V492.962M106.325 460.742H138.545M106.325 492.962V525.182M106.325 492.962H138.545M106.325 525.182V557.401M106.325 525.182H138.545M106.325 557.401V589.621M106.325 557.401H138.545M106.325 589.621V621.841M106.325 589.621H138.545M106.325 621.841V654.061M106.325 621.841H138.545M106.325 654.061H138.545M138.545 9.66599V41.8857M138.545 9.66599H170.765M138.545 41.8857V74.1054M138.545 41.8857H170.765M138.545 74.1054V106.325M138.545 74.1054H170.765M138.545 106.325V138.545M138.545 106.325H170.765M138.545 138.545V170.765M138.545 138.545H170.765M138.545 170.765V202.984M138.545 170.765H170.765M138.545 202.984V235.204M138.545 202.984H170.765M138.545 235.204V267.424M138.545 235.204H170.765M138.545 267.424V299.644M138.545 267.424H170.765M138.545 299.644V331.863M138.545 299.644H170.765M138.545 331.863V364.083M138.545 331.863H170.765M138.545 364.083V396.303M138.545 364.083H170.765M138.545 396.303V428.522M138.545 396.303H170.765M138.545 428.522V460.742M138.545 428.522H170.765M138.545 460.742V492.962M138.545 460.742H170.765M138.545 492.962V525.182M138.545 492.962H170.765M138.545 525.182V557.401M138.545 525.182H170.765M138.545 557.401V589.621M138.545 557.401H170.765M138.545 589.621V621.841M138.545 589.621H170.765M138.545 621.841V654.061M138.545 621.841H170.765M138.545 654.061H170.765M170.765 9.66599V41.8857M170.765 9.66599H202.984M170.765 41.8857V74.1054M170.765 41.8857H202.984M170.765 74.1054V106.325M170.765 74.1054H202.984M170.765 106.325V138.545M170.765 106.325H202.984M170.765 138.545V170.765M170.765 138.545H202.984M170.765 170.765V202.984M170.765 170.765H202.984M170.765 202.984V235.204M170.765 202.984H202.984M170.765 235.204V267.424M170.765 235.204H202.984M170.765 267.424V299.644M170.765 267.424H202.984M170.765 299.644V331.863M170.765 299.644H202.984M170.765 331.863V364.083M170.765 331.863H202.984M170.765 364.083V396.303M170.765 364.083H202.984M170.765 396.303V428.522M170.765 396.303H202.984M170.765 428.522V460.742M170.765 428.522H202.984M170.765 460.742V492.962M170.765 460.742H202.984M170.765 492.962V525.182M170.765 492.962H202.984M170.765 525.182V557.401M170.765 525.182H202.984M170.765 557.401V589.621M170.765 557.401H202.984M170.765 589.621V621.841M170.765 589.621H202.984M170.765 621.841V654.061M170.765 621.841H202.984M170.765 654.061H202.984M202.984 9.66599V41.8857M202.984 9.66599H235.204M202.984 41.8857V74.1054M202.984 41.8857H235.204M202.984 74.1054V106.325M202.984 74.1054H235.204M202.984 106.325V138.545M202.984 106.325H235.204M202.984 138.545V170.765M202.984 138.545H235.204M202.984 170.765V202.984M202.984 170.765H235.204M202.984 202.984V235.204M202.984 202.984H235.204M202.984 235.204V267.424M202.984 235.204H235.204M202.984 267.424V299.644M202.984 267.424H235.204M202.984 299.644V331.863M202.984 299.644H235.204M202.984 331.863V364.083M202.984 331.863H235.204M202.984 364.083V396.303M202.984 364.083H235.204M202.984 396.303V428.522M202.984 396.303H235.204M202.984 428.522V460.742M202.984 428.522H235.204M202.984 460.742V492.962M202.984 460.742H235.204M202.984 492.962V525.182M202.984 492.962H235.204M202.984 525.182V557.401M202.984 525.182H235.204M202.984 557.401V589.621M202.984 557.401H235.204M202.984 589.621V621.841M202.984 589.621H235.204M202.984 621.841V654.061M202.984 621.841H235.204M202.984 654.061H235.204M235.204 9.66599V41.8857M235.204 9.66599H267.424M235.204 41.8857V74.1054M235.204 41.8857H267.424M235.204 74.1054V106.325M235.204 74.1054H267.424M235.204 106.325V138.545M235.204 106.325H267.424M235.204 138.545V170.765M235.204 138.545H267.424M235.204 170.765V202.984M235.204 170.765H267.424M235.204 202.984V235.204M235.204 202.984H267.424M235.204 235.204V267.424M235.204 235.204H267.424M235.204 267.424V299.644M235.204 267.424H267.424M235.204 299.644V331.863M235.204 299.644H267.424M235.204 331.863V364.083M235.204 331.863H267.424M235.204 364.083V396.303M235.204 364.083H267.424M235.204 396.303V428.522M235.204 396.303H267.424M235.204 428.522V460.742M235.204 428.522H267.424M235.204 460.742V492.962M235.204 460.742H267.424M235.204 492.962V525.182M235.204 492.962H267.424M235.204 525.182V557.401M235.204 525.182H267.424M235.204 557.401V589.621M235.204 557.401H267.424M235.204 589.621V621.841M235.204 589.621H267.424M235.204 621.841V654.061M235.204 621.841H267.424M235.204 654.061H267.424M267.424 9.66599V41.8857M267.424 9.66599H299.644M267.424 41.8857V74.1054M267.424 41.8857H299.644M267.424 74.1054V106.325M267.424 74.1054H299.644M267.424 106.325V138.545M267.424 106.325H299.644M267.424 138.545V170.765M267.424 138.545H299.644M267.424 170.765V202.984M267.424 170.765H299.644M267.424 202.984V235.204M267.424 202.984H299.644M267.424 235.204V267.424M267.424 235.204H299.644M267.424 267.424V299.644M267.424 267.424H299.644M267.424 299.644V331.863M267.424 299.644H299.644M267.424 331.863V364.083M267.424 331.863H299.644M267.424 364.083V396.303M267.424 364.083H299.644M267.424 396.303V428.522M267.424 396.303H299.644M267.424 428.522V460.742M267.424 428.522H299.644M267.424 460.742V492.962M267.424 460.742H299.644M267.424 492.962V525.182M267.424 492.962H299.644M267.424 525.182V557.401M267.424 525.182H299.644M267.424 557.401V589.621M267.424 557.401H299.644M267.424 589.621V621.841M267.424 589.621H299.644M267.424 621.841V654.061M267.424 621.841H299.644M267.424 654.061H299.644M299.644 9.66599V41.8857M299.644 9.66599H331.863M299.644 41.8857V74.1054M299.644 41.8857H331.863M299.644 74.1054V106.325M299.644 74.1054H331.863M299.644 106.325V138.545M299.644 106.325H331.863M299.644 138.545V170.765M299.644 138.545H331.863M299.644 170.765V202.984M299.644 170.765H331.863M299.644 202.984V235.204M299.644 202.984H331.863M299.644 235.204V267.424M299.644 235.204H331.863M299.644 267.424V299.644M299.644 267.424H331.863M299.644 299.644V331.863M299.644 299.644H331.863M299.644 331.863V364.083M299.644 331.863H331.863M299.644 364.083V396.303M299.644 364.083H331.863M299.644 396.303V428.522M299.644 396.303H331.863M299.644 428.522V460.742M299.644 428.522H331.863M299.644 460.742V492.962M299.644 460.742H331.863M299.644 492.962V525.182M299.644 492.962H331.863M299.644 525.182V557.401M299.644 525.182H331.863M299.644 557.401V589.621M299.644 557.401H331.863M299.644 589.621V621.841M299.644 589.621H331.863M299.644 621.841V654.061M299.644 621.841H331.863M299.644 654.061H331.863M331.863 9.66599V41.8857M331.863 9.66599H364.083M331.863 41.8857V74.1054M331.863 41.8857H364.083M331.863 74.1054V106.325M331.863 74.1054H364.083M331.863 106.325V138.545M331.863 106.325H364.083M331.863 138.545V170.765M331.863 138.545H364.083M331.863 170.765V202.984M331.863 170.765H364.083M331.863 202.984V235.204M331.863 202.984H364.083M331.863 235.204V267.424M331.863 235.204H364.083M331.863 267.424V299.644M331.863 267.424H364.083M331.863 299.644V331.863M331.863 299.644H364.083M331.863 331.863V364.083M331.863 331.863H364.083M331.863 364.083V396.303M331.863 364.083H364.083M331.863 396.303V428.522M331.863 396.303H364.083M331.863 428.522V460.742M331.863 428.522H364.083M331.863 460.742V492.962M331.863 460.742H364.083M331.863 492.962V525.182M331.863 492.962H364.083M331.863 525.182V557.401M331.863 525.182H364.083M331.863 557.401V589.621M331.863 557.401H364.083M331.863 589.621V621.841M331.863 589.621H364.083M331.863 621.841V654.061M331.863 621.841H364.083M331.863 654.061H364.083M364.083 9.66599V41.8857M364.083 9.66599H396.303M364.083 41.8857V74.1054M364.083 41.8857H396.303M364.083 74.1054V106.325M364.083 74.1054H396.303M364.083 106.325V138.545M364.083 106.325H396.303M364.083 138.545V170.765M364.083 138.545H396.303M364.083 170.765V202.984M364.083 170.765H396.303M364.083 202.984V235.204M364.083 202.984H396.303M364.083 235.204V267.424M364.083 235.204H396.303M364.083 267.424V299.644M364.083 267.424H396.303M364.083 299.644V331.863M364.083 299.644H396.303M364.083 331.863V364.083M364.083 331.863H396.303M364.083 364.083V396.303M364.083 364.083H396.303M364.083 396.303V428.522M364.083 396.303H396.303M364.083 428.522V460.742M364.083 428.522H396.303M364.083 460.742V492.962M364.083 460.742H396.303M364.083 492.962V525.182M364.083 492.962H396.303M364.083 525.182V557.401M364.083 525.182H396.303M364.083 557.401V589.621M364.083 557.401H396.303M364.083 589.621V621.841M364.083 589.621H396.303M364.083 621.841V654.061M364.083 621.841H396.303M364.083 654.061H396.303M396.303 9.66599V41.8857M396.303 9.66599H428.523M396.303 41.8857V74.1054M396.303 41.8857H428.523M396.303 74.1054V106.325M396.303 74.1054H428.523M396.303 106.325V138.545M396.303 106.325H428.523M396.303 138.545V170.765M396.303 138.545H428.523M396.303 170.765V202.984M396.303 170.765H428.523M396.303 202.984V235.204M396.303 202.984H428.523M396.303 235.204V267.424M396.303 235.204H428.523M396.303 267.424V299.644M396.303 267.424H428.523M396.303 299.644V331.863M396.303 299.644H428.523M396.303 331.863V364.083M396.303 331.863H428.523M396.303 364.083V396.303M396.303 364.083H428.523M396.303 396.303V428.522M396.303 396.303H428.523M396.303 428.522V460.742M396.303 428.522H428.523M396.303 460.742V492.962M396.303 460.742H428.523M396.303 492.962V525.182M396.303 492.962H428.523M396.303 525.182V557.401M396.303 525.182H428.523M396.303 557.401V589.621M396.303 557.401H428.523M396.303 589.621V621.841M396.303 589.621H428.523M396.303 621.841V654.061M396.303 621.841H428.523M396.303 654.061H428.523M428.523 9.66599V41.8857M428.523 9.66599H460.742M428.523 41.8857V74.1054M428.523 41.8857H460.742M428.523 74.1054V106.325M428.523 74.1054H460.742M428.523 106.325V138.545M428.523 106.325H460.742M428.523 138.545V170.765M428.523 138.545H460.742M428.523 170.765V202.984M428.523 170.765H460.742M428.523 202.984V235.204M428.523 202.984H460.742M428.523 235.204V267.424M428.523 235.204H460.742M428.523 267.424V299.644M428.523 267.424H460.742M428.523 299.644V331.863M428.523 299.644H460.742M428.523 331.863V364.083M428.523 331.863H460.742M428.523 364.083V396.303M428.523 364.083H460.742M428.523 396.303V428.522M428.523 396.303H460.742M428.523 428.522V460.742M428.523 428.522H460.742M428.523 460.742V492.962M428.523 460.742H460.742M428.523 492.962V525.182M428.523 492.962H460.742M428.523 525.182V557.401M428.523 525.182H460.742M428.523 557.401V589.621M428.523 557.401H460.742M428.523 589.621V621.841M428.523 589.621H460.742M428.523 621.841V654.061M428.523 621.841H460.742M428.523 654.061H460.742M460.742 9.66599V41.8857M460.742 9.66599H492.962M460.742 41.8857V74.1054M460.742 41.8857H492.962M460.742 74.1054V106.325M460.742 74.1054H492.962M460.742 106.325V138.545M460.742 106.325H492.962M460.742 138.545V170.765M460.742 138.545H492.962M460.742 170.765V202.984M460.742 170.765H492.962M460.742 202.984V235.204M460.742 202.984H492.962M460.742 235.204V267.424M460.742 235.204H492.962M460.742 267.424V299.644M460.742 267.424H492.962M460.742 299.644V331.863M460.742 299.644H492.962M460.742 331.863V364.083M460.742 331.863H492.962M460.742 364.083V396.303M460.742 364.083H492.962M460.742 396.303V428.522M460.742 396.303H492.962M460.742 428.522V460.742M460.742 428.522H492.962M460.742 460.742V492.962M460.742 460.742H492.962M460.742 492.962V525.182M460.742 492.962H492.962M460.742 525.182V557.401M460.742 525.182H492.962M460.742 557.401V589.621M460.742 557.401H492.962M460.742 589.621V621.841M460.742 589.621H492.962M460.742 621.841V654.061M460.742 621.841H492.962M460.742 654.061H492.962M492.962 9.66599V41.8857M492.962 9.66599H525.182M492.962 41.8857V74.1054M492.962 41.8857H525.182M492.962 74.1054V106.325M492.962 74.1054H525.182M492.962 106.325V138.545M492.962 106.325H525.182M492.962 138.545V170.765M492.962 138.545H525.182M492.962 170.765V202.984M492.962 170.765H525.182M492.962 202.984V235.204M492.962 202.984H525.182M492.962 235.204V267.424M492.962 235.204H525.182M492.962 267.424V299.644M492.962 267.424H525.182M492.962 299.644V331.863M492.962 299.644H525.182M492.962 331.863V364.083M492.962 331.863H525.182M492.962 364.083V396.303M492.962 364.083H525.182M492.962 396.303V428.522M492.962 396.303H525.182M492.962 428.522V460.742M492.962 428.522H525.182M492.962 460.742V492.962M492.962 460.742H525.182M492.962 492.962V525.182M492.962 492.962H525.182M492.962 525.182V557.401M492.962 525.182H525.182M492.962 557.401V589.621M492.962 557.401H525.182M492.962 589.621V621.841M492.962 589.621H525.182M492.962 621.841V654.061M492.962 621.841H525.182M492.962 654.061H525.182M525.182 9.66599V41.8857M525.182 9.66599H557.401M525.182 41.8857V74.1054M525.182 41.8857H557.401M525.182 74.1054V106.325M525.182 74.1054H557.401M525.182 106.325V138.545M525.182 106.325H557.401M525.182 138.545V170.765M525.182 138.545H557.401M525.182 170.765V202.984M525.182 170.765H557.401M525.182 202.984V235.204M525.182 202.984H557.401M525.182 235.204V267.424M525.182 235.204H557.401M525.182 267.424V299.644M525.182 267.424H557.401M525.182 299.644V331.863M525.182 299.644H557.401M525.182 331.863V364.083M525.182 331.863H557.401M525.182 364.083V396.303M525.182 364.083H557.401M525.182 396.303V428.522M525.182 396.303H557.401M525.182 428.522V460.742M525.182 428.522H557.401M525.182 460.742V492.962M525.182 460.742H557.401M525.182 492.962V525.182M525.182 492.962H557.401M525.182 525.182V557.401M525.182 525.182H557.401M525.182 557.401V589.621M525.182 557.401H557.401M525.182 589.621V621.841M525.182 589.621H557.401M525.182 621.841V654.061M525.182 621.841H557.401M525.182 654.061H557.401M557.401 9.66599V41.8857M557.401 9.66599H589.621M557.401 41.8857V74.1054M557.401 41.8857H589.621M557.401 74.1054V106.325M557.401 74.1054H589.621M557.401 106.325V138.545M557.401 106.325H589.621M557.401 138.545V170.765M557.401 138.545H589.621M557.401 170.765V202.984M557.401 170.765H589.621M557.401 202.984V235.204M557.401 202.984H589.621M557.401 235.204V267.424M557.401 235.204H589.621M557.401 267.424V299.644M557.401 267.424H589.621M557.401 299.644V331.863M557.401 299.644H589.621M557.401 331.863V364.083M557.401 331.863H589.621M557.401 364.083V396.303M557.401 364.083H589.621M557.401 396.303V428.522M557.401 396.303H589.621M557.401 428.522V460.742M557.401 428.522H589.621M557.401 460.742V492.962M557.401 460.742H589.621M557.401 492.962V525.182M557.401 492.962H589.621M557.401 525.182V557.401M557.401 525.182H589.621M557.401 557.401V589.621M557.401 557.401H589.621M557.401 589.621V621.841M557.401 589.621H589.621M557.401 621.841V654.061M557.401 621.841H589.621M557.401 654.061H589.621M589.621 9.66599V41.8857M589.621 9.66599H621.841M589.621 41.8857V74.1054M589.621 41.8857H621.841M589.621 74.1054V106.325M589.621 74.1054H621.841M589.621 106.325V138.545M589.621 106.325H621.841M589.621 138.545V170.765M589.621 138.545H621.841M589.621 170.765V202.984M589.621 170.765H621.841M589.621 202.984V235.204M589.621 202.984H621.841M589.621 235.204V267.424M589.621 235.204H621.841M589.621 267.424V299.644M589.621 267.424H621.841M589.621 299.644V331.863M589.621 299.644H621.841M589.621 331.863V364.083M589.621 331.863H621.841M589.621 364.083V396.303M589.621 364.083H621.841M589.621 396.303V428.522M589.621 396.303H621.841M589.621 428.522V460.742M589.621 428.522H621.841M589.621 460.742V492.962M589.621 460.742H621.841M589.621 492.962V525.182M589.621 492.962H621.841M589.621 525.182V557.401M589.621 525.182H621.841M589.621 557.401V589.621M589.621 557.401H621.841M589.621 589.621V621.841M589.621 589.621H621.841M589.621 621.841V654.061M589.621 621.841H621.841M589.621 654.061H621.841M621.841 9.66599V41.8857M621.841 9.66599H654.061M621.841 41.8857V74.1054M621.841 41.8857H654.061M621.841 74.1054V106.325M621.841 74.1054H654.061M621.841 106.325V138.545M621.841 106.325H654.061M621.841 138.545V170.765M621.841 138.545H654.061M621.841 170.765V202.984M621.841 170.765H654.061M621.841 202.984V235.204M621.841 202.984H654.061M621.841 235.204V267.424M621.841 235.204H654.061M621.841 267.424V299.644M621.841 267.424H654.061M621.841 299.644V331.863M621.841 299.644H654.061M621.841 331.863V364.083M621.841 331.863H654.061M621.841 364.083V396.303M621.841 364.083H654.061M621.841 396.303V428.522M621.841 396.303H654.061M621.841 428.522V460.742M621.841 428.522H654.061M621.841 460.742V492.962M621.841 460.742H654.061M621.841 492.962V525.182M621.841 492.962H654.061M621.841 525.182V557.401M621.841 525.182H654.061M621.841 557.401V589.621M621.841 557.401H654.061M621.841 589.621V621.841M621.841 589.621H654.061M621.841 621.841V654.061M621.841 621.841H654.061M621.841 654.061H654.061M654.061 9.66599V41.8857M654.061 9.66599H686.28M654.061 41.8857V74.1054M654.061 41.8857H686.28M654.061 74.1054V106.325M654.061 74.1054H686.28M654.061 106.325V138.545M654.061 106.325H686.28M654.061 138.545V170.765M654.061 138.545H686.28M654.061 170.765V202.984M654.061 170.765H686.28M654.061 202.984V235.204M654.061 202.984H686.28M654.061 235.204V267.424M654.061 235.204H686.28M654.061 267.424V299.644M654.061 267.424H686.28M654.061 299.644V331.863M654.061 299.644H686.28M654.061 331.863V364.083M654.061 331.863H686.28M654.061 364.083V396.303M654.061 364.083H686.28M654.061 396.303V428.522M654.061 396.303H686.28M654.061 428.522V460.742M654.061 428.522H686.28M654.061 460.742V492.962M654.061 460.742H686.28M654.061 492.962V525.182M654.061 492.962H686.28M654.061 525.182V557.401M654.061 525.182H686.28M654.061 557.401V589.621M654.061 557.401H686.28M654.061 589.621V621.841M654.061 589.621H686.28M654.061 621.841V654.061M654.061 621.841H686.28M654.061 654.061H686.28M686.28 9.66599V41.8857M686.28 9.66599H718.5M686.28 41.8857V74.1054M686.28 41.8857H718.5M686.28 74.1054V106.325M686.28 74.1054H718.5M686.28 106.325V138.545M686.28 106.325H718.5M686.28 138.545V170.765M686.28 138.545H718.5M686.28 170.765V202.984M686.28 170.765H718.5M686.28 202.984V235.204M686.28 202.984H718.5M686.28 235.204V267.424M686.28 235.204H718.5M686.28 267.424V299.644M686.28 267.424H718.5M686.28 299.644V331.863M686.28 299.644H718.5M686.28 331.863V364.083M686.28 331.863H718.5M686.28 364.083V396.303M686.28 364.083H718.5M686.28 396.303V428.522M686.28 396.303H718.5M686.28 428.522V460.742M686.28 428.522H718.5M686.28 460.742V492.962M686.28 460.742H718.5M686.28 492.962V525.182M686.28 492.962H718.5M686.28 525.182V557.401M686.28 525.182H718.5M686.28 557.401V589.621M686.28 557.401H718.5M686.28 589.621V621.841M686.28 589.621H718.5M686.28 621.841V654.061M686.28 621.841H718.5M686.28 654.061H718.5M718.5 9.66599V41.8857M718.5 9.66599H750.72M718.5 41.8857V74.1054M718.5 41.8857H750.72M718.5 74.1054V106.325M718.5 74.1054H750.72M718.5 106.325V138.545M718.5 106.325H750.72M718.5 138.545V170.765M718.5 138.545H750.72M718.5 170.765V202.984M718.5 170.765H750.72M718.5 202.984V235.204M718.5 202.984H750.72M718.5 235.204V267.424M718.5 235.204H750.72M718.5 267.424V299.644M718.5 267.424H750.72M718.5 299.644V331.863M718.5 299.644H750.72M718.5 331.863V364.083M718.5 331.863H750.72M718.5 364.083V396.303M718.5 364.083H750.72M718.5 396.303V428.522M718.5 396.303H750.72M718.5 428.522V460.742M718.5 428.522H750.72M718.5 460.742V492.962M718.5 460.742H750.72M718.5 492.962V525.182M718.5 492.962H750.72M718.5 525.182V557.401M718.5 525.182H750.72M718.5 557.401V589.621M718.5 557.401H750.72M718.5 589.621V621.841M718.5 589.621H750.72M718.5 621.841V654.061M718.5 621.841H750.72M718.5 654.061H750.72M750.72 9.66599V41.8857M750.72 9.66599H782.94M750.72 41.8857V74.1054M750.72 41.8857H782.94M750.72 74.1054V106.325M750.72 74.1054H782.94M750.72 106.325V138.545M750.72 106.325H782.94M750.72 138.545V170.765M750.72 138.545H782.94M750.72 170.765V202.984M750.72 170.765H782.94M750.72 202.984V235.204M750.72 202.984H782.94M750.72 235.204V267.424M750.72 235.204H782.94M750.72 267.424V299.644M750.72 267.424H782.94M750.72 299.644V331.863M750.72 299.644H782.94M750.72 331.863V364.083M750.72 331.863H782.94M750.72 364.083V396.303M750.72 364.083H782.94M750.72 396.303V428.522M750.72 396.303H782.94M750.72 428.522V460.742M750.72 428.522H782.94M750.72 460.742V492.962M750.72 460.742H782.94M750.72 492.962V525.182M750.72 492.962H782.94M750.72 525.182V557.401M750.72 525.182H782.94M750.72 557.401V589.621M750.72 557.401H782.94M750.72 589.621V621.841M750.72 589.621H782.94M750.72 621.841V654.061M750.72 621.841H782.94M750.72 654.061H782.94M782.94 9.66599V41.8857M782.94 9.66599H815.159M782.94 41.8857V74.1054M782.94 41.8857H815.159M782.94 74.1054V106.325M782.94 74.1054H815.159M782.94 106.325V138.545M782.94 106.325H815.159M782.94 138.545V170.765M782.94 138.545H815.159M782.94 170.765V202.984M782.94 170.765H815.159M782.94 202.984V235.204M782.94 202.984H815.159M782.94 235.204V267.424M782.94 235.204H815.159M782.94 267.424V299.644M782.94 267.424H815.159M782.94 299.644V331.863M782.94 299.644H815.159M782.94 331.863V364.083M782.94 331.863H815.159M782.94 364.083V396.303M782.94 364.083H815.159M782.94 396.303V428.522M782.94 396.303H815.159M782.94 428.522V460.742M782.94 428.522H815.159M782.94 460.742V492.962M782.94 460.742H815.159M782.94 492.962V525.182M782.94 492.962H815.159M782.94 525.182V557.401M782.94 525.182H815.159M782.94 557.401V589.621M782.94 557.401H815.159M782.94 589.621V621.841M782.94 589.621H815.159M782.94 621.841V654.061M782.94 621.841H815.159M782.94 654.061H815.159M815.159 9.66599V41.8857M815.159 9.66599H847.379M815.159 41.8857V74.1054M815.159 41.8857H847.379M815.159 74.1054V106.325M815.159 74.1054H847.379M815.159 106.325V138.545M815.159 106.325H847.379M815.159 138.545V170.765M815.159 138.545H847.379M815.159 170.765V202.984M815.159 170.765H847.379M815.159 202.984V235.204M815.159 202.984H847.379M815.159 235.204V267.424M815.159 235.204H847.379M815.159 267.424V299.644M815.159 267.424H847.379M815.159 299.644V331.863M815.159 299.644H847.379M815.159 331.863V364.083M815.159 331.863H847.379M815.159 364.083V396.303M815.159 364.083H847.379M815.159 396.303V428.522M815.159 396.303H847.379M815.159 428.522V460.742M815.159 428.522H847.379M815.159 460.742V492.962M815.159 460.742H847.379M815.159 492.962V525.182M815.159 492.962H847.379M815.159 525.182V557.401M815.159 525.182H847.379M815.159 557.401V589.621M815.159 557.401H847.379M815.159 589.621V621.841M815.159 589.621H847.379M815.159 621.841V654.061M815.159 621.841H847.379M815.159 654.061H847.379M847.379 9.66599V41.8857M847.379 9.66599H879.599M847.379 41.8857V74.1054M847.379 41.8857H879.599M847.379 74.1054V106.325M847.379 74.1054H879.599M847.379 106.325V138.545M847.379 106.325H879.599M847.379 138.545V170.765M847.379 138.545H879.599M847.379 170.765V202.984M847.379 170.765H879.599M847.379 202.984V235.204M847.379 202.984H879.599M847.379 235.204V267.424M847.379 235.204H879.599M847.379 267.424V299.644M847.379 267.424H879.599M847.379 299.644V331.863M847.379 299.644H879.599M847.379 331.863V364.083M847.379 331.863H879.599M847.379 364.083V396.303M847.379 364.083H879.599M847.379 396.303V428.522M847.379 396.303H879.599M847.379 428.522V460.742M847.379 428.522H879.599M847.379 460.742V492.962M847.379 460.742H879.599M847.379 492.962V525.182M847.379 492.962H879.599M847.379 525.182V557.401M847.379 525.182H879.599M847.379 557.401V589.621M847.379 557.401H879.599M847.379 589.621V621.841M847.379 589.621H879.599M847.379 621.841V654.061M847.379 621.841H879.599M847.379 654.061H879.599M879.599 9.66599V41.8857M879.599 9.66599H911.819M879.599 41.8857V74.1054M879.599 41.8857H911.819M879.599 74.1054V106.325M879.599 74.1054H911.819M879.599 106.325V138.545M879.599 106.325H911.819M879.599 138.545V170.765M879.599 138.545H911.819M879.599 170.765V202.984M879.599 170.765H911.819M879.599 202.984V235.204M879.599 202.984H911.819M879.599 235.204V267.424M879.599 235.204H911.819M879.599 267.424V299.644M879.599 267.424H911.819M879.599 299.644V331.863M879.599 299.644H911.819M879.599 331.863V364.083M879.599 331.863H911.819M879.599 364.083V396.303M879.599 364.083H911.819M879.599 396.303V428.522M879.599 396.303H911.819M879.599 428.522V460.742M879.599 428.522H911.819M879.599 460.742V492.962M879.599 460.742H911.819M879.599 492.962V525.182M879.599 492.962H911.819M879.599 525.182V557.401M879.599 525.182H911.819M879.599 557.401V589.621M879.599 557.401H911.819M879.599 589.621V621.841M879.599 589.621H911.819M879.599 621.841V654.061M879.599 621.841H911.819M879.599 654.061H911.819M911.819 9.66599V41.8857M911.819 9.66599H944.038M911.819 41.8857V74.1054M911.819 41.8857H944.038M911.819 74.1054V106.325M911.819 74.1054H944.038M911.819 106.325V138.545M911.819 106.325H944.038M911.819 138.545V170.765M911.819 138.545H944.038M911.819 170.765V202.984M911.819 170.765H944.038M911.819 202.984V235.204M911.819 202.984H944.038M911.819 235.204V267.424M911.819 235.204H944.038M911.819 267.424V299.644M911.819 267.424H944.038M911.819 299.644V331.863M911.819 299.644H944.038M911.819 331.863V364.083M911.819 331.863H944.038M911.819 364.083V396.303M911.819 364.083H944.038M911.819 396.303V428.522M911.819 396.303H944.038M911.819 428.522V460.742M911.819 428.522H944.038M911.819 460.742V492.962M911.819 460.742H944.038M911.819 492.962V525.182M911.819 492.962H944.038M911.819 525.182V557.401M911.819 525.182H944.038M911.819 557.401V589.621M911.819 557.401H944.038M911.819 589.621V621.841M911.819 589.621H944.038M911.819 621.841V654.061M911.819 621.841H944.038M911.819 654.061H944.038M944.038 9.66599V41.8857M944.038 9.66599H976.258M944.038 41.8857V74.1054M944.038 41.8857H976.258M944.038 74.1054V106.325M944.038 74.1054H976.258M944.038 106.325V138.545M944.038 106.325H976.258M944.038 138.545V170.765M944.038 138.545H976.258M944.038 170.765V202.984M944.038 170.765H976.258M944.038 202.984V235.204M944.038 202.984H976.258M944.038 235.204V267.424M944.038 235.204H976.258M944.038 267.424V299.644M944.038 267.424H976.258M944.038 299.644V331.863M944.038 299.644H976.258M944.038 331.863V364.083M944.038 331.863H976.258M944.038 364.083V396.303M944.038 364.083H976.258M944.038 396.303V428.522M944.038 396.303H976.258M944.038 428.522V460.742M944.038 428.522H976.258M944.038 460.742V492.962M944.038 460.742H976.258M944.038 492.962V525.182M944.038 492.962H976.258M944.038 525.182V557.401M944.038 525.182H976.258M944.038 557.401V589.621M944.038 557.401H976.258M944.038 589.621V621.841M944.038 589.621H976.258M944.038 621.841V654.061M944.038 621.841H976.258M944.038 654.061H976.258M976.258 9.66599V41.8857M976.258 9.66599H1008.48M976.258 41.8857V74.1054M976.258 41.8857H1008.48M976.258 74.1054V106.325M976.258 74.1054H1008.48M976.258 106.325V138.545M976.258 106.325H1008.48M976.258 138.545V170.765M976.258 138.545H1008.48M976.258 170.765V202.984M976.258 170.765H1008.48M976.258 202.984V235.204M976.258 202.984H1008.48M976.258 235.204V267.424M976.258 235.204H1008.48M976.258 267.424V299.644M976.258 267.424H1008.48M976.258 299.644V331.863M976.258 299.644H1008.48M976.258 331.863V364.083M976.258 331.863H1008.48M976.258 364.083V396.303M976.258 364.083H1008.48M976.258 396.303V428.522M976.258 396.303H1008.48M976.258 428.522V460.742M976.258 428.522H1008.48M976.258 460.742V492.962M976.258 460.742H1008.48M976.258 492.962V525.182M976.258 492.962H1008.48M976.258 525.182V557.401M976.258 525.182H1008.48M976.258 557.401V589.621M976.258 557.401H1008.48M976.258 589.621V621.841M976.258 589.621H1008.48M976.258 621.841V654.061M976.258 621.841H1008.48M976.258 654.061H1008.48M1008.48 9.66599V41.8857M1008.48 9.66599H1040.7M1008.48 41.8857V74.1054M1008.48 41.8857H1040.7M1008.48 74.1054V106.325M1008.48 74.1054H1040.7M1008.48 106.325V138.545M1008.48 106.325H1040.7M1008.48 138.545V170.765M1008.48 138.545H1040.7M1008.48 170.765V202.984M1008.48 170.765H1040.7M1008.48 202.984V235.204M1008.48 202.984H1040.7M1008.48 235.204V267.424M1008.48 235.204H1040.7M1008.48 267.424V299.644M1008.48 267.424H1040.7M1008.48 299.644V331.863M1008.48 299.644H1040.7M1008.48 331.863V364.083M1008.48 331.863H1040.7M1008.48 364.083V396.303M1008.48 364.083H1040.7M1008.48 396.303V428.522M1008.48 396.303H1040.7M1008.48 428.522V460.742M1008.48 428.522H1040.7M1008.48 460.742V492.962M1008.48 460.742H1040.7M1008.48 492.962V525.182M1008.48 492.962H1040.7M1008.48 525.182V557.401M1008.48 525.182H1040.7M1008.48 557.401V589.621M1008.48 557.401H1040.7M1008.48 589.621V621.841M1008.48 589.621H1040.7M1008.48 621.841V654.061M1008.48 621.841H1040.7M1008.48 654.061H1040.7M1040.7 9.66599V41.8857M1040.7 9.66599H1072.92M1040.7 41.8857V74.1054M1040.7 41.8857H1072.92M1040.7 74.1054V106.325M1040.7 74.1054H1072.92M1040.7 106.325V138.545M1040.7 106.325H1072.92M1040.7 138.545V170.765M1040.7 138.545H1072.92M1040.7 170.765V202.984M1040.7 170.765H1072.92M1040.7 202.984V235.204M1040.7 202.984H1072.92M1040.7 235.204V267.424M1040.7 235.204H1072.92M1040.7 267.424V299.644M1040.7 267.424H1072.92M1040.7 299.644V331.863M1040.7 299.644H1072.92M1040.7 331.863V364.083M1040.7 331.863H1072.92M1040.7 364.083V396.303M1040.7 364.083H1072.92M1040.7 396.303V428.522M1040.7 396.303H1072.92M1040.7 428.522V460.742M1040.7 428.522H1072.92M1040.7 460.742V492.962M1040.7 460.742H1072.92M1040.7 492.962V525.182M1040.7 492.962H1072.92M1040.7 525.182V557.401M1040.7 525.182H1072.92M1040.7 557.401V589.621M1040.7 557.401H1072.92M1040.7 589.621V621.841M1040.7 589.621H1072.92M1040.7 621.841V654.061M1040.7 621.841H1072.92M1040.7 654.061H1072.92M1072.92 9.66599V41.8857M1072.92 9.66599H1105.14M1072.92 41.8857V74.1054M1072.92 41.8857H1105.14M1072.92 74.1054V106.325M1072.92 74.1054H1105.14M1072.92 106.325V138.545M1072.92 106.325H1105.14M1072.92 138.545V170.765M1072.92 138.545H1105.14M1072.92 170.765V202.984M1072.92 170.765H1105.14M1072.92 202.984V235.204M1072.92 202.984H1105.14M1072.92 235.204V267.424M1072.92 235.204H1105.14M1072.92 267.424V299.644M1072.92 267.424H1105.14M1072.92 299.644V331.863M1072.92 299.644H1105.14M1072.92 331.863V364.083M1072.92 331.863H1105.14M1072.92 364.083V396.303M1072.92 364.083H1105.14M1072.92 396.303V428.522M1072.92 396.303H1105.14M1072.92 428.522V460.742M1072.92 428.522H1105.14M1072.92 460.742V492.962M1072.92 460.742H1105.14M1072.92 492.962V525.182M1072.92 492.962H1105.14M1072.92 525.182V557.401M1072.92 525.182H1105.14M1072.92 557.401V589.621M1072.92 557.401H1105.14M1072.92 589.621V621.841M1072.92 589.621H1105.14M1072.92 621.841V654.061M1072.92 621.841H1105.14M1072.92 654.061H1105.14M1105.14 9.66599V41.8857M1105.14 9.66599H1137.36M1105.14 41.8857V74.1054M1105.14 41.8857H1137.36M1105.14 74.1054V106.325M1105.14 74.1054H1137.36M1105.14 106.325V138.545M1105.14 106.325H1137.36M1105.14 138.545V170.765M1105.14 138.545H1137.36M1105.14 170.765V202.984M1105.14 170.765H1137.36M1105.14 202.984V235.204M1105.14 202.984H1137.36M1105.14 235.204V267.424M1105.14 235.204H1137.36M1105.14 267.424V299.644M1105.14 267.424H1137.36M1105.14 299.644V331.863M1105.14 299.644H1137.36M1105.14 331.863V364.083M1105.14 331.863H1137.36M1105.14 364.083V396.303M1105.14 364.083H1137.36M1105.14 396.303V428.522M1105.14 396.303H1137.36M1105.14 428.522V460.742M1105.14 428.522H1137.36M1105.14 460.742V492.962M1105.14 460.742H1137.36M1105.14 492.962V525.182M1105.14 492.962H1137.36M1105.14 525.182V557.401M1105.14 525.182H1137.36M1105.14 557.401V589.621M1105.14 557.401H1137.36M1105.14 589.621V621.841M1105.14 589.621H1137.36M1105.14 621.841V654.061M1105.14 621.841H1137.36M1105.14 654.061H1137.36M1137.36 9.66599V41.8857M1137.36 9.66599H1169.58M1137.36 41.8857V74.1054M1137.36 41.8857H1169.58M1137.36 74.1054V106.325M1137.36 74.1054H1169.58M1137.36 106.325V138.545M1137.36 106.325H1169.58M1137.36 138.545V170.765M1137.36 138.545H1169.58M1137.36 170.765V202.984M1137.36 170.765H1169.58M1137.36 202.984V235.204M1137.36 202.984H1169.58M1137.36 235.204V267.424M1137.36 235.204H1169.58M1137.36 267.424V299.644M1137.36 267.424H1169.58M1137.36 299.644V331.863M1137.36 299.644H1169.58M1137.36 331.863V364.083M1137.36 331.863H1169.58M1137.36 364.083V396.303M1137.36 364.083H1169.58M1137.36 396.303V428.522M1137.36 396.303H1169.58M1137.36 428.522V460.742M1137.36 428.522H1169.58M1137.36 460.742V492.962M1137.36 460.742H1169.58M1137.36 492.962V525.182M1137.36 492.962H1169.58M1137.36 525.182V557.401M1137.36 525.182H1169.58M1137.36 557.401V589.621M1137.36 557.401H1169.58M1137.36 589.621V621.841M1137.36 589.621H1169.58M1137.36 621.841V654.061M1137.36 621.841H1169.58M1137.36 654.061H1169.58M1169.58 9.66599V41.8857M1169.58 9.66599H1201.8M1169.58 41.8857V74.1054M1169.58 41.8857H1201.8M1169.58 74.1054V106.325M1169.58 74.1054H1201.8M1169.58 106.325V138.545M1169.58 106.325H1201.8M1169.58 138.545V170.765M1169.58 138.545H1201.8M1169.58 170.765V202.984M1169.58 170.765H1201.8M1169.58 202.984V235.204M1169.58 202.984H1201.8M1169.58 235.204V267.424M1169.58 235.204H1201.8M1169.58 267.424V299.644M1169.58 267.424H1201.8M1169.58 299.644V331.863M1169.58 299.644H1201.8M1169.58 331.863V364.083M1169.58 331.863H1201.8M1169.58 364.083V396.303M1169.58 364.083H1201.8M1169.58 396.303V428.522M1169.58 396.303H1201.8M1169.58 428.522V460.742M1169.58 428.522H1201.8M1169.58 460.742V492.962M1169.58 460.742H1201.8M1169.58 492.962V525.182M1169.58 492.962H1201.8M1169.58 525.182V557.401M1169.58 525.182H1201.8M1169.58 557.401V589.621M1169.58 557.401H1201.8M1169.58 589.621V621.841M1169.58 589.621H1201.8M1169.58 621.841V654.061M1169.58 621.841H1201.8M1169.58 654.061H1201.8M1201.8 9.66599V41.8857M1201.8 9.66599H1234.02M1201.8 41.8857V74.1054M1201.8 41.8857H1234.02M1201.8 74.1054V106.325M1201.8 74.1054H1234.02M1201.8 106.325V138.545M1201.8 106.325H1234.02M1201.8 138.545V170.765M1201.8 138.545H1234.02M1201.8 170.765V202.984M1201.8 170.765H1234.02M1201.8 202.984V235.204M1201.8 202.984H1234.02M1201.8 235.204V267.424M1201.8 235.204H1234.02M1201.8 267.424V299.644M1201.8 267.424H1234.02M1201.8 299.644V331.863M1201.8 299.644H1234.02M1201.8 331.863V364.083M1201.8 331.863H1234.02M1201.8 364.083V396.303M1201.8 364.083H1234.02M1201.8 396.303V428.522M1201.8 396.303H1234.02M1201.8 428.522V460.742M1201.8 428.522H1234.02M1201.8 460.742V492.962M1201.8 460.742H1234.02M1201.8 492.962V525.182M1201.8 492.962H1234.02M1201.8 525.182V557.401M1201.8 525.182H1234.02M1201.8 557.401V589.621M1201.8 557.401H1234.02M1201.8 589.621V621.841M1201.8 589.621H1234.02M1201.8 621.841V654.061M1201.8 621.841H1234.02M1201.8 654.061H1234.02M1234.02 9.66599V41.8857M1234.02 9.66599H1266.24M1234.02 41.8857V74.1054M1234.02 41.8857H1266.24M1234.02 74.1054V106.325M1234.02 74.1054H1266.24M1234.02 106.325V138.545M1234.02 106.325H1266.24M1234.02 138.545V170.765M1234.02 138.545H1266.24M1234.02 170.765V202.984M1234.02 170.765H1266.24M1234.02 202.984V235.204M1234.02 202.984H1266.24M1234.02 235.204V267.424M1234.02 235.204H1266.24M1234.02 267.424V299.644M1234.02 267.424H1266.24M1234.02 299.644V331.863M1234.02 299.644H1266.24M1234.02 331.863V364.083M1234.02 331.863H1266.24M1234.02 364.083V396.303M1234.02 364.083H1266.24M1234.02 396.303V428.522M1234.02 396.303H1266.24M1234.02 428.522V460.742M1234.02 428.522H1266.24M1234.02 460.742V492.962M1234.02 460.742H1266.24M1234.02 492.962V525.182M1234.02 492.962H1266.24M1234.02 525.182V557.401M1234.02 525.182H1266.24M1234.02 557.401V589.621M1234.02 557.401H1266.24M1234.02 589.621V621.841M1234.02 589.621H1266.24M1234.02 621.841V654.061M1234.02 621.841H1266.24M1234.02 654.061H1266.24M1266.24 9.66599V41.8857M1266.24 9.66599H1298.46M1266.24 41.8857V74.1054M1266.24 41.8857H1298.46M1266.24 74.1054V106.325M1266.24 74.1054H1298.46M1266.24 106.325V138.545M1266.24 106.325H1298.46M1266.24 138.545V170.765M1266.24 138.545H1298.46M1266.24 170.765V202.984M1266.24 170.765H1298.46M1266.24 202.984V235.204M1266.24 202.984H1298.46M1266.24 235.204V267.424M1266.24 235.204H1298.46M1266.24 267.424V299.644M1266.24 267.424H1298.46M1266.24 299.644V331.863M1266.24 299.644H1298.46M1266.24 331.863V364.083M1266.24 331.863H1298.46M1266.24 364.083V396.303M1266.24 364.083H1298.46M1266.24 396.303V428.522M1266.24 396.303H1298.46M1266.24 428.522V460.742M1266.24 428.522H1298.46M1266.24 460.742V492.962M1266.24 460.742H1298.46M1266.24 492.962V525.182M1266.24 492.962H1298.46M1266.24 525.182V557.401M1266.24 525.182H1298.46M1266.24 557.401V589.621M1266.24 557.401H1298.46M1266.24 589.621V621.841M1266.24 589.621H1298.46M1266.24 621.841V654.061M1266.24 621.841H1298.46M1266.24 654.061H1298.46M1298.46 9.66599V41.8857M1298.46 9.66599H1330.68M1298.46 41.8857V74.1054M1298.46 41.8857H1330.68M1298.46 74.1054V106.325M1298.46 74.1054H1330.68M1298.46 106.325V138.545M1298.46 106.325H1330.68M1298.46 138.545V170.765M1298.46 138.545H1330.68M1298.46 170.765V202.984M1298.46 170.765H1330.68M1298.46 202.984V235.204M1298.46 202.984H1330.68M1298.46 235.204V267.424M1298.46 235.204H1330.68M1298.46 267.424V299.644M1298.46 267.424H1330.68M1298.46 299.644V331.863M1298.46 299.644H1330.68M1298.46 331.863V364.083M1298.46 331.863H1330.68M1298.46 364.083V396.303M1298.46 364.083H1330.68M1298.46 396.303V428.522M1298.46 396.303H1330.68M1298.46 428.522V460.742M1298.46 428.522H1330.68M1298.46 460.742V492.962M1298.46 460.742H1330.68M1298.46 492.962V525.182M1298.46 492.962H1330.68M1298.46 525.182V557.401M1298.46 525.182H1330.68M1298.46 557.401V589.621M1298.46 557.401H1330.68M1298.46 589.621V621.841M1298.46 589.621H1330.68M1298.46 621.841V654.061M1298.46 621.841H1330.68M1298.46 654.061H1330.68M1330.68 9.66599V41.8857M1330.68 9.66599H1362.89M1330.68 41.8857V74.1054M1330.68 41.8857H1362.89M1330.68 74.1054V106.325M1330.68 74.1054H1362.89M1330.68 106.325V138.545M1330.68 106.325H1362.89M1330.68 138.545V170.765M1330.68 138.545H1362.89M1330.68 170.765V202.984M1330.68 170.765H1362.89M1330.68 202.984V235.204M1330.68 202.984H1362.89M1330.68 235.204V267.424M1330.68 235.204H1362.89M1330.68 267.424V299.644M1330.68 267.424H1362.89M1330.68 299.644V331.863M1330.68 299.644H1362.89M1330.68 331.863V364.083M1330.68 331.863H1362.89M1330.68 364.083V396.303M1330.68 364.083H1362.89M1330.68 396.303V428.522M1330.68 396.303H1362.89M1330.68 428.522V460.742M1330.68 428.522H1362.89M1330.68 460.742V492.962M1330.68 460.742H1362.89M1330.68 492.962V525.182M1330.68 492.962H1362.89M1330.68 525.182V557.401M1330.68 525.182H1362.89M1330.68 557.401V589.621M1330.68 557.401H1362.89M1330.68 589.621V621.841M1330.68 589.621H1362.89M1330.68 621.841V654.061M1330.68 621.841H1362.89M1330.68 654.061H1362.89M1362.89 9.66599V41.8857M1362.89 9.66599H1395.11M1362.89 41.8857V74.1054M1362.89 41.8857H1395.11M1362.89 74.1054V106.325M1362.89 74.1054H1395.11M1362.89 106.325V138.545M1362.89 106.325H1395.11M1362.89 138.545V170.765M1362.89 138.545H1395.11M1362.89 170.765V202.984M1362.89 170.765H1395.11M1362.89 202.984V235.204M1362.89 202.984H1395.11M1362.89 235.204V267.424M1362.89 235.204H1395.11M1362.89 267.424V299.644M1362.89 267.424H1395.11M1362.89 299.644V331.863M1362.89 299.644H1395.11M1362.89 331.863V364.083M1362.89 331.863H1395.11M1362.89 364.083V396.303M1362.89 364.083H1395.11M1362.89 396.303V428.522M1362.89 396.303H1395.11M1362.89 428.522V460.742M1362.89 428.522H1395.11M1362.89 460.742V492.962M1362.89 460.742H1395.11M1362.89 492.962V525.182M1362.89 492.962H1395.11M1362.89 525.182V557.401M1362.89 525.182H1395.11M1362.89 557.401V589.621M1362.89 557.401H1395.11M1362.89 589.621V621.841M1362.89 589.621H1395.11M1362.89 621.841V654.061M1362.89 621.841H1395.11M1362.89 654.061H1395.11M1395.11 9.66599V41.8857M1395.11 9.66599H1427.33V41.8857M1395.11 41.8857V74.1054M1395.11 41.8857H1427.33M1395.11 74.1054V106.325M1395.11 74.1054H1427.33M1395.11 106.325V138.545M1395.11 106.325H1427.33M1395.11 138.545V170.765M1395.11 138.545H1427.33M1395.11 170.765V202.984M1395.11 170.765H1427.33M1395.11 202.984V235.204M1395.11 202.984H1427.33M1395.11 235.204V267.424M1395.11 235.204H1427.33M1395.11 267.424V299.644M1395.11 267.424H1427.33M1395.11 299.644V331.863M1395.11 299.644H1427.33M1395.11 331.863V364.083M1395.11 331.863H1427.33M1395.11 364.083V396.303M1395.11 364.083H1427.33M1395.11 396.303V428.522M1395.11 396.303H1427.33M1395.11 428.522V460.742M1395.11 428.522H1427.33M1395.11 460.742V492.962M1395.11 460.742H1427.33M1395.11 492.962V525.182M1395.11 492.962H1427.33M1395.11 525.182V557.401M1395.11 525.182H1427.33M1395.11 557.401V589.621M1395.11 557.401H1427.33M1395.11 589.621V621.841M1395.11 589.621H1427.33M1395.11 621.841V654.061M1395.11 621.841H1427.33M1395.11 654.061H1427.33V621.841M1427.33 41.8857V74.1054M1427.33 74.1054V106.325M1427.33 106.325V138.545M1427.33 138.545V170.765M1427.33 170.765V202.984M1427.33 202.984V235.204M1427.33 235.204V267.424M1427.33 267.424V299.644M1427.33 299.644V331.863M1427.33 331.863V364.083M1427.33 364.083V396.303M1427.33 396.303V428.522M1427.33 428.522V460.742M1427.33 460.742V492.962M1427.33 492.962V525.182M1427.33 525.182V557.401M1427.33 557.401V589.621M1427.33 589.621V621.841" stroke="url(#paint0_radial_4004_69)" stroke-opacity="0.6" stroke-width="0.402747"/>
</g>
<g style="mix-blend-mode:soft-light" opacity="0.8">
<path d="M138.545 128.879V138.545M138.545 138.545V148.211M138.545 138.545H128.879M138.545 138.545H148.211M138.545 386.637V396.303M138.545 396.303V405.969M138.545 396.303H128.879M138.545 396.303H148.211M138.545 644.395V654.061M138.545 654.061V663.727M138.545 654.061H128.879M138.545 654.061H148.211M396.303 128.879V138.545M396.303 138.545V148.211M396.303 138.545H386.637M396.303 138.545H405.969M396.303 386.637V396.303M396.303 396.303V405.969M396.303 396.303H386.637M396.303 396.303H405.969M396.303 644.395V654.061M396.303 654.061V663.727M396.303 654.061H386.637M396.303 654.061H405.969M654.061 128.879V138.545M654.061 138.545V148.211M654.061 138.545H644.395M654.061 138.545H663.727M654.061 386.637V396.303M654.061 396.303V405.969M654.061 396.303H644.395M654.061 396.303H663.727M654.061 644.395V654.061M654.061 654.061V663.727M654.061 654.061H644.395M654.061 654.061H663.727M911.819 128.879V138.545M911.819 138.545V148.211M911.819 138.545H902.153M911.819 138.545H921.485M911.819 386.637V396.303M911.819 396.303V405.969M911.819 396.303H902.153M911.819 396.303H921.485M911.819 644.395V654.061M911.819 654.061V663.727M911.819 654.061H902.153M911.819 654.061H921.485M1169.58 128.879V138.545M1169.58 138.545V148.211M1169.58 138.545H1159.91M1169.58 138.545H1179.24M1169.58 386.637V396.303M1169.58 396.303V405.969M1169.58 396.303H1159.91M1169.58 396.303H1179.24M1169.58 644.395V654.061M1169.58 654.061V663.727M1169.58 654.061H1159.91M1169.58 654.061H1179.24M1427.33 128.879V138.545M1427.33 138.545V148.211M1427.33 138.545H1417.67M1427.33 138.545H1437M1427.33 386.637V396.303M1427.33 396.303V405.969M1427.33 396.303H1417.67M1427.33 396.303H1437M1427.33 644.395V654.061M1427.33 654.061V663.727M1427.33 654.061H1417.67M1427.33 654.061H1437M138.545 0.000213623V9.66613M138.545 9.66613V19.3321M138.545 9.66613H128.879M138.545 9.66613H148.211M138.545 257.758V267.424M138.545 267.424V277.09M138.545 267.424H128.879M138.545 267.424H148.211M138.545 515.516V525.182M138.545 525.182V534.848M138.545 525.182H128.879M138.545 525.182H148.211M396.303 0.000213623V9.66613M396.303 9.66613V19.3321M396.303 9.66613H386.637M396.303 9.66613H405.969M396.303 257.758V267.424M396.303 267.424V277.09M396.303 267.424H386.637M396.303 267.424H405.969M396.303 515.516V525.182M396.303 525.182V534.848M396.303 525.182H386.637M396.303 525.182H405.969M654.061 0.000213623V9.66613M654.061 9.66613V19.3321M654.061 9.66613H644.395M654.061 9.66613H663.727M654.061 257.758V267.424M654.061 267.424V277.09M654.061 267.424H644.395M654.061 267.424H663.727M654.061 515.516V525.182M654.061 525.182V534.848M654.061 525.182H644.395M654.061 525.182H663.727M911.819 0.000213623V9.66613M911.819 9.66613V19.3321M911.819 9.66613H902.153M911.819 9.66613H921.485M911.819 257.758V267.424M911.819 267.424V277.09M911.819 267.424H902.153M911.819 267.424H921.485M911.819 515.516V525.182M911.819 525.182V534.848M911.819 525.182H902.153M911.819 525.182H921.485M1169.58 0.000213623V9.66613M1169.58 9.66613V19.3321M1169.58 9.66613H1159.91M1169.58 9.66613H1179.24M1169.58 257.758V267.424M1169.58 267.424V277.09M1169.58 267.424H1159.91M1169.58 267.424H1179.24M1169.58 515.516V525.182M1169.58 525.182V534.848M1169.58 525.182H1159.91M1169.58 525.182H1179.24M1427.33 0.000213623V9.66613M1427.33 9.66613V19.3321M1427.33 9.66613H1417.67M1427.33 9.66613H1437M1427.33 257.758V267.424M1427.33 267.424V277.09M1427.33 267.424H1417.67M1427.33 267.424H1437M1427.33 515.516V525.182M1427.33 525.182V534.848M1427.33 525.182H1417.67M1427.33 525.182H1437M9.66592 128.879V138.545M9.66592 138.545V148.211M9.66592 138.545H0M9.66592 138.545H19.3318M9.66592 386.637V396.303M9.66592 396.303V405.969M9.66592 396.303H0M9.66592 396.303H19.3318M9.66592 644.395V654.061M9.66592 654.061V663.727M9.66592 654.061H0M9.66592 654.061H19.3318M267.424 128.879V138.545M267.424 138.545V148.211M267.424 138.545H257.758M267.424 138.545H277.09M267.424 386.637V396.303M267.424 396.303V405.969M267.424 396.303H257.758M267.424 396.303H277.09M267.424 644.395V654.061M267.424 654.061V663.727M267.424 654.061H257.758M267.424 654.061H277.09M525.182 128.879V138.545M525.182 138.545V148.211M525.182 138.545H515.516M525.182 138.545H534.848M525.182 386.637V396.303M525.182 396.303V405.969M525.182 396.303H515.516M525.182 396.303H534.848M525.182 644.395V654.061M525.182 654.061V663.727M525.182 654.061H515.516M525.182 654.061H534.848M782.94 128.879V138.545M782.94 138.545V148.211M782.94 138.545H773.274M782.94 138.545H792.606M782.94 386.637V396.303M782.94 396.303V405.969M782.94 396.303H773.274M782.94 396.303H792.606M782.94 644.395V654.061M782.94 654.061V663.727M782.94 654.061H773.274M782.94 654.061H792.606M1040.7 128.879V138.545M1040.7 138.545V148.211M1040.7 138.545H1031.03M1040.7 138.545H1050.36M1040.7 386.637V396.303M1040.7 396.303V405.969M1040.7 396.303H1031.03M1040.7 396.303H1050.36M1040.7 644.395V654.061M1040.7 654.061V663.727M1040.7 654.061H1031.03M1040.7 654.061H1050.36M1298.46 128.879V138.545M1298.46 138.545V148.211M1298.46 138.545H1288.79M1298.46 138.545H1308.12M1298.46 386.637V396.303M1298.46 396.303V405.969M1298.46 396.303H1288.79M1298.46 396.303H1308.12M1298.46 644.395V654.061M1298.46 654.061V663.727M1298.46 654.061H1288.79M1298.46 654.061H1308.12M9.66592 0.000261141V9.66618M9.66592 9.66618V19.3321M9.66592 9.66618H0M9.66592 9.66618H19.3318M9.66592 257.758V267.424M9.66592 267.424V277.09M9.66592 267.424H0M9.66592 267.424H19.3318M9.66592 515.516V525.182M9.66592 525.182V534.848M9.66592 525.182H0M9.66592 525.182H19.3318M267.424 0.000213623V9.66613M267.424 9.66613V19.3321M267.424 9.66613H257.758M267.424 9.66613H277.09M267.424 257.758V267.424M267.424 267.424V277.09M267.424 267.424H257.758M267.424 267.424H277.09M267.424 515.516V525.182M267.424 525.182V534.848M267.424 525.182H257.758M267.424 525.182H277.09M525.182 0.000213623V9.66613M525.182 9.66613V19.3321M525.182 9.66613H515.516M525.182 9.66613H534.848M525.182 257.758V267.424M525.182 267.424V277.09M525.182 267.424H515.516M525.182 267.424H534.848M525.182 515.516V525.182M525.182 525.182V534.848M525.182 525.182H515.516M525.182 525.182H534.848M782.94 0.000213623V9.66613M782.94 9.66613V19.3321M782.94 9.66613H773.274M782.94 9.66613H792.606M782.94 257.758V267.424M782.94 267.424V277.09M782.94 267.424H773.274M782.94 267.424H792.606M782.94 515.516V525.182M782.94 525.182V534.848M782.94 525.182H773.274M782.94 525.182H792.606M1040.7 0.000213623V9.66613M1040.7 9.66613V19.3321M1040.7 9.66613H1031.03M1040.7 9.66613H1050.36M1040.7 257.758V267.424M1040.7 267.424V277.09M1040.7 267.424H1031.03M1040.7 267.424H1050.36M1040.7 515.516V525.182M1040.7 525.182V534.848M1040.7 525.182H1031.03M1040.7 525.182H1050.36M1298.46 0.000213623V9.66613M1298.46 9.66613V19.3321M1298.46 9.66613H1288.79M1298.46 9.66613H1308.12M1298.46 257.758V267.424M1298.46 267.424V277.09M1298.46 267.424H1288.79M1298.46 267.424H1308.12M1298.46 515.516V525.182M1298.46 525.182V534.848M1298.46 525.182H1288.79M1298.46 525.182H1308.12" stroke="url(#paint1_radial_4004_69)" stroke-opacity="0.6" stroke-width="0.805493"/>
</g>
<defs>
<radialGradient id="paint0_radial_4004_69" cx="0" cy="0" r="1" gradientUnits="userSpaceOnUse" gradientTransform="translate(718.5 331.863) rotate(90) scale(322.197 708.834)">
<stop stop-color="white"/>
<stop offset="1" stop-color="white" stop-opacity="0"/>
</radialGradient>
<radialGradient id="paint1_radial_4004_69" cx="0" cy="0" r="1" gradientUnits="userSpaceOnUse" gradientTransform="translate(718.5 331.863) rotate(90) scale(331.863 718.5)">
<stop stop-color="white"/>
<stop offset="1" stop-color="white" stop-opacity="0"/>
</radialGradient>
</defs>
</svg>
