<svg width="58" height="39" viewBox="0 0 58 39" fill="none" xmlns="http://www.w3.org/2000/svg">
<g clip-path="url(#clip0_184_3596)">
<path fill-rule="evenodd" clip-rule="evenodd" d="M18.2776 32.2462V34.1594V36.0727H17.439V35.6081C17.173 35.9527 16.7695 36.169 16.221 36.169C15.1395 36.169 14.2917 35.3287 14.2917 34.1594C14.2917 32.9911 15.1395 32.1499 16.221 32.1499C16.7695 32.1499 17.173 32.3662 17.439 32.7108V32.2462H18.2776ZM16.3252 32.9344C15.5994 32.9344 15.1552 33.4869 15.1552 34.1594C15.1552 34.832 15.5994 35.3845 16.3252 35.3845C17.0189 35.3845 17.4871 34.8558 17.4871 34.1594C17.4871 33.4631 17.0189 32.9344 16.3252 32.9344ZM46.6152 34.1594C46.6152 33.4869 47.0594 32.9344 47.7853 32.9344C48.4798 32.9344 48.9471 33.4631 48.9471 34.1594C48.9471 34.8558 48.4798 35.3845 47.7853 35.3845C47.0594 35.3845 46.6152 34.832 46.6152 34.1594ZM49.7386 30.7095V34.1594V36.0727H48.8991V35.6081C48.633 35.9527 48.2295 36.169 47.681 36.169C46.5995 36.169 45.7517 35.3287 45.7517 34.1594C45.7517 32.9911 46.5995 32.1499 47.681 32.1499C48.2295 32.1499 48.633 32.3662 48.8991 32.7108V30.7095H49.7386ZM28.6868 32.895C29.227 32.895 29.5742 33.2312 29.6629 33.8232H27.6616C27.7512 33.2707 28.0891 32.895 28.6868 32.895ZM26.7824 34.1594C26.7824 32.9664 27.5729 32.1499 28.7033 32.1499C29.7839 32.1499 30.5264 32.9664 30.5347 34.1594C30.5347 34.2712 30.5264 34.3757 30.5181 34.4792H27.6542C27.7752 35.1683 28.2674 35.4167 28.8076 35.4167C29.1946 35.4167 29.6066 35.2718 29.9298 35.0162L30.3407 35.6329C29.8725 36.025 29.3406 36.169 28.7597 36.169C27.6053 36.169 26.7824 35.3764 26.7824 34.1594ZM38.829 34.1594C38.829 33.4869 39.2732 32.9344 39.9991 32.9344C40.6925 32.9344 41.1609 33.4631 41.1609 34.1594C41.1609 34.8558 40.6925 35.3845 39.9991 35.3845C39.2732 35.3845 38.829 34.832 38.829 34.1594ZM41.9514 32.2462V34.1594V36.0727H41.1128V35.6081C40.8459 35.9527 40.4433 36.169 39.8946 36.169C38.8132 36.169 37.9654 35.3287 37.9654 34.1594C37.9654 32.9911 38.8132 32.1499 39.8946 32.1499C40.4433 32.1499 40.8459 32.3662 41.1128 32.7108V32.2462H41.9514ZM34.093 34.1594C34.093 35.3204 34.9076 36.169 36.1506 36.169C36.7316 36.169 37.1185 36.0407 37.5379 35.7126L37.1351 35.0401C36.8203 35.2646 36.4896 35.3845 36.1258 35.3845C35.4561 35.3764 34.964 34.8961 34.964 34.1594C34.964 33.4228 35.4561 32.9425 36.1258 32.9344C36.4896 32.9344 36.8203 33.0543 37.1351 33.2788L37.5379 32.6062C37.1185 32.2782 36.7316 32.1499 36.1506 32.1499C34.9076 32.1499 34.093 32.9985 34.093 34.1594ZM43.888 32.7108C44.1059 32.3744 44.4209 32.1499 44.9049 32.1499C45.0747 32.1499 45.3167 32.1821 45.5023 32.2544L45.2438 33.0388C45.0664 32.9664 44.889 32.9425 44.7192 32.9425C44.1706 32.9425 43.8963 33.2944 43.8963 33.9276V36.0727H43.0568V32.2462H43.888V32.7108ZM22.4252 32.5504C22.0216 32.2865 21.4657 32.1499 20.8524 32.1499C19.8753 32.1499 19.2463 32.6145 19.2463 33.3751C19.2463 33.9991 19.7147 34.3839 20.5772 34.504L20.9734 34.5598C21.4333 34.6241 21.6504 34.744 21.6504 34.9603C21.6504 35.2563 21.3437 35.4248 20.7711 35.4248C20.1902 35.4248 19.771 35.2407 19.4883 35.0244L19.0931 35.6723C19.553 36.0086 20.1339 36.169 20.7628 36.169C21.8766 36.169 22.5221 35.6484 22.5221 34.92C22.5221 34.2473 22.0142 33.8955 21.1747 33.7755L20.7794 33.7187C20.4166 33.671 20.1256 33.5996 20.1256 33.343C20.1256 33.0626 20.3998 32.895 20.8597 32.895C21.352 32.895 21.8285 33.0791 22.0622 33.223L22.4252 32.5504ZM32.2294 32.7108C32.4464 32.3744 32.7614 32.1499 33.2452 32.1499C33.4152 32.1499 33.6572 32.1821 33.8427 32.2544L33.5841 33.0388C33.4069 32.9664 33.2296 32.9425 33.0596 32.9425C32.5111 32.9425 32.2368 33.2944 32.2368 33.9276V36.0727H31.3982V32.2462H32.2294V32.7108ZM26.0888 32.2462H24.7174V31.0852H23.8696V32.2462H23.0874V33.0067H23.8696V34.7523C23.8696 35.6403 24.2168 36.169 25.2087 36.169C25.5725 36.169 25.9919 36.0572 26.2578 35.8729L26.0158 35.16C25.7655 35.304 25.4913 35.3764 25.2734 35.3764C24.854 35.3764 24.7174 35.1197 24.7174 34.7358V33.0067H26.0888V32.2462ZM13.55 33.671V36.0727H12.7023V33.9432C12.7023 33.2944 12.428 32.9344 11.8554 32.9344C11.2985 32.9344 10.9115 33.2871 10.9115 33.9515V36.0727H10.0637V33.9432C10.0637 33.2944 9.78207 32.9344 9.22514 32.9344C8.65162 32.9344 8.28046 33.2871 8.28046 33.9515V36.0727H7.43359V32.2462H8.27308V32.718C8.58801 32.27 8.99065 32.1499 9.40249 32.1499C9.99169 32.1499 10.411 32.4066 10.677 32.8307C11.0325 32.2939 11.5405 32.1416 12.0327 32.1499C12.9691 32.1582 13.55 32.7666 13.55 33.671Z" fill="#1A1A1A"/>
<path d="M34.6344 25.8503H22.3657V3.97412H34.6344V25.8503Z" fill="#FF5F00"/>
<path d="M23.1455 14.9128C23.1455 10.4751 25.2396 6.5221 28.5006 3.97468C26.116 2.11186 23.1062 1 19.8354 1C12.092 1 5.81494 7.22892 5.81494 14.9128C5.81494 22.5967 12.092 28.8256 19.8354 28.8256C23.1062 28.8256 26.116 27.7138 28.5006 25.8509C25.2396 23.3036 23.1455 19.3506 23.1455 14.9128Z" fill="#EB001B"/>
<path d="M51.1852 14.9128C51.1852 22.5967 44.9082 28.8256 37.1648 28.8256C33.8938 28.8256 30.8842 27.7138 28.4985 25.8509C31.7605 23.3036 33.8547 19.3506 33.8547 14.9128C33.8547 10.4751 31.7605 6.5221 28.4985 3.97468C30.8842 2.11186 33.8938 1 37.1648 1C44.9082 1 51.1852 7.22892 51.1852 14.9128Z" fill="#F79E1B"/>
</g>
<defs>
<clipPath id="clip0_184_3596">
<rect width="58" height="39" fill="white"/>
</clipPath>
</defs>
</svg>
