<svg width="1311" height="561" viewBox="0 0 1311 561" fill="none" xmlns="http://www.w3.org/2000/svg">
<g clip-path="url(#clip0_4099_7)">
<path fill-rule="evenodd" clip-rule="evenodd" d="M1266.89 943.607L1457.29 994.623L1508.3 804.229L1337.63 758.498L1312.62 772.938L1266.89 943.607ZM1297.66 747.787L1311.91 772.474L1266.11 943.398L1075.72 892.382L1126.74 701.988L1297.66 747.787ZM1322.48 733.043L1298.16 747.084L1126.94 701.208L1177.96 510.814L1368.35 561.83L1322.48 733.043ZM1337.55 757.64L1323.33 732.998L1369.13 562.039L1559.53 613.055L1508.51 803.449L1337.55 757.64ZM1457.78 995.471L1509 804.297L1509.15 803.739L1560.23 613.123L1560.38 612.565L1611.45 421.949L1611.6 421.392L1662.68 230.775L1662.83 230.218L1713.9 39.6006L1714.05 39.0434L1765.28 -152.131L1574.1 -203.356L1573.54 -203.505L1382.93 -254.581L1382.37 -254.73L1191.75 -305.806L1191.2 -305.955L1000.58 -357.03L1000.02 -357.18L809.407 -408.255L808.849 -408.405L618.233 -459.48L617.675 -459.63L427.059 -510.705L426.501 -510.855L235.885 -561.93L235.327 -562.08L44.7108 -613.155L44.1536 -613.304L-147.021 -664.529L-198.246 -473.355L-249.471 -282.181L-249.62 -281.624L-300.845 -90.4499L-351.921 100.166L-403.146 291.341L-403.295 291.898L-454.52 483.072L-263.345 534.297L-262.789 534.446L-72.1718 585.522L-71.614 585.671L119.002 636.747L119.56 636.896L310.176 687.972L310.734 688.121L501.35 739.197L501.908 739.346L692.524 790.422L693.081 790.571L883.698 841.647L884.255 841.796L1074.87 892.871L1075.43 893.021L1266.05 944.096L1266.6 944.246L1457.78 995.471ZM1074.94 892.173L884.546 841.157L935.562 650.763L1125.96 701.779L1074.94 892.173ZM693.372 789.932L883.766 840.948L934.782 650.554L744.388 599.538L693.372 789.932ZM692.592 789.723L502.198 738.707L553.214 548.313L743.608 599.329L692.592 789.723ZM311.024 687.482L501.418 738.498L552.434 548.104L362.04 497.089L311.024 687.482ZM310.244 687.273L119.85 636.257L170.866 445.864L361.26 496.879L310.244 687.273ZM-71.3238 585.032L119.07 636.048L170.086 445.654L-20.3079 394.639L-71.3238 585.032ZM-72.1036 584.823L-262.497 533.807L-211.481 343.414L-21.0878 394.43L-72.1036 584.823ZM-453.672 482.582L-263.278 533.598L-212.263 343.205L-402.656 292.189L-453.672 482.582ZM1126.17 700.999L935.771 649.983L986.787 459.589L1177.18 510.605L1126.17 700.999ZM744.597 598.758L934.991 649.774L986.007 459.38L814.764 413.496L790.482 427.515L744.597 598.758ZM775.988 403.106L789.783 427L743.817 598.549L553.423 547.533L604.439 357.139L775.988 403.106ZM800.335 387.62L775.369 402.034L775.417 402.117L604.648 356.359L655.664 165.966L846.057 216.982L800.335 387.62ZM815.753 412.925L815.836 412.877L801.197 387.523L846.838 217.191L1037.23 268.207L986.216 458.6L815.753 412.925ZM362.249 496.308L552.643 547.324L603.659 356.93L413.265 305.914L362.249 496.308ZM361.469 496.099L171.075 445.083L222.091 254.689L412.485 305.705L361.469 496.099ZM-20.0988 393.858L170.295 444.874L221.311 254.48L30.9171 203.464L-20.0988 393.858ZM-20.8787 393.649L-211.272 342.633L-174.41 205.061L-174 204.824L-107.435 166.393L30.1372 203.256L-20.8787 393.649ZM-106.446 165.822L30.3455 202.475L76.3355 30.8388L75.5249 31.3068L61.3259 6.71333L-109.032 -38.934L-145.651 97.7274L-145.414 98.1377L-106.742 165.119L-106.364 165.774L-106.446 165.822ZM-145.927 98.7605L-107.397 165.498L-107.48 165.545L-140.073 156.812L-139.991 156.764L-154.661 131.355L-145.927 98.7605ZM-146.536 97.9123L-109.812 -39.143L-300.206 -90.1589L-351.222 100.235L-214.036 136.994L-214.084 136.911L-213.429 136.533L-146.536 97.9123ZM-213.003 137.271L-213.05 137.188L-146.813 98.9456L-155.546 131.539L-180.457 145.921L-180.409 146.004L-213.003 137.271ZM-213.465 137.982L-351.431 101.015L-402.447 291.408L-212.053 342.424L-175.085 204.458L-213.465 137.982ZM-174.809 203.425L-212.432 138.259L-179.838 146.993L-166.075 170.831L-174.809 203.425ZM-174.133 204.028L-108.468 166.116L-141.062 157.383L-165.4 171.434L-174.133 204.028ZM86.8362 -8.34804L86.3678 -9.15937L60.7133 5.65229L60.7546 5.72376L-108.823 -39.7143L-57.8067 -230.108L132.587 -179.092L86.8362 -8.34804ZM101.108 16.5364L101.18 16.4952L87.4071 -7.35919L133.367 -178.883L323.761 -127.867L272.745 62.5264L101.108 16.5364ZM77.3251 30.2675L100.118 17.1078L272.536 63.3068L221.52 253.7L31.126 202.685L77.3251 30.2675ZM1559.74 612.275L1369.34 561.259L1420.36 370.865L1610.75 421.881L1559.74 612.275ZM1178.17 510.034L1368.56 561.05L1419.58 370.656L1229.19 319.64L1178.17 510.034ZM1177.39 509.825L986.996 458.809L1038.01 268.416L1228.41 319.432L1177.39 509.825ZM413.474 305.134L603.867 356.15L654.883 165.757L464.49 114.741L413.474 305.134ZM412.694 304.925L222.3 253.91L273.316 63.5159L463.71 114.532L412.694 304.925ZM1610.96 421.101L1420.57 370.085L1471.58 179.691L1661.98 230.707L1610.96 421.101ZM1229.39 318.86L1419.79 369.876L1470.8 179.482L1333.02 142.562L1333.2 142.876L1332.54 143.254L1266.18 181.568L1229.39 318.86ZM1266.46 180.535L1332.17 142.599L1331.98 142.285L1299.39 133.552L1299.57 133.866L1275.19 147.941L1266.46 180.535ZM1274.2 148.512L1265.47 181.106L1265.18 181.271L1226.51 114.29L1226.83 114.108L1259.42 122.842L1259.11 123.023L1273.92 148.678L1274.2 148.512ZM1284.93 108.498L1284.76 108.211L1260.41 122.27L1227.82 113.537L1293.49 75.6177L1293.66 75.9038L1284.93 108.498ZM1298.82 132.562L1285.5 109.487L1294.23 76.8926L1331.41 141.296L1298.82 132.562ZM1332.45 141.573L1471.01 178.702L1522.03 -11.6919L1331.64 -62.7078L1294.51 75.8595L1332.45 141.573ZM1293.94 74.8706L1330.86 -62.9167L1140.46 -113.933L1089.45 76.461L1226.78 113.26L1293.12 74.9627L1293.77 74.5845L1293.94 74.8706ZM1225.79 113.832L1089.24 77.2415L1038.22 267.635L1228.61 318.651L1265.19 182.139L1264.91 182.304L1264.53 181.649L1225.86 114.668L1225.48 114.013L1225.79 113.832ZM847.047 216.41L1037.44 267.426L1088.46 77.0324L898.063 26.0165L847.047 216.41ZM846.266 216.201L655.873 165.185L706.889 -25.2085L897.282 25.8074L846.266 216.201ZM464.699 113.96L655.093 164.976L706.109 -25.4174L515.715 -76.4333L464.699 113.96ZM463.919 113.751L273.525 62.7355L324.541 -127.658L514.935 -76.6424L463.919 113.751ZM-299.997 -90.9395L-109.604 -39.9236L-58.5878 -230.317L-248.981 -281.333L-299.997 -90.9395ZM1662.19 229.927L1471.79 178.911L1522.81 -11.4828L1713.2 39.5331L1662.19 229.927ZM898.272 25.236L1088.67 76.2519L1139.68 -114.142L949.288 -165.158L898.272 25.236ZM897.491 25.0269L707.098 -25.9889L758.114 -216.383L948.507 -165.367L897.491 25.0269ZM515.924 -77.2138L706.318 -26.1979L757.334 -216.592L566.94 -267.607L515.924 -77.2138ZM515.144 -77.4229L324.75 -128.439L375.766 -318.832L566.16 -267.816L515.144 -77.4229ZM133.576 -179.664L323.97 -128.648L374.985 -319.041L184.592 -370.057L133.576 -179.664ZM132.796 -179.873L-57.5976 -230.889L-6.58175 -421.282L183.812 -370.266L132.796 -179.873ZM-248.772 -282.114L-58.3787 -231.098L-7.36282 -421.491L-197.757 -472.507L-248.772 -282.114ZM1713.41 38.7526L1523.02 -12.2633L1574.03 -202.657L1764.43 -151.641L1713.41 38.7526ZM1331.84 -63.4882L1522.24 -12.4724L1573.25 -202.866L1382.86 -253.882L1331.84 -63.4882ZM1331.06 -63.6972L1140.67 -114.713L1191.69 -305.107L1382.08 -254.091L1331.06 -63.6972ZM949.497 -165.938L1139.89 -114.922L1190.91 -305.316L1000.51 -356.332L949.497 -165.938ZM948.716 -166.147L758.323 -217.163L809.339 -407.557L999.732 -356.541L948.716 -166.147ZM567.149 -268.388L757.543 -217.372L808.559 -407.766L618.165 -458.782L567.149 -268.388ZM566.369 -268.597L375.975 -319.613L426.991 -510.006L617.385 -458.991L566.369 -268.597ZM184.801 -370.838L375.195 -319.822L426.21 -510.216L235.817 -561.231L184.801 -370.838ZM184.021 -371.047L-6.37262 -422.063L44.6432 -612.456L235.037 -561.44L184.021 -371.047ZM-197.547 -473.288L-7.1531 -422.272L43.8628 -612.665L-146.531 -663.681L-197.547 -473.288Z" fill="url(#paint0_radial_4099_7)" fill-opacity="0.6"/>
</g>
<defs>
<radialGradient id="paint0_radial_4099_7" cx="0" cy="0" r="1" gradientUnits="userSpaceOnUse" gradientTransform="translate(329.038 1383.39) rotate(-75) scale(1705.23 2841.5)">
<stop stop-color="white"/>
<stop offset="1" stop-color="white" stop-opacity="0"/>
</radialGradient>
<clipPath id="clip0_4099_7">
<rect width="1311" height="561" fill="white" transform="translate(1311 561) rotate(-180)"/>
</clipPath>
</defs>
</svg>
