<svg width="1440" height="333" viewBox="0 0 1440 333" fill="none" xmlns="http://www.w3.org/2000/svg">
<g opacity="0.5">
<path d="M23.8641 329.79L35.0503 332.209M23.8641 329.79L57.0135 329.79M23.8641 329.79L12.3061 327.292M23.8641 329.79L0.387477 329.79M35.0503 332.209L30.9799 332.208L26.9516 332.203L23.0072 332.188L19.1865 332.159L15.5315 332.112L12.0811 332.041L8.87653 331.943L5.90221 331.817L3.34981 331.644L1.02608 331.443L0.387477 331.372L0.387477 329.79M35.0503 332.209L67.6667 332.209M67.6667 332.209L100.283 332.209M67.6667 332.209L57.0135 329.79M100.283 332.209L132.9 332.209M100.283 332.209L90.1629 329.79M132.9 332.209L165.517 332.209M132.9 332.209L123.312 329.79M165.517 332.209L198.133 332.209M165.517 332.209L156.461 329.79M198.133 332.209L230.75 332.209M198.133 332.209L189.61 329.79M230.75 332.209L263.367 332.209M230.75 332.209L222.76 329.79M263.367 332.209L295.983 332.209M263.367 332.209L255.909 329.79M295.983 332.209L328.6 332.209M295.983 332.209L289.059 329.79M328.6 332.209L361.217 332.209M328.6 332.209L322.208 329.79M361.217 332.209L393.833 332.209M361.217 332.209L355.357 329.79M393.833 332.209L426.45 332.209M393.833 332.209L388.507 329.79M426.45 332.209L459.067 332.209M426.45 332.209L425.266 331.612L423.472 330.707L421.656 329.79M459.067 332.209L491.683 332.209M459.067 332.209L458.015 331.612L454.806 329.79M491.683 332.209L524.3 332.209M491.683 332.209L487.955 329.79M524.3 332.209L556.917 332.209M524.3 332.209L523.114 331.311L521.912 330.403L521.509 330.097L521.104 329.79M556.917 332.209L589.533 332.209M556.917 332.209L555.928 331.311L555.596 331.01L555.262 330.707L554.253 329.79M589.533 332.209L622.15 332.209M589.533 332.209L587.402 329.79M622.15 332.209L621.953 331.911L621.756 331.612L620.755 330.097L620.552 329.79M622.15 332.209L654.766 332.209M654.766 332.209L687.384 332.209M654.766 332.209L653.701 329.79M687.384 332.209L720 332.209M687.384 332.209L687.186 331.311L686.851 329.79M720 332.209L752.616 332.209M720 332.209L720 329.79M752.616 332.209L785.234 332.209M752.616 332.209L752.814 331.311L753.149 329.79M785.234 332.209L817.85 332.209M785.234 332.209L786.299 329.79M817.85 332.209L818.047 331.911L818.244 331.612L819.245 330.097L819.448 329.79M817.85 332.209L850.466 332.209M850.466 332.209L883.084 332.209M850.466 332.209L852.327 330.097L852.598 329.79M883.084 332.209L915.7 332.209M883.084 332.209L884.072 331.311L884.404 331.01L885.073 330.403L885.409 330.097L885.747 329.79M915.7 332.209L948.317 332.209M915.7 332.209L916.886 331.311L918.087 330.403L918.491 330.097L918.896 329.79M948.317 332.209L980.933 332.209M948.317 332.209L952.045 329.79M980.933 332.209L1013.55 332.209M980.933 332.209L981.985 331.612L985.194 329.79M1013.55 332.209L1046.17 332.209M1013.55 332.209L1018.34 329.79M1046.17 332.209L1078.78 332.209M1046.17 332.209L1051.49 329.79M1078.78 332.209L1111.4 332.209M1078.78 332.209L1084.64 329.79M1111.4 332.209L1144.02 332.209M1111.4 332.209L1117.79 329.79M1144.02 332.209L1176.63 332.209M1144.02 332.209L1150.94 329.79M1176.63 332.209L1209.25 332.209M1176.63 332.209L1184.09 329.79M1209.25 332.209L1241.87 332.209M1209.25 332.209L1217.24 329.79M1241.87 332.209L1274.48 332.209M1241.87 332.209L1250.39 329.79M1274.48 332.209L1307.1 332.209M1274.48 332.209L1283.54 329.79M1307.1 332.209L1339.72 332.209M1307.1 332.209L1316.69 329.79M1339.72 332.209L1372.33 332.209M1339.72 332.209L1349.84 329.79M1372.33 332.209L1404.95 332.209M1372.33 332.209L1382.99 329.79M1404.95 332.209L1409.02 332.208L1413.05 332.203L1416.99 332.188L1420.81 332.159L1424.47 332.112L1427.92 332.041L1431.12 331.943L1434.1 331.818L1436.65 331.644L1438.97 331.443L1439.61 331.372L1439.61 329.79M1404.95 332.209L1416.14 329.79M1349.84 329.79L1316.69 329.79M1349.84 329.79L1382.99 329.79M1349.84 329.79L1360.29 327.292M1316.69 329.79L1326.6 327.292M1316.69 329.79L1283.54 329.79M1217.24 329.79L1184.09 329.79M1217.24 329.79L1250.39 329.79M1217.24 329.79L1219.28 329.173L1225.5 327.292M1184.09 329.79L1191.8 327.292M1184.09 329.79L1150.94 329.79M1084.64 329.79L1051.49 329.79M1084.64 329.79L1117.79 329.79M1084.64 329.79L1086.14 329.173L1086.89 328.863L1090.7 327.292M1051.49 329.79L1052.17 329.483L1052.85 329.173L1057 327.292M1051.49 329.79L1018.34 329.79M952.045 329.79L952.52 329.483L955.898 327.292M952.045 329.79L918.896 329.79M952.045 329.79L985.194 329.79M918.896 329.79L919.711 329.173L920.122 328.863L920.533 328.551L922.198 327.292M918.896 329.79L885.747 329.79M819.448 329.79L786.299 329.79M819.448 329.79L852.598 329.79M819.448 329.79L821.099 327.292M786.299 329.79L786.434 329.483L786.57 329.173L786.707 328.863L787.121 327.924L787.399 327.292M786.299 329.79L753.149 329.79M686.851 329.79L653.701 329.79M686.851 329.79L720 329.79M686.851 329.79L686.3 327.292M653.701 329.79L653.566 329.483L653.43 329.173L653.293 328.863L652.601 327.292M653.701 329.79L620.552 329.79M554.253 329.79L521.104 329.79M554.253 329.79L587.402 329.79M554.253 329.79L553.574 329.173L552.198 327.924L551.851 327.609L551.501 327.292M521.104 329.79L520.289 329.173L519.878 328.863L519.466 328.551L517.802 327.292M521.104 329.79L487.955 329.79M421.656 329.79L388.507 329.79M421.656 329.79L454.806 329.79M421.656 329.79L420.433 329.173L419.817 328.863L416.703 327.292M388.507 329.79L387.828 329.483L387.148 329.173L383.003 327.292M388.507 329.79L355.357 329.79M289.059 329.79L255.909 329.79M289.059 329.79L322.208 329.79M289.059 329.79L287.292 329.173L286.403 328.863L281.904 327.292M255.909 329.79L248.204 327.292M255.909 329.79L222.76 329.79M156.461 329.79L123.312 329.79M156.461 329.79L189.61 329.79M156.461 329.79L147.105 327.292M123.312 329.79L113.405 327.292M123.312 329.79L90.1629 329.79M1439.73 307.171L1439.61 307.171M1406.36 307.171L1393.71 310.363M1406.36 307.171L1419.5 303.857M1406.36 307.171L1368.23 307.171M1406.36 307.171L1439.61 307.171M1393.71 310.363L1431.14 310.363M1393.71 310.363L1381.51 313.44M1393.71 310.363L1356.28 310.363M1431.14 310.363L1418.26 313.44M1431.14 310.363L1439.61 310.363M1431.14 310.363L1439.61 308.338M1393.86 319.271L1358.39 319.271M1393.86 319.271L1382.29 322.037M1393.86 319.271L1429.32 319.271M1393.86 319.271L1405.84 316.408M1358.39 319.271L1347.43 322.037M1358.39 319.271L1369.74 316.408M1358.39 319.271L1322.93 319.271M1382.29 322.037L1347.43 322.037M1382.29 322.037L1371.1 324.708M1382.29 322.037L1417.14 322.037M1347.43 322.037L1312.57 322.037M1347.43 322.037L1336.84 324.708M1439.98 256.784L1439.61 256.784M1409.21 256.784L1392.89 262.076M1409.21 256.784L1426.34 251.228M1409.21 256.784L1359.98 256.784M1409.21 256.784L1439.61 256.784M1392.89 262.076L1377.32 267.124M1392.89 262.076L1344.83 262.076M1392.89 262.076L1439.61 262.076M1424.28 267.124L1377.32 267.124M1424.28 267.124L1408.35 271.944M1424.28 267.124L1439.61 267.124M1424.28 267.124L1439.61 262.482M1393.13 276.55L1348.26 276.55M1393.13 276.55L1378.57 280.957M1393.13 276.55L1438.01 276.55M1393.13 276.55L1408.35 271.944M1348.26 276.55L1334.67 280.957M1348.26 276.55L1362.46 271.944M1348.26 276.55L1303.38 276.55M1378.57 280.957L1334.67 280.957M1378.57 280.957L1422.48 280.957M1378.57 280.957L1364.63 285.178M1334.67 280.957L1321.66 285.178M1334.67 280.957L1290.76 280.957M1338.44 293.105L1297.21 293.105M1338.44 293.105L1326.13 296.831M1338.44 293.105L1379.67 293.105M1338.44 293.105L1351.27 289.223M1297.21 293.105L1285.72 296.831M1297.21 293.105L1309.18 289.223M1297.21 293.105L1255.98 293.105M1326.13 296.831L1285.72 296.831M1326.13 296.831L1366.54 296.831M1326.13 296.831L1314.3 300.412M1285.72 296.831L1274.68 300.412M1285.72 296.831L1245.31 296.831M1291.97 307.171L1253.84 307.171M1291.97 307.171L1281.42 310.363M1291.97 307.171L1330.1 307.171M1291.97 307.171L1302.92 303.857M1253.84 307.171L1243.99 310.363M1253.84 307.171L1264.06 303.857M1253.84 307.171L1215.71 307.171M1281.42 310.363L1243.99 310.363M1281.42 310.363L1318.85 310.363M1281.42 310.363L1271.26 313.44M1243.99 310.363L1234.51 313.44M1243.99 310.363L1206.57 310.363M1251.99 319.271L1216.53 319.271M1251.99 319.271L1242.86 322.037M1251.99 319.271L1287.46 319.271M1251.99 319.271L1261.45 316.408M1216.53 319.271L1208 322.037M1216.53 319.271L1225.36 316.408M1216.53 319.271L1181.06 319.271M1242.86 322.037L1208 322.037M1242.86 322.037L1234.03 324.708M1242.86 322.037L1277.71 322.037M1208 322.037L1173.14 322.037M1208 322.037L1199.76 324.708M1414.39 165.026L1391.42 175.454M1414.39 165.026L1438.99 153.858M1414.39 165.026L1344.95 165.026M1414.39 165.026L1439.61 165.026M1391.42 175.454L1369.92 185.215M1391.42 175.454L1324.28 175.454M1391.42 175.454L1439.61 175.454M1391.89 202.975L1330.81 202.975M1391.89 202.975L1372.26 211.076M1391.89 202.975L1412.73 194.37M1391.89 202.975L1439.61 202.975M1330.81 202.975L1312.96 211.076M1330.81 202.975L1349.76 194.37M1330.81 202.975L1269.73 202.975M1372.26 211.076L1312.96 211.076M1372.26 211.076L1431.56 211.076M1372.26 211.076L1353.75 218.718M1312.96 211.076L1296.13 218.718M1312.96 211.076L1253.67 211.076M1319.7 232.77L1265.18 232.77M1319.7 232.77L1304.01 239.244M1319.7 232.77L1374.22 232.77M1319.7 232.77L1336.25 225.938M1265.18 232.77L1250.92 239.244M1265.18 232.77L1280.23 225.938M1265.18 232.77L1210.66 232.77M1304.01 239.244L1250.92 239.244M1304.01 239.244L1357.11 239.244M1304.01 239.244L1289.13 245.389M1250.92 239.244L1237.39 245.389M1250.92 239.244L1197.83 239.244M1261.52 256.784L1212.29 256.784M1261.52 256.784L1248.7 262.076M1261.52 256.784L1310.75 256.784M1261.52 256.784L1274.98 251.228M1212.29 256.784L1200.64 262.076M1212.29 256.784L1224.53 251.228M1212.29 256.784L1163.06 256.784M1248.7 262.076L1200.64 262.076M1248.7 262.076L1296.76 262.076M1248.7 262.076L1236.47 267.124M1200.64 262.076L1189.52 267.124M1200.64 262.076L1152.57 262.076M1213.63 276.55L1168.76 276.55M1213.63 276.55L1202.95 280.957M1213.63 276.55L1258.51 276.55M1213.63 276.55L1224.79 271.944M1168.76 276.55L1159.05 280.957M1168.76 276.55L1178.9 271.944M1168.76 276.55L1123.88 276.55M1202.95 280.957L1159.05 280.957M1202.95 280.957L1246.86 280.957M1202.95 280.957L1192.73 285.178M1159.05 280.957L1149.75 285.178M1159.05 280.957L1115.14 280.957M1173.52 293.105L1132.3 293.105M1173.52 293.105L1164.5 296.831M1173.52 293.105L1214.75 293.105M1173.52 293.105L1182.93 289.223M1132.3 293.105L1131.25 293.578L1124.09 296.831M1132.3 293.105L1140.84 289.223M1132.3 293.105L1091.07 293.105M1164.5 296.831L1124.09 296.831M1164.5 296.831L1204.9 296.831M1164.5 296.831L1155.82 300.412M1124.09 296.831L1116.2 300.412M1124.09 296.831L1083.68 296.831M1139.44 307.171L1101.31 307.171M1139.44 307.171L1131.71 310.363M1139.44 307.171L1177.58 307.171M1139.44 307.171L1147.48 303.857M1101.31 307.171L1094.28 310.363M1101.31 307.171L1104.02 305.943L1108.61 303.857M1101.31 307.171L1063.18 307.171M1131.71 310.363L1094.28 310.363M1131.71 310.363L1169.14 310.363M1131.71 310.363L1124.26 313.44M1094.28 310.363L1087.51 313.44M1094.28 310.363L1056.85 310.363M1110.13 319.271L1074.66 319.271M1110.13 319.271L1103.43 322.037M1110.13 319.271L1145.59 319.271M1110.13 319.271L1117.07 316.408M1074.66 319.271L1070.07 321.354L1069.32 321.696L1068.57 322.037M1074.66 319.271L1080.97 316.408M1074.66 319.271L1039.2 319.271M1103.43 322.037L1068.57 322.037M1103.43 322.037L1096.96 324.708M1103.43 322.037L1138.29 322.037M1068.57 322.037L1033.71 322.037M1068.57 322.037L1062.69 324.708M1389.23 46.2278L1293.63 46.2278M1389.23 46.2278L1359.13 65.7533M1389.23 46.2278L1422.31 24.7718M1389.23 46.2278L1439.61 46.2274M1293.63 46.2278L1267.82 65.7533M1293.63 46.2278L1321.98 24.7718M1293.63 46.2278L1198.02 46.2278M1359.13 65.7533L1267.82 65.7533M1359.13 65.7533L1331.62 83.5978M1359.13 65.7533L1439.61 65.7533M1267.82 65.7533L1244.24 83.5978M1267.82 65.7533L1176.52 65.7533M1283.13 115.043L1202.69 115.043M1283.13 115.043L1261.67 128.968M1283.13 115.043L1363.58 115.043M1283.13 115.043L1306.37 99.9695M1202.69 115.043L1184.28 128.968M1202.69 115.043L1222.61 99.9695M1202.69 115.043L1122.24 115.043M1261.67 128.968L1184.28 128.968M1261.67 128.968L1339.05 128.968M1261.67 128.968L1241.77 141.87M1184.28 128.968L1167.23 141.87M1184.28 128.968L1106.9 128.968M1206.07 165.026L1136.63 165.026M1206.07 165.026L1189.99 175.454M1206.07 165.026L1275.51 165.026M1206.07 165.026L1223.29 153.858M1136.63 165.026L1122.85 175.454M1136.63 165.026L1151.39 153.858M1136.63 165.026L1067.2 165.026M1189.99 175.454L1122.85 175.454M1189.99 175.454L1257.14 175.454M1189.99 175.454L1174.95 185.215M1122.85 175.454L1109.95 185.215M1122.85 175.454L1055.71 175.454M1147.57 202.975L1086.48 202.975M1147.57 202.975L1135.07 211.076M1147.57 202.975L1208.65 202.975M1147.57 202.975L1160.83 194.37M1086.48 202.975L1075.78 211.076M1086.48 202.975L1097.86 194.37M1086.48 202.975L1025.4 202.975M1135.07 211.076L1075.78 211.076M1135.07 211.076L1194.37 211.076M1135.07 211.076L1123.29 218.718M1075.78 211.076L1065.68 218.718M1075.78 211.076L1016.48 211.076M1101.63 232.77L1047.11 232.77M1101.63 232.77L1091.65 239.244M1101.63 232.77L1156.15 232.77M1101.63 232.77L1112.16 225.938M1047.11 232.77L1038.55 239.244M1047.11 232.77L1056.14 225.938M1047.11 232.77L992.591 232.77M1091.65 239.244L1038.55 239.244M1091.65 239.244L1144.74 239.244M1091.65 239.244L1082.17 245.389M1038.55 239.244L1030.43 245.389M1038.55 239.244L985.461 239.244M1064.6 256.784L1015.38 256.784M1064.6 256.784L1056.44 262.076M1064.6 256.784L1113.83 256.784M1064.6 256.784L1073.17 251.228M1015.38 256.784L1008.38 262.076M1015.38 256.784L1022.72 251.228M1015.38 256.784L966.146 256.784M1056.44 262.076L1008.38 262.076M1056.44 262.076L1104.51 262.076M1056.44 262.076L1048.66 267.124M1008.38 262.076L1001.71 267.124M1008.38 262.076L960.318 262.076M1034.13 276.55L989.253 276.55M1034.13 276.55L1027.33 280.957M1034.13 276.55L1079 276.55M1034.13 276.55L1041.23 271.944M989.253 276.55L983.43 280.957M989.253 276.55L995.341 271.944M989.253 276.55L944.378 276.55M1027.33 280.957L983.43 280.957M1027.33 280.957L1071.24 280.957M1027.33 280.957L1020.83 285.178M983.43 280.957L977.852 285.178M983.43 280.957L939.524 280.957M1008.61 293.105L967.376 293.105M1008.61 293.105L1002.86 296.831M1008.61 293.105L1049.84 293.105M1008.61 293.105L1014.59 289.223M967.376 293.105L968.007 292.628L972.506 289.223M967.376 293.105L962.452 296.831M967.376 293.105L926.147 293.105M1002.86 296.831L962.452 296.831M1002.86 296.831L1043.27 296.831M1002.86 296.831L997.339 300.412M962.452 296.831L957.719 300.412M962.452 296.831L922.043 296.831M986.919 307.171L948.788 307.171M986.919 307.171L981.997 310.363M986.919 307.171L1025.05 307.171M986.919 307.171L992.029 303.857M948.788 307.171L944.569 310.363M948.788 307.171L950.411 305.943L951.506 305.114L953.168 303.857M948.788 307.171L910.657 307.171M981.997 310.363L944.569 310.363M981.997 310.363L1019.43 310.363M981.997 310.363L977.254 313.44M944.569 310.363L943.027 311.53L942.01 312.3L940.503 313.44M944.569 310.363L907.141 310.363M968.263 319.271L932.798 319.271M968.263 319.271L965.052 321.354L964 322.037M968.263 319.271L1003.73 319.271M968.263 319.271L972.118 316.771L972.678 316.407M932.798 319.271L930.044 321.354L929.593 321.696L929.143 322.037M932.798 319.271L934.673 317.852L936.582 316.407M932.798 319.271L897.331 319.271M964 322.037L929.143 322.037M964 322.037L959.881 324.708M964 322.037L998.857 322.037M929.143 322.037L894.286 322.037M929.143 322.037L925.612 324.708M1006.81 46.2278L911.209 46.2278M1006.81 46.2278L993.912 65.7533M1006.81 46.2278L1102.42 46.2278M1006.81 46.2278L1020.99 24.7717M911.209 46.2278L902.608 65.7533M911.209 46.2278L920.66 24.7717M911.209 46.2278L815.604 46.2278M993.912 65.7533L902.608 65.7533M993.912 65.7533L1085.22 65.7533M993.912 65.7533L982.121 83.5977M902.608 65.7533L894.747 83.5977M902.608 65.7533L811.304 65.7532M961.343 115.043L880.896 115.043M961.343 115.043L952.142 128.968M961.343 115.043L1041.79 115.043M961.343 115.043L971.304 99.9694M880.896 115.043L874.762 128.968M880.896 115.043L887.535 99.9694M880.896 115.043L800.447 115.043M952.142 128.968L874.762 128.968M952.142 128.968L1029.52 128.968M952.142 128.968L943.617 141.87M874.762 128.968L869.078 141.87M874.762 128.968L797.381 128.968M928.317 165.026L858.878 165.026M928.317 165.026L921.426 175.454M928.317 165.026L997.756 165.026M928.317 165.026L935.696 153.858M858.878 165.026L854.284 175.454M858.878 165.026L863.797 153.858M858.878 165.026L789.439 165.026M921.426 175.454L854.284 175.454M921.426 175.454L988.568 175.454M921.426 175.454L914.977 185.215M854.284 175.454L849.984 185.215M854.284 175.454L787.142 175.454M903.242 202.975L842.162 202.975M903.242 202.975L897.889 211.076M903.242 202.975L964.323 202.975M903.242 202.975L908.927 194.37M842.162 202.975L838.593 211.076M842.162 202.975L845.952 194.37M842.162 202.975L781.081 202.975M897.889 211.076L838.593 211.076M897.889 211.076L957.185 211.076M897.889 211.076L892.84 218.718M838.593 211.076L835.226 218.718M838.593 211.076L779.296 211.076M883.555 232.77L829.036 232.77M883.555 232.77L879.277 239.244M883.555 232.77L938.073 232.77M883.555 232.77L888.069 225.938M829.036 232.77L826.185 239.244M829.036 232.77L832.046 225.938M829.036 232.77L774.518 232.77M879.277 239.244L826.185 239.244M879.277 239.244L932.369 239.244M879.277 239.244L875.217 245.389M826.185 239.244L823.478 245.389M826.185 239.244L773.092 239.244M867.688 256.784L818.459 256.784M867.688 256.784L864.191 262.076M867.688 256.784L916.917 256.784M867.688 256.784L871.358 251.228M818.459 256.784L816.127 262.076M818.459 256.784L820.906 251.228M818.459 256.784L769.229 256.784M864.191 262.076L816.127 262.076M864.191 262.076L912.254 262.076M864.191 262.076L862.921 263.997L860.855 267.124M816.127 262.076L813.903 267.124M816.127 262.076L768.063 262.076M854.627 276.55L809.751 276.55M854.627 276.55L851.715 280.957M854.627 276.55L899.503 276.55M854.627 276.55L856.896 273.115L857.671 271.944M809.751 276.55L809.013 278.226L807.81 280.957M809.751 276.55L811.781 271.944M809.751 276.55L764.875 276.55M851.715 280.957L851.36 281.495L848.926 285.178M851.715 280.957L807.81 280.957M851.715 280.957L895.62 280.957M807.81 280.957L807.103 282.561L806.871 283.09L806.638 283.616L805.951 285.178M807.81 280.957L763.905 280.957M843.689 293.104L802.459 293.104M843.689 293.104L842.445 294.987L842.138 295.451L841.833 295.914L841.528 296.373L841.226 296.831M843.689 293.104L884.918 293.104M843.689 293.104L846.253 289.223M802.459 293.104L801.222 295.914L801.019 296.373L800.818 296.831M802.459 293.104L804.168 289.223M802.459 293.104L761.229 293.104M841.226 296.831L800.818 296.831M841.226 296.831L881.635 296.831M841.226 296.831L839.736 299.086L839.443 299.53L838.86 300.412M800.818 296.831L799.824 299.086L799.628 299.53L799.434 299.973L799.24 300.412M800.818 296.831L760.408 296.831M834.394 307.171L796.262 307.171M834.394 307.171L832.284 310.363M834.394 307.171L872.526 307.171M834.394 307.171L834.934 306.354L835.753 305.114L836.584 303.857M796.262 307.171L796.442 306.764L797.537 304.278L797.723 303.857M796.262 307.171L794.856 310.363M796.262 307.171L758.131 307.171M832.284 310.363L794.856 310.363M832.284 310.363L869.712 310.363M832.284 310.363L830.251 313.44M794.856 310.363L794.342 311.53L794.173 311.916L794.003 312.3L793.501 313.44M794.856 310.363L757.428 310.363M826.398 319.271L790.933 319.271M826.398 319.271L825.022 321.354L824.572 322.037M826.398 319.271L861.865 319.271M826.398 319.271L827.101 318.209L827.336 317.852L827.574 317.493L828.291 316.407M790.933 319.271L790.778 319.622L790.471 320.32L790.166 321.011L789.715 322.037M790.933 319.271L791.558 317.852L791.715 317.493L792.034 316.771L792.194 316.407M790.933 319.271L755.466 319.271M824.572 322.037L789.715 322.037M824.572 322.037L823.024 324.379L822.806 324.708M824.572 322.037L859.429 322.037M789.715 322.037L789.565 322.376L789.416 322.713L789.268 323.049L789.121 323.384L788.682 324.379L788.537 324.708M789.715 322.037L754.857 322.037M624.396 46.2278L528.791 46.2278M624.396 46.2278L628.696 65.7532M624.396 46.2278L720 46.2278M624.396 46.2278L619.67 24.7717M528.791 46.2278L537.392 65.7532M528.791 46.2278L519.34 24.7717M528.791 46.2278L433.186 46.2277M628.696 65.7532L537.392 65.7532M628.696 65.7532L720 65.7532M628.696 65.7532L632.626 83.5977M537.392 65.7532L545.253 83.5977M537.392 65.7532L446.088 65.7532M639.553 115.043L559.104 115.043M639.553 115.043L642.619 128.968M639.553 115.043L720 115.043M639.553 115.043L636.232 99.9694M559.104 115.043L565.238 128.968M559.104 115.043L552.464 99.9694M559.104 115.043L478.657 115.043M642.619 128.968L565.238 128.968M642.619 128.968L720 128.968M642.619 128.968L645.461 141.87M565.238 128.968L570.922 141.87M565.238 128.968L487.858 128.968M650.561 165.026L581.122 165.026M650.561 165.026L652.858 175.454M650.561 165.026L720 165.026M650.561 165.026L648.101 153.858M581.122 165.026L585.716 175.454M581.122 165.026L576.203 153.858M581.122 165.026L511.683 165.026M652.858 175.454L585.716 175.454M652.858 175.454L720 175.454M652.858 175.454L655.008 185.215M585.716 175.454L590.015 185.215M585.716 175.454L518.574 175.454M658.919 202.975L597.838 202.975M658.919 202.975L660.704 211.076M658.919 202.975L720 202.975M658.919 202.975L657.024 194.37M597.838 202.975L601.407 211.076M597.838 202.975L594.048 194.37M597.838 202.975L536.758 202.975M660.704 211.076L601.407 211.076M660.704 211.076L720 211.076M660.704 211.076L662.387 218.718M601.407 211.076L604.774 218.718M601.407 211.076L542.111 211.076M665.482 232.77L610.964 232.77M665.482 232.77L666.908 239.244M665.482 232.77L720 232.77M665.482 232.77L663.977 225.938M610.964 232.77L613.815 239.244M610.964 232.77L607.954 225.938M610.964 232.77L556.445 232.77M666.908 239.244L613.815 239.244M666.908 239.244L720 239.244M666.908 239.244L668.261 245.389M613.815 239.244L616.522 245.389M613.815 239.244L560.723 239.244M670.771 256.784L621.541 256.784M670.771 256.784L671.937 262.076M670.771 256.784L720 256.784M670.771 256.784L669.547 251.228M621.541 256.784L623.873 262.076M621.541 256.784L619.094 251.228M621.541 256.784L572.312 256.784M671.937 262.076L623.873 262.076M671.937 262.076L720 262.076M671.937 262.076L673.048 267.124M623.873 262.076L626.097 267.124M623.873 262.076L575.809 262.076M675.125 276.55L630.249 276.55M675.125 276.55L676.095 280.957M675.125 276.55L720 276.55M675.125 276.55L674.11 271.944M630.249 276.55L631.952 280.417L632.19 280.957M630.249 276.55L628.219 271.944M630.249 276.55L585.373 276.55M676.095 280.957L676.213 281.495L677.025 285.178M676.095 280.957L632.19 280.957M676.095 280.957L720 280.957M632.19 280.957L632.897 282.561L633.129 283.09L633.362 283.616L634.049 285.178M632.19 280.957L588.285 280.957M678.771 293.104L637.541 293.104M678.771 293.104L679.591 296.831M678.771 293.104L720 293.104M678.771 293.104L678.454 291.668L678.347 291.184L678.241 290.698L678.025 289.717L677.915 289.223M637.541 293.104L638.778 295.914L639.183 296.831M637.541 293.104L635.832 289.223M637.541 293.104L596.311 293.104M679.591 296.831L639.183 296.831M679.591 296.831L720 296.831M679.591 296.831L680.38 300.412M639.183 296.831L640.175 299.086L640.372 299.53L640.566 299.973L640.76 300.412M639.183 296.831L598.774 296.831M681.869 307.171L643.738 307.171M681.869 307.171L682.572 310.363M681.869 307.171L720 307.171M681.869 307.171L681.139 303.857M643.738 307.171L643.558 306.764L642.463 304.278L642.277 303.857M643.738 307.171L645.144 310.363M643.738 307.171L605.606 307.171M682.572 310.363L645.144 310.363M682.572 310.363L720 310.363M682.572 310.363L683.249 313.44M645.144 310.363L645.658 311.53L645.827 311.916L645.997 312.3L646.499 313.44M645.144 310.363L607.716 310.363M684.533 319.271L649.067 319.271M684.533 319.271L685.143 322.037M684.533 319.271L720 319.271M684.533 319.271L683.903 316.407M649.067 319.271L649.222 319.622L649.53 320.32L649.682 320.666L649.985 321.354L650.135 321.696L650.286 322.037M649.067 319.271L648.442 317.852L648.285 317.493L647.966 316.771L647.806 316.407M649.067 319.271L613.601 319.271M685.143 322.037L685.217 322.376L685.292 322.713L685.366 323.049L685.731 324.708M685.143 322.037L650.286 322.037M685.143 322.037L720 322.037M650.286 322.037L615.428 322.037M650.286 322.037L650.584 322.713L650.732 323.049L650.879 323.384L651.317 324.379L651.463 324.708M241.977 46.2277L146.373 46.2277M241.977 46.2277L263.48 65.7532M241.977 46.2277L337.581 46.2277M241.977 46.2277L218.348 24.7717M146.373 46.2277L172.176 65.7532M146.373 46.2277L118.019 24.7717M146.373 46.2277L50.7678 46.2277M263.48 65.7532L172.176 65.7532M263.48 65.7532L354.784 65.7532M263.48 65.7532L283.131 83.5977M172.176 65.7532L195.758 83.5977M172.176 65.7532L80.8717 65.7532M317.761 115.043L237.313 115.043M317.761 115.043L333.096 128.968M317.761 115.043L398.209 115.043M317.761 115.043L301.161 99.9694M237.313 115.043L255.715 128.968M237.313 115.043L217.393 99.9694M237.313 115.043L156.866 115.043M333.096 128.968L255.715 128.968M333.096 128.968L410.477 128.968M333.096 128.968L347.304 141.87M255.715 128.968L272.765 141.87M255.715 128.968L178.334 128.968M372.804 165.026L303.365 165.025M372.804 165.026L384.29 175.454M372.804 165.026L442.244 165.026M372.804 165.026L360.506 153.858M303.365 165.025L317.147 175.454M303.365 165.025L288.607 153.858M303.365 165.025L233.926 165.025M384.29 175.454L317.147 175.454M384.29 175.454L451.432 175.454M384.29 175.454L395.039 185.215M317.147 175.454L330.046 185.215M317.147 175.454L250.005 175.454M414.596 202.975L353.516 202.975M414.596 202.975L423.518 211.076M414.596 202.975L475.677 202.975M414.596 202.975L405.121 194.37M353.516 202.975L364.222 211.076M353.516 202.975L342.145 194.37M353.516 202.975L292.435 202.975M423.518 211.076L364.222 211.076M423.518 211.076L482.815 211.076M423.518 211.076L431.934 218.718M364.222 211.076L374.321 218.718M364.222 211.076L304.926 211.076M447.409 232.77L392.89 232.77M447.409 232.77L454.539 239.244M447.409 232.77L501.927 232.77M447.409 232.77L439.885 225.938M392.89 232.77L401.446 239.244M392.89 232.77L383.861 225.938M392.89 232.77L338.371 232.77M454.539 239.244L401.446 239.244M454.539 239.244L507.631 239.244M454.539 239.244L461.305 245.389M401.446 239.244L409.566 245.389M401.446 239.244L348.354 239.244M473.854 256.784L424.625 256.784M473.854 256.784L479.682 262.076M473.854 256.784L523.083 256.784M473.854 256.784L467.735 251.228M424.625 256.784L431.619 262.076M424.625 256.784L417.282 251.228M424.625 256.784L375.396 256.784M479.682 262.076L431.619 262.076M479.682 262.076L527.746 262.076M479.682 262.076L485.241 267.124M431.619 262.076L438.29 267.124M431.619 262.076L383.556 262.076M495.622 276.55L495 275.985L494.375 275.418L490.549 271.944M495.622 276.55L450.746 276.55M495.622 276.55L500.475 280.957M495.622 276.55L540.497 276.55M450.746 276.55L456.57 280.957M450.746 276.55L444.659 271.944M450.746 276.55L405.87 276.55M500.475 280.957L456.57 280.957M500.475 280.957L544.38 280.957M500.475 280.957L505.123 285.178M456.57 280.957L462.148 285.178M456.57 280.957L412.665 280.957M513.853 293.104L472.623 293.104M513.853 293.104L517.957 296.831M513.853 293.104L555.082 293.104M513.853 293.104L509.579 289.223M472.623 293.104L475.725 295.451L477.548 296.831M472.623 293.104L467.494 289.223M472.623 293.104L431.393 293.104M517.957 296.831L477.548 296.831M517.957 296.831L558.365 296.831M517.957 296.831L521.415 299.973L521.9 300.412M477.548 296.831L482.28 300.412M477.548 296.831L437.139 296.831M529.343 307.171L491.212 307.171M529.343 307.171L530.234 307.981L532.859 310.363M529.343 307.171L567.474 307.171M529.343 307.171L528.444 306.354L526.618 304.697L525.693 303.857M491.212 307.171L495.431 310.363M491.212 307.171L489.589 305.943L488.494 305.114L486.832 303.857M491.212 307.171L453.081 307.171M532.859 310.363L495.431 310.363M532.859 310.363L570.288 310.363M532.859 310.363L535.412 312.682L536.248 313.44M495.431 310.363L496.973 311.53L497.99 312.3L499.497 313.44M495.431 310.363L458.003 310.363M542.669 319.271L507.202 319.271M542.669 319.271L544.585 321.011L545.714 322.037M542.669 319.271L578.135 319.271M542.669 319.271L539.515 316.407M507.202 319.271L509.956 321.354L510.407 321.696L510.857 322.037M507.202 319.271L505.327 317.852L503.418 316.407M507.202 319.271L471.737 319.271M545.714 322.037L510.857 322.037M545.714 322.037L547.198 323.384L547.93 324.049L548.294 324.379L548.656 324.708M545.714 322.037L580.571 322.037M510.857 322.037L476 322.037M510.857 322.037L514.388 324.708M23.5726 128.968L100.953 128.968M23.5726 128.968L49.1472 141.87M23.5726 128.968L0.387495 128.968M23.5726 128.968L0.387496 117.272M95.048 165.025L25.6091 165.025M95.048 165.025L115.72 175.454M95.048 165.025L164.487 165.025M95.048 165.025L72.9109 153.858M25.6091 165.025L48.5782 175.454M25.6091 165.025L1.01191 153.858M25.6091 165.025L0.387491 165.025M115.72 175.454L48.5782 175.454M115.72 175.454L182.863 175.454M115.72 175.454L135.07 185.215M48.5782 175.454L70.0774 185.215M48.5782 175.454L0.38749 175.454M170.274 202.975L109.193 202.975M170.274 202.975L186.333 211.076M170.274 202.975L231.355 202.975M170.274 202.975L153.217 194.37M109.193 202.975L127.036 211.076M109.193 202.975L90.2416 194.37M109.193 202.975L48.112 202.975M186.333 211.076L127.036 211.076M186.333 211.076L245.629 211.076M186.333 211.076L201.481 218.718M127.036 211.076L143.868 218.718M127.036 211.076L67.7403 211.076M229.335 232.77L174.817 232.77M229.335 232.77L242.169 239.244M229.335 232.77L283.853 232.77M229.335 232.77L215.792 225.938M174.817 232.77L189.077 239.244M174.817 232.77L159.769 225.938M174.817 232.77L120.298 232.77M242.169 239.244L189.077 239.244M242.169 239.244L295.261 239.244M242.169 239.244L254.349 245.389M189.077 239.244L202.611 245.389M189.077 239.244L135.985 239.244M276.937 256.784L227.708 256.784M276.937 256.784L287.428 262.076M276.937 256.784L326.166 256.784M276.937 256.784L265.924 251.228M227.708 256.784L239.365 262.076M227.708 256.784L215.471 251.228M227.708 256.784L178.479 256.784M287.428 262.076L239.365 262.076M287.428 262.076L335.492 262.076M287.428 262.076L297.435 267.124M239.365 262.076L250.483 267.124M239.365 262.076L191.301 262.076M316.119 276.55L271.244 276.55M316.119 276.55L324.856 280.957M316.119 276.55L360.995 276.55M316.119 276.55L306.988 271.944M271.244 276.55L280.951 280.957M271.244 276.55L261.098 271.944M271.244 276.55L226.368 276.55M324.856 280.957L280.951 280.957M324.856 280.957L368.76 280.957M324.856 280.957L333.222 285.178M280.951 280.957L290.247 285.178M280.951 280.957L237.046 280.957M348.935 293.104L307.706 293.104M348.935 293.104L356.322 296.831M348.935 293.104L390.164 293.104M348.935 293.104L341.241 289.223M307.706 293.104L315.913 296.831M307.706 293.104L299.156 289.223M307.706 293.104L266.475 293.104M356.322 296.831L315.913 296.831M356.322 296.831L396.731 296.831M356.322 296.831L363.421 300.412M315.913 296.831L323.801 300.412M315.913 296.831L275.504 296.831M376.818 307.171L338.687 307.171M376.818 307.171L383.146 310.363M376.818 307.171L414.949 307.171M376.818 307.171L375.198 306.354L374.384 305.943L370.247 303.856M338.687 307.171L345.718 310.363M338.687 307.171L331.386 303.856M338.687 307.171L300.556 307.171M383.146 310.363L345.718 310.363M383.146 310.363L420.574 310.363M383.146 310.363L389.245 313.44M345.718 310.363L352.495 313.44M345.718 310.363L308.29 310.363M400.804 319.271L365.338 319.271M400.804 319.271L406.286 322.037M400.804 319.271L436.27 319.271M400.804 319.271L395.127 316.407M365.338 319.271L369.926 321.354L370.678 321.696L371.429 322.037M365.338 319.271L359.03 316.407M365.338 319.271L329.872 319.271M406.286 322.037L371.429 322.037M406.286 322.037L410.929 324.379L411.582 324.708M406.286 322.037L441.143 322.037M371.429 322.037L336.571 322.037M371.429 322.037L377.313 324.708M11.2618 232.77L29.8002 239.244M11.2618 232.77L65.7801 232.77M11.2618 232.77L0.387486 228.972M11.2618 232.77L0.387485 232.77M29.8002 239.244L82.8926 239.244M29.8002 239.244L47.3932 245.389M29.8002 239.244L0.387485 239.244M80.0201 256.784L30.7903 256.784M80.0201 256.784L95.1747 262.076M80.0201 256.784L129.249 256.784M80.0201 256.784L64.1121 251.228M30.7903 256.784L47.1106 262.076M30.7903 256.784L13.6591 251.228M30.7903 256.784L0.387483 256.784M95.1747 262.076L47.1106 262.076M95.1747 262.076L143.238 262.076M95.1747 262.076L109.628 267.124M47.1106 262.076L62.6759 267.124M47.1106 262.076L0.387483 262.076M136.617 276.55L91.7408 276.55M136.617 276.55L149.236 280.957M136.617 276.55L181.492 276.55M136.617 276.55L123.427 271.944M91.7408 276.55L105.331 280.957M91.7408 276.55L77.5374 271.944M91.7408 276.55L46.8655 276.55M149.236 280.957L105.331 280.957M149.236 280.957L193.141 280.957M149.236 280.957L161.321 285.178M105.331 280.957L118.345 285.178M105.331 280.957L61.4256 280.957M184.017 293.104L142.788 293.104M184.017 293.104L194.687 296.831M184.017 293.104L225.246 293.104M184.017 293.104L172.904 289.223M142.788 293.104L154.278 296.831M142.788 293.104L130.82 289.223M142.788 293.104L101.557 293.104M194.687 296.831L154.278 296.831M194.687 296.831L235.096 296.831M194.687 296.831L204.941 300.412M154.278 296.831L165.321 300.412M154.278 296.831L113.87 296.831M224.293 307.171L186.161 307.171M224.293 307.171L233.433 310.363M224.293 307.171L262.424 307.171M224.293 307.171L214.802 303.856M186.161 307.171L196.005 310.363M186.161 307.171L175.941 303.856M186.161 307.171L148.03 307.171M233.433 310.363L196.005 310.363M233.433 310.363L270.862 310.363M233.433 310.363L242.243 313.44M196.005 310.363L205.493 313.44M196.005 310.363L158.577 310.363M258.939 319.271L223.473 319.271M258.939 319.271L266.857 322.037M258.939 319.271L294.405 319.271M258.939 319.271L250.74 316.407M223.473 319.271L232 322.037M223.473 319.271L214.642 316.407M223.473 319.271L188.006 319.271M266.857 322.037L232 322.037M266.857 322.037L274.507 324.708M266.857 322.037L301.714 322.037M232 322.037L197.142 322.037M232 322.037L240.239 324.708M19.0989 293.104L33.0527 296.831M19.0989 293.104L60.3282 293.104M19.0989 293.104L4.56644 289.223M19.0989 293.104L0.38748 293.104M33.0527 296.831L73.4611 296.831M33.0527 296.831L46.4614 300.412M33.0527 296.831L0.38748 296.831M71.7678 307.171L33.6365 307.171M71.7678 307.171L83.7209 310.363M71.7678 307.171L109.899 307.171M71.7678 307.171L59.3567 303.856M33.6365 307.171L46.2928 310.363M33.6365 307.171L20.4954 303.856M33.6365 307.171L0.387479 307.171M83.7209 310.363L46.2928 310.363M83.7209 310.363L121.149 310.363M83.7209 310.363L95.2414 313.44M46.2928 310.363L58.4909 313.44M46.2928 310.363L8.86463 310.363M117.074 319.271L81.6078 319.271M117.074 319.271L127.428 322.037M117.074 319.271L152.541 319.271M117.074 319.271L106.352 316.407M81.6078 319.271L92.5714 322.037M81.6078 319.271L70.2551 316.407M81.6078 319.271L46.1413 319.271M127.428 322.037L92.5714 322.037M127.428 322.037L137.432 324.708M127.428 322.037L162.285 322.037M92.5714 322.037L57.7136 322.037M92.5714 322.037L103.164 324.708M70.2551 316.407L58.4909 313.44M70.2551 316.407L34.1576 316.407M70.2551 316.407L106.352 316.407M46.1413 319.271L57.7136 322.037M46.1413 319.271L34.1576 316.407M46.1413 319.271L10.6757 319.271M57.7136 322.037L22.8566 322.037M57.7136 322.037L68.8953 324.708M103.164 324.708L137.432 324.708M103.164 324.708L68.8953 324.708M103.164 324.708L113.405 327.292M34.1576 316.407L21.7397 313.44M34.1576 316.407L0.387478 316.407M10.6757 319.271L22.8566 322.037M10.6757 319.271L0.387478 316.936M10.6757 319.271L0.387478 319.271M22.8566 322.037L34.6268 324.708M22.8566 322.037L0.387478 322.037M68.8953 324.708L34.6268 324.708M68.8953 324.708L79.7052 327.292M34.6268 324.708L46.0057 327.292M34.6268 324.708L0.387477 324.708M58.4909 313.44L21.7397 313.44M58.4909 313.44L95.2414 313.44M8.86463 310.363L21.7397 313.44M8.86463 310.363L0.387479 308.338M8.86463 310.363L0.387479 310.363M21.7397 313.44L0.387478 313.44M95.2414 313.44L131.992 313.44M95.2414 313.44L106.352 316.407M106.352 316.407L142.449 316.407M20.4954 303.856L6.84149 300.412M20.4954 303.856L59.3567 303.856M20.4954 303.856L0.387479 303.856M0.27127 307.171L0.387479 307.171M6.84149 300.412L46.4614 300.412M6.84149 300.412L0.38748 298.784M6.84149 300.412L0.38748 300.412M46.4614 300.412L86.0813 300.412M46.4614 300.412L59.3567 303.856M59.3567 303.856L98.218 303.856M214.642 316.407L205.493 313.44M214.642 316.407L178.546 316.407M214.642 316.407L250.74 316.407M188.006 319.271L197.142 322.037M188.006 319.271L178.546 316.407M188.006 319.271L152.541 319.271M197.142 322.037L162.285 322.037M197.142 322.037L205.97 324.708M240.239 324.708L205.97 324.708M240.239 324.708L248.204 327.292M240.239 324.708L274.507 324.708M178.546 316.407L168.742 313.44M178.546 316.407L142.449 316.407M152.541 319.271L162.285 322.037M152.541 319.271L142.449 316.407M162.285 322.037L171.701 324.708M205.97 324.708L171.701 324.708M205.97 324.708L214.504 327.292M142.449 316.407L131.992 313.44M137.432 324.708L171.701 324.708M137.432 324.708L147.105 327.292M171.701 324.708L180.805 327.292M205.493 313.44L168.742 313.44M205.493 313.44L242.243 313.44M158.577 310.363L168.742 313.44M158.577 310.363L148.03 307.171M158.577 310.363L121.149 310.363M168.742 313.44L131.992 313.44M242.243 313.44L278.994 313.44M242.243 313.44L250.74 316.407M131.992 313.44L121.149 310.363M250.74 316.407L286.837 316.407M148.03 307.171L137.079 303.856M148.03 307.171L109.899 307.171M121.149 310.363L109.899 307.171M109.899 307.171L98.218 303.856M175.941 303.856L165.321 300.412M175.941 303.856L137.079 303.856M175.941 303.856L214.802 303.856M137.079 303.856L125.701 300.412M137.079 303.856L98.218 303.856M98.218 303.856L86.0813 300.412M165.321 300.412L125.701 300.412M165.321 300.412L204.941 300.412M113.87 296.831L125.701 300.412M113.87 296.831L101.557 293.104M113.87 296.831L73.4611 296.831M125.701 300.412L86.0813 300.412M204.941 300.412L244.561 300.412M204.941 300.412L214.802 303.856M86.0813 300.412L73.4611 296.831M214.802 303.856L253.663 303.856M101.557 293.104L88.7349 289.223M101.557 293.104L60.3282 293.104M73.4611 296.831L60.3282 293.104M60.3282 293.104L46.6511 289.223M130.82 289.223L118.345 285.178M130.82 289.223L88.7349 289.223M130.82 289.223L172.904 289.223M88.7349 289.223L75.3696 285.178M88.7349 289.223L46.6511 289.223M46.6511 289.223L32.3945 285.178M46.6511 289.223L4.56644 289.223M4.56644 289.223L0.38748 289.223M4.56644 289.223L0.387481 288.107M118.345 285.178L75.3696 285.178M118.345 285.178L161.321 285.178M61.4256 280.957L75.3696 285.178M61.4256 280.957L46.8655 276.55M61.4256 280.957L17.521 280.957M75.3696 285.178L32.3945 285.178M161.321 285.178L204.296 285.178M161.321 285.178L172.904 289.223M32.3945 285.178L17.521 280.957M32.3945 285.178L0.387481 285.178M172.904 289.223L214.988 289.223M46.8655 276.55L31.6472 271.944M46.8655 276.55L1.99007 276.55M17.521 280.957L1.99007 276.55M17.521 280.957L0.387481 280.957M0.162565 285.178L0.387481 285.178M1.99007 276.55L0.387482 276.095M1.99007 276.55L0.387482 276.55M77.5374 271.944L62.6759 267.124M77.5374 271.944L31.6472 271.944M77.5374 271.944L123.427 271.944M31.6472 271.944L15.7242 267.124M31.6472 271.944L0.387482 271.944M-3.55079e-05 275.985L0.387482 276.095M62.6759 267.124L15.7242 267.124M62.6759 267.124L109.628 267.124M15.7242 267.124L0.387482 267.124M15.7242 267.124L0.387483 262.482M109.628 267.124L156.579 267.124M109.628 267.124L123.427 271.944M123.427 271.944L169.317 271.944M13.6591 251.228L64.1121 251.228M13.6591 251.228L0.387484 246.924M13.6591 251.228L0.387484 251.228M0.0223845 256.784L0.387483 256.784M64.1121 251.228L114.565 251.228M64.1121 251.228L47.3932 245.389M0.241353 246.876L0.387484 246.924M359.03 316.407L352.495 313.44M359.03 316.407L322.934 316.407M359.03 316.407L395.127 316.407M329.872 319.271L336.571 322.037M329.872 319.271L322.934 316.407M329.872 319.271L294.405 319.271M336.571 322.037L301.714 322.037M336.571 322.037L343.044 324.708M377.313 324.708L343.044 324.708M377.313 324.708L379.47 325.687L383.003 327.292M377.313 324.708L411.582 324.708M322.934 316.407L315.744 313.44M322.934 316.407L286.837 316.407M294.405 319.271L301.714 322.037M294.405 319.271L286.837 316.407M301.714 322.037L308.776 324.708M343.044 324.708L308.776 324.708M343.044 324.708L349.303 327.292M286.837 316.407L278.994 313.44M274.507 324.708L281.904 327.292M274.507 324.708L308.776 324.708M308.776 324.708L309.642 325.036L311.364 325.687L315.603 327.292M352.495 313.44L315.744 313.44M352.495 313.44L389.245 313.44M308.29 310.363L315.744 313.44M308.29 310.363L300.556 307.171M308.29 310.363L270.862 310.363M315.744 313.44L278.994 313.44M389.245 313.44L425.996 313.44M389.245 313.44L395.127 316.407M278.994 313.44L270.862 310.363M395.127 316.407L431.225 316.407M300.556 307.171L292.525 303.856M300.556 307.171L262.424 307.171M270.862 310.363L269.824 309.971L262.424 307.171M262.424 307.171L253.663 303.856M331.386 303.856L330.454 303.433L323.801 300.412M331.386 303.856L292.525 303.856M331.386 303.856L370.247 303.856M292.525 303.856L284.181 300.412M292.525 303.856L253.663 303.856M253.663 303.856L244.561 300.412M323.801 300.412L284.181 300.412M323.801 300.412L363.421 300.412M275.504 296.831L284.181 300.412M275.504 296.831L266.475 293.104M275.504 296.831L235.096 296.831M284.181 300.412L244.561 300.412M363.421 300.412L403.041 300.412M363.421 300.412L370.247 303.856M244.561 300.412L235.096 296.831M370.247 303.856L409.109 303.856M266.475 293.104L257.073 289.223M266.475 293.104L225.246 293.104M235.096 296.831L225.246 293.104M225.246 293.104L214.988 289.223M299.156 289.223L290.247 285.178M299.156 289.223L257.073 289.223M299.156 289.223L341.241 289.223M257.073 289.223L247.271 285.178M257.073 289.223L214.988 289.223M214.988 289.223L204.296 285.178M290.247 285.178L247.271 285.178M290.247 285.178L333.222 285.178M237.046 280.957L247.271 285.178M237.046 280.957L226.368 276.55M237.046 280.957L193.141 280.957M247.271 285.178L204.296 285.178M333.222 285.178L376.197 285.178M333.222 285.178L341.241 289.223M204.296 285.178L193.141 280.957M341.241 289.223L383.326 289.223M226.368 276.55L215.208 271.944M226.368 276.55L181.492 276.55M193.141 280.957L181.492 276.55M181.492 276.55L169.317 271.944M261.098 271.944L250.483 267.124M261.098 271.944L215.208 271.944M261.098 271.944L306.988 271.944M215.208 271.944L203.531 267.124M215.208 271.944L169.317 271.944M169.317 271.944L156.579 267.124M250.483 267.124L203.531 267.124M250.483 267.124L297.435 267.124M191.301 262.076L203.531 267.124M191.301 262.076L178.479 256.784M191.301 262.076L143.238 262.076M203.531 267.124L156.579 267.124M297.435 267.124L344.386 267.124M297.435 267.124L306.988 271.944M156.579 267.124L143.238 262.076M306.988 271.944L352.878 271.944M178.479 256.784L165.018 251.228M178.479 256.784L129.249 256.784M143.238 262.076L129.249 256.784M129.249 256.784L114.565 251.228M215.471 251.228L202.611 245.389M215.471 251.228L165.018 251.228M215.471 251.228L265.924 251.228M165.018 251.228L150.871 245.389M165.018 251.228L114.565 251.228M114.565 251.228L99.1325 245.389M202.611 245.389L150.871 245.389M202.611 245.389L254.349 245.389M135.985 239.244L150.871 245.389M135.985 239.244L120.298 232.77M135.985 239.244L82.8926 239.244M150.871 245.389L99.1325 245.389M254.349 245.389L306.089 245.389M254.349 245.389L265.924 251.228M99.1325 245.389L82.8926 239.244M99.1325 245.389L47.3932 245.389M265.924 251.228L316.377 251.228M120.298 232.77L103.746 225.938M120.298 232.77L65.7801 232.77M82.8926 239.244L65.7801 232.77M47.3932 245.389L0.387484 245.389M65.7801 232.77L47.723 225.938M159.769 225.938L143.868 218.718M159.769 225.938L103.746 225.938M159.769 225.938L215.792 225.938M103.746 225.938L86.2545 218.718M103.746 225.938L47.723 225.938M47.723 225.938L28.6413 218.718M47.723 225.938L0.387486 225.938M143.868 218.718L86.2545 218.718M143.868 218.718L201.481 218.718M67.7403 211.076L86.2545 218.718M67.7403 211.076L48.112 202.975M67.7403 211.076L8.44418 211.076M86.2545 218.718L28.6413 218.718M201.481 218.718L259.094 218.718M201.481 218.718L215.792 225.938M28.6413 218.718L8.44418 211.076M28.6413 218.718L0.387487 218.718M215.792 225.938L271.816 225.938M48.112 202.975L27.2658 194.37M48.112 202.975L0.387488 202.975M8.44418 211.076L0.387487 211.076M8.44418 211.076L0.387488 208.028M90.2416 194.37L70.0774 185.215M90.2416 194.37L27.2658 194.37M90.2416 194.37L153.217 194.37M27.2658 194.37L5.08519 185.215M27.2658 194.37L0.387489 194.37M70.0774 185.215L5.08519 185.215M70.0774 185.215L135.07 185.215M5.08519 185.215L0.38749 183.276M5.08519 185.215L0.38749 185.215M135.07 185.215L200.062 185.215M135.07 185.215L153.217 194.37M153.217 194.37L216.193 194.37M1.01191 153.858L72.9109 153.858M1.01191 153.858L0.387492 153.858M1.01191 153.858L0.387492 153.574M72.9109 153.858L144.809 153.858M72.9109 153.858L49.1472 141.87M503.418 316.407L501.964 315.307L501.475 314.937L499.497 313.44M503.418 316.407L467.321 316.407M503.418 316.407L539.515 316.407M471.737 319.271L474.948 321.354L476 322.037M471.737 319.271L467.881 316.771L467.321 316.407M471.737 319.271L436.27 319.271M476 322.037L441.143 322.037M476 322.037L480.119 324.708M514.388 324.708L480.119 324.708M514.388 324.708L515.682 325.687L517.802 327.292M514.388 324.708L548.656 324.708M467.321 316.407L466.193 315.676L462.746 313.44M467.321 316.407L431.225 316.407M436.27 319.271L441.143 322.037M436.27 319.271L431.225 316.407M441.143 322.037L444.689 324.049L445.851 324.708M480.119 324.708L445.851 324.708M480.119 324.708L484.102 327.292M431.225 316.407L425.996 313.44M411.582 324.708L412.231 325.036L416.703 327.292M411.582 324.708L445.851 324.708M445.851 324.708L447.576 325.687L450.402 327.292M499.497 313.44L462.746 313.44M499.497 313.44L536.248 313.44M458.003 310.363L462.746 313.44M458.003 310.363L453.081 307.171M458.003 310.363L420.574 310.363M462.746 313.44L425.996 313.44M536.248 313.44L572.998 313.44M536.248 313.44L539.515 316.407M425.996 313.44L420.574 310.363M539.515 316.407L575.612 316.407M453.081 307.171L449.91 305.114L449.266 304.697L447.971 303.857M453.081 307.171L414.949 307.171M420.574 310.363L414.949 307.171M414.949 307.171L409.109 303.856M486.832 303.857L482.28 300.412M486.832 303.857L447.971 303.857M486.832 303.857L525.693 303.857M447.971 303.857L442.661 300.412M447.971 303.857L409.109 303.856M409.109 303.856L403.041 300.412M482.28 300.412L442.661 300.412M482.28 300.412L521.9 300.412M437.139 296.831L440.616 299.086L441.3 299.53L442.661 300.412M437.139 296.831L431.393 293.104M437.139 296.831L396.731 296.831M442.661 300.412L403.041 300.412M521.9 300.412L561.52 300.412M521.9 300.412L525.693 303.857M403.041 300.412L396.731 296.831M525.693 303.857L564.555 303.857M431.393 293.104L425.409 289.223M431.393 293.104L390.164 293.104M396.731 296.831L390.164 293.104M390.164 293.104L383.326 289.223M467.494 289.223L464.849 287.222L464.179 286.715L462.148 285.178M467.494 289.223L425.409 289.223M467.494 289.223L509.579 289.223M425.409 289.223L419.173 285.178M425.409 289.223L383.326 289.223M383.326 289.223L376.197 285.178M462.148 285.178L419.173 285.178M462.148 285.178L505.123 285.178M412.665 280.957L419.173 285.178M412.665 280.957L405.87 276.55M412.665 280.957L368.76 280.957M419.173 285.178L376.197 285.178M505.123 285.178L548.099 285.178M505.123 285.178L506.255 286.205L509.579 289.223M376.197 285.178L368.76 280.957M509.579 289.223L551.662 289.223M405.87 276.55L398.769 271.944M405.87 276.55L360.995 276.55M368.76 280.957L360.995 276.55M360.995 276.55L352.878 271.944M444.659 271.944L438.29 267.124M444.659 271.944L398.769 271.944M444.659 271.944L490.549 271.944M398.769 271.944L391.338 267.124M398.769 271.944L352.878 271.944M352.878 271.944L344.386 267.124M438.29 267.124L391.338 267.124M438.29 267.124L485.241 267.124M383.556 262.076L391.338 267.124M383.556 262.076L375.396 256.784M383.556 262.076L335.492 262.076M391.338 267.124L344.386 267.124M485.241 267.124L532.193 267.124M485.241 267.124L490.549 271.944M344.386 267.124L335.492 262.076M490.549 271.944L536.439 271.944M375.396 256.784L366.83 251.228M375.396 256.784L326.166 256.784M335.492 262.076L326.166 256.784M326.166 256.784L316.377 251.228M417.282 251.228L409.566 245.389M417.282 251.228L366.83 251.228M417.282 251.228L467.735 251.228M366.83 251.228L357.827 245.389M366.83 251.228L316.377 251.228M316.377 251.228L306.089 245.389M409.566 245.389L357.827 245.389M409.566 245.389L461.305 245.389M348.354 239.244L357.827 245.389M348.354 239.244L338.371 232.77M348.354 239.244L295.261 239.244M357.827 245.389L306.089 245.389M461.305 245.389L513.044 245.389M461.305 245.389L467.735 251.228M306.089 245.389L295.261 239.244M467.735 251.228L518.188 251.228M338.371 232.77L327.838 225.938M338.371 232.77L283.853 232.77M295.261 239.244L283.853 232.77M283.853 232.77L271.816 225.938M383.861 225.938L374.321 218.718M383.861 225.938L327.838 225.938M383.861 225.938L439.885 225.938M327.838 225.938L316.707 218.718M327.838 225.938L271.816 225.938M271.816 225.938L259.094 218.718M374.321 218.718L316.707 218.718M374.321 218.718L431.934 218.718M304.926 211.076L316.707 218.718M304.926 211.076L292.435 202.975M304.926 211.076L245.629 211.076M316.707 218.718L259.094 218.718M431.934 218.718L489.547 218.718M431.934 218.718L439.885 225.938M259.094 218.718L245.629 211.076M439.885 225.938L495.907 225.938M292.435 202.975L279.169 194.37M292.435 202.975L231.355 202.975M245.629 211.076L231.355 202.975M231.355 202.975L216.193 194.37M342.145 194.37L330.046 185.215M342.145 194.37L279.169 194.37M342.145 194.37L405.121 194.37M279.169 194.37L265.054 185.215M279.169 194.37L216.193 194.37M216.193 194.37L200.062 185.215M330.046 185.215L265.054 185.215M330.046 185.215L395.039 185.215M250.005 175.454L265.054 185.215M250.005 175.454L233.926 165.025M250.005 175.454L182.863 175.454M265.054 185.215L200.062 185.215M395.039 185.215L460.031 185.215M395.039 185.215L405.121 194.37M200.062 185.215L182.863 175.454M405.121 194.37L468.097 194.37M233.926 165.025L216.708 153.858M233.926 165.025L164.487 165.025M182.863 175.454L164.487 165.025M164.487 165.025L144.809 153.858M288.607 153.858L272.765 141.87M288.607 153.858L216.708 153.858M288.607 153.858L360.506 153.858M216.708 153.858L198.226 141.87M216.708 153.858L144.809 153.858M144.809 153.858L123.686 141.87M272.765 141.87L198.226 141.87M272.765 141.87L347.304 141.87M178.334 128.968L198.226 141.87M178.334 128.968L156.866 115.043M178.334 128.968L100.953 128.968M198.226 141.87L123.686 141.87M347.304 141.87L421.844 141.87M347.304 141.87L360.506 153.858M123.686 141.87L100.953 128.968M123.686 141.87L49.1472 141.87M360.506 153.858L432.405 153.858M156.866 115.043L133.625 99.9694M156.866 115.043L76.4183 115.043M100.953 128.968L76.4183 115.043M49.1472 141.87L0.387493 141.87M76.4183 115.043L49.8571 99.9694M76.4183 115.043L0.387496 115.043M217.393 99.9694L195.758 83.5977M217.393 99.9694L133.625 99.9694M217.393 99.9694L301.161 99.9694M133.625 99.9694L108.384 83.5977M133.625 99.9694L49.8571 99.9694M49.8571 99.9694L21.0104 83.5977M49.8571 99.9694L0.387497 99.9694M195.758 83.5977L108.384 83.5977M195.758 83.5977L283.131 83.5977M80.8717 65.7532L108.384 83.5977M80.8717 65.7532L50.7678 46.2277M80.8717 65.7532L0.3875 65.7532M108.384 83.5977L21.0104 83.5977M283.131 83.5977L370.505 83.5977M283.131 83.5977L301.161 99.9694M21.0104 83.5977L0.387498 83.5977M21.0104 83.5977L0.387499 71.8934M301.161 99.9694L384.929 99.9694M50.7678 46.2277L17.6882 24.7716M50.7678 46.2277L0.387502 46.2277M118.019 24.7717L86.7155 1.08406M118.019 24.7717L17.6882 24.7716M118.019 24.7717L218.348 24.7717M17.6882 24.7716L0.387505 13.5499M17.6882 24.7716L0.387504 24.7716M86.7155 1.08406L192.263 1.08406M86.7155 1.08406L0.387506 1.08448M192.263 1.08406L297.81 1.08407M192.263 1.08406L218.348 24.7717M218.348 24.7717L318.679 24.7717M647.806 316.407L647.645 316.042L647.484 315.676L647.321 315.307L647.159 314.937L646.665 313.817L646.499 313.44M647.806 316.407L611.709 316.407M647.806 316.407L683.903 316.407M613.601 319.271L614.978 321.354L615.428 322.037M613.601 319.271L612.426 317.493L611.709 316.407M613.601 319.271L578.135 319.271M615.428 322.037L580.571 322.037M615.428 322.037L616.758 324.049L617.194 324.708M651.463 324.708L651.607 325.036L652.178 326.333L652.601 327.292M651.463 324.708L617.194 324.708M651.463 324.708L685.731 324.708M611.709 316.407L611.468 316.042L611.225 315.676L610.982 315.307L610.737 314.937L609.749 313.44M611.709 316.407L575.612 316.407M578.135 319.271L579.97 321.354L580.571 322.037M578.135 319.271L575.612 316.407M580.571 322.037L581.759 323.384L582.636 324.379L582.925 324.708M617.194 324.708L617.41 325.036L617.84 325.687L618.268 326.333L618.479 326.654L618.901 327.292M617.194 324.708L582.925 324.708M575.612 316.407L573.66 314.192L572.998 313.44M548.656 324.708L550.799 326.654L551.501 327.292M548.656 324.708L582.925 324.708M582.925 324.708L584.92 326.974L585.202 327.292M646.499 313.44L609.749 313.44M646.499 313.44L683.249 313.44M607.716 310.363L609.749 313.44M607.716 310.363L605.606 307.171M607.716 310.363L570.288 310.363M609.749 313.44L572.998 313.44M683.249 313.44L720 313.44M683.249 313.44L683.903 316.407M572.998 313.44L570.288 310.363M683.903 316.407L720 316.407M605.606 307.171L605.066 306.354L604.247 305.114L603.416 303.857M605.606 307.171L567.474 307.171M570.288 310.363L569.941 309.971L567.474 307.171M567.474 307.171L567.116 306.764L566.755 306.354L566.393 305.943L564.555 303.857M642.277 303.857L640.76 300.412M642.277 303.857L603.416 303.857M642.277 303.857L681.139 303.857M603.416 303.857L601.14 300.412M603.416 303.857L564.555 303.857M564.555 303.857L562.29 301.286L561.906 300.85L561.52 300.412M640.76 300.412L601.14 300.412M640.76 300.412L680.38 300.412M598.774 296.831L598.472 296.373L598.167 295.914L597.862 295.451L596.311 293.104M598.774 296.831L599.969 298.64L600.264 299.086L600.557 299.53L601.14 300.412M598.774 296.831L558.365 296.831M601.14 300.412L561.52 300.412M680.38 300.412L720 300.412M680.38 300.412L681.139 303.857M561.52 300.412L558.365 296.831M681.139 303.857L720 303.857M596.311 293.104L594.073 289.717L593.747 289.223M596.311 293.104L555.082 293.104M558.365 296.831L557.556 295.914L555.082 293.104M555.082 293.104L553.816 291.668L551.662 289.223M635.832 289.223L634.949 287.222L634.727 286.715L634.049 285.178M635.832 289.223L593.747 289.223M635.832 289.223L677.915 289.223M593.747 289.223L591.074 285.178M593.747 289.223L551.662 289.223M551.662 289.223L548.099 285.178M634.049 285.178L591.074 285.178M634.049 285.178L677.025 285.178M588.285 280.957L591.074 285.178M588.285 280.957L585.373 276.55M588.285 280.957L544.38 280.957M591.074 285.178L548.099 285.178M677.025 285.178L720 285.178M677.025 285.178L677.251 286.205L677.696 288.228L677.915 289.223M548.099 285.178L544.38 280.957M677.915 289.223L720 289.223M585.373 276.55L583.103 273.115L582.329 271.944M585.373 276.55L540.497 276.55M544.38 280.957L540.497 276.55M540.497 276.55L538.491 274.273L536.439 271.944M628.219 271.944L626.097 267.124M628.219 271.944L582.329 271.944M628.219 271.944L674.11 271.944M582.329 271.944L579.145 267.124M582.329 271.944L536.439 271.944M536.439 271.944L532.193 267.124M626.097 267.124L579.145 267.124M626.097 267.124L673.048 267.124M575.809 262.076L576.658 263.36L579.145 267.124M575.809 262.076L572.312 256.784M575.809 262.076L527.746 262.076M579.145 267.124L532.193 267.124M673.048 267.124L720 267.124M673.048 267.124L674.11 271.944M532.193 267.124L527.746 262.076M674.11 271.944L720 271.944M572.312 256.784L568.641 251.228M572.312 256.784L523.083 256.784M527.746 262.076L523.083 256.784M523.083 256.784L518.188 251.228M619.094 251.228L616.522 245.389M619.094 251.228L568.641 251.228M619.094 251.228L669.547 251.228M568.641 251.228L564.783 245.389M568.641 251.228L518.188 251.228M518.188 251.228L513.044 245.389M616.522 245.389L564.783 245.389M616.522 245.389L668.261 245.389M560.723 239.244L564.783 245.389M560.723 239.244L556.445 232.77M560.723 239.244L507.631 239.244M564.783 245.389L513.044 245.389M668.261 245.389L720 245.389M668.261 245.389L669.39 250.514L669.547 251.228M513.044 245.389L507.631 239.244M669.547 251.228L720 251.228M556.445 232.77L551.931 225.938M556.445 232.77L501.927 232.77M507.631 239.244L503.382 234.421L501.927 232.77M501.927 232.77L495.907 225.938M607.954 225.938L604.774 218.718M607.954 225.938L551.931 225.938M607.954 225.938L663.977 225.938M551.931 225.938L547.16 218.718M551.931 225.938L495.907 225.938M495.907 225.938L489.547 218.718M604.774 218.718L547.16 218.718M604.774 218.718L662.387 218.718M542.111 211.076L547.16 218.718M542.111 211.076L536.758 202.975M542.111 211.076L482.815 211.076M547.16 218.718L489.547 218.718M662.387 218.718L720 218.718M662.387 218.718L663.977 225.938M489.547 218.718L482.815 211.076M663.977 225.938L720 225.938M536.758 202.975L531.073 194.37M536.758 202.975L475.677 202.975M482.815 211.076L475.677 202.975M475.677 202.975L468.097 194.37M594.048 194.37L590.015 185.215M594.048 194.37L531.073 194.37M594.048 194.37L657.024 194.37M531.073 194.37L525.023 185.215M531.073 194.37L468.097 194.37M468.097 194.37L460.031 185.215M590.015 185.215L525.023 185.215M590.015 185.215L655.008 185.215M518.574 175.454L525.023 185.215M518.574 175.454L511.683 165.026M518.574 175.454L451.432 175.454M525.023 185.215L460.031 185.215M655.008 185.215L720 185.215M655.008 185.215L657.024 194.37M460.031 185.215L451.432 175.454M657.024 194.37L720 194.37M511.683 165.026L504.304 153.858M511.683 165.026L442.244 165.026M451.432 175.454L442.244 165.026M442.244 165.026L432.405 153.858M576.203 153.858L570.922 141.87M576.203 153.858L504.304 153.858M576.203 153.858L648.101 153.858M504.304 153.858L496.383 141.87M504.304 153.858L432.405 153.858M432.405 153.858L421.844 141.87M570.922 141.87L496.383 141.87M570.922 141.87L645.461 141.87M487.858 128.968L496.383 141.87M487.858 128.968L478.657 115.043M487.858 128.968L410.477 128.968M496.383 141.87L421.844 141.87M645.461 141.87L720 141.87M645.461 141.87L648.101 153.858M421.844 141.87L410.477 128.968M648.101 153.858L720 153.858M478.657 115.043L468.696 99.9694M478.657 115.043L398.209 115.043M410.477 128.968L398.209 115.043M398.209 115.043L384.929 99.9694M552.464 99.9694L545.253 83.5977M552.464 99.9694L468.696 99.9694M552.464 99.9694L636.232 99.9694M468.696 99.9694L457.879 83.5977M468.696 99.9694L384.929 99.9694M384.929 99.9694L370.505 83.5977M545.253 83.5977L457.879 83.5977M545.253 83.5977L632.626 83.5977M446.088 65.7532L457.879 83.5977M446.088 65.7532L433.186 46.2277M446.088 65.7532L354.784 65.7532M457.879 83.5977L370.505 83.5977M632.626 83.5977L720 83.5977M632.626 83.5977L636.232 99.9694M370.505 83.5977L354.784 65.7532M636.232 99.9694L720 99.9694M433.186 46.2277L419.009 24.7717M433.186 46.2277L337.581 46.2277M354.784 65.7532L337.581 46.2277M337.581 46.2277L318.679 24.7717M519.34 24.7717L508.905 1.08409M519.34 24.7717L419.009 24.7717M519.34 24.7717L619.67 24.7717M419.009 24.7717L403.358 1.08408M419.009 24.7717L318.679 24.7717M318.679 24.7717L297.81 1.08407M403.358 1.08408L508.905 1.08409M403.358 1.08408L297.81 1.08407M508.905 1.08409L614.452 1.0841M614.452 1.0841L720 1.08411M614.452 1.0841L619.67 24.7717M619.67 24.7717L720 24.7717M792.194 316.407L792.355 316.042L792.516 315.676L792.679 315.307L792.841 314.937L793.17 314.192L793.335 313.817L793.501 313.44M792.194 316.407L756.097 316.407M792.194 316.407L828.291 316.407M755.466 319.271L754.857 322.037M755.466 319.271L756.097 316.407M755.466 319.271L720 319.271M754.857 322.037L754.783 322.376L754.708 322.713L754.634 323.049L754.268 324.708M754.857 322.037L720 322.037M788.537 324.708L788.393 325.036L787.822 326.333L787.399 327.292M788.537 324.708L754.268 324.708M788.537 324.708L822.806 324.708M756.097 316.407L756.178 316.042L756.258 315.676L756.34 315.307L756.75 313.44M756.097 316.407L720 316.407M720 319.271L720 322.037M720 319.271L720 316.407M720 322.037L720 324.708M754.268 324.708L720 324.708M754.268 324.708L754.053 325.687L753.981 326.011L753.7 327.292M720 316.407L720 313.44M685.731 324.708L685.946 325.687L686.018 326.011L686.089 326.333L686.16 326.654L686.23 326.974L686.3 327.292M685.731 324.708L720 324.708M720 324.708L720 327.292M793.501 313.44L756.75 313.44M793.501 313.44L830.251 313.44M757.428 310.363L757.515 309.971L757.601 309.576L758.131 307.171M757.428 310.363L756.75 313.44M757.428 310.363L720 310.363M756.75 313.44L720 313.44M830.251 313.44L867.002 313.44M830.251 313.44L829.755 314.192L829.508 314.565L829.263 314.937L829.017 315.307L828.775 315.676L828.532 316.042L828.291 316.407M720 313.44L720 310.363M828.291 316.407L864.388 316.407M758.131 307.171L758.861 303.857M758.131 307.171L720 307.171M720 310.363L720 307.171M720 307.171L720 303.857M797.723 303.857L799.24 300.412M797.723 303.857L758.861 303.857M797.723 303.857L836.584 303.857M758.861 303.857L759.62 300.412M758.861 303.857L720 303.857M720 303.857L720 300.412M799.24 300.412L759.62 300.412M799.24 300.412L838.86 300.412M760.408 296.831L759.62 300.412M760.408 296.831L761.229 293.104M760.408 296.831L720 296.831M759.62 300.412L720 300.412M838.86 300.412L878.48 300.412M838.86 300.412L836.584 303.857M720 300.412L720 296.831M836.584 303.857L875.445 303.857M761.229 293.104L761.546 291.668L761.867 290.209L762.085 289.223M761.229 293.104L720 293.104M720 296.831L720 293.104M720 293.104L720 289.223M804.168 289.223L805.051 287.222L805.273 286.715L805.951 285.178M804.168 289.223L762.085 289.223M804.168 289.223L846.253 289.223M762.085 289.223L762.303 288.228L762.749 286.205L762.975 285.178M762.085 289.223L720 289.223M720 289.223L720 285.178M805.951 285.178L762.975 285.178M805.951 285.178L848.926 285.178M763.905 280.957L763.787 281.495L762.975 285.178M763.905 280.957L764.875 276.55M763.905 280.957L720 280.957M762.975 285.178L720 285.178M848.926 285.178L891.901 285.178M848.926 285.178L846.253 289.223M720 285.178L720 280.957M846.253 289.223L888.338 289.223M764.875 276.55L765.89 271.944M764.875 276.55L720 276.55M720 280.957L720 276.55M720 276.55L720 271.944M811.781 271.944L813.903 267.124M811.781 271.944L765.89 271.944M811.781 271.944L857.671 271.944M765.89 271.944L766.952 267.124M765.89 271.944L720 271.944M720 271.944L720 267.124M813.903 267.124L766.952 267.124M813.903 267.124L860.855 267.124M768.063 262.076L766.952 267.124M768.063 262.076L769.229 256.784M768.063 262.076L720 262.076M766.952 267.124L720 267.124M860.855 267.124L907.807 267.124M860.855 267.124L857.671 271.944M720 267.124L720 262.076M857.671 271.944L903.561 271.944M769.229 256.784L770.453 251.228M769.229 256.784L720 256.784M720 262.076L720 256.784M720 256.784L720 251.228M820.906 251.228L823.478 245.389M820.906 251.228L770.453 251.228M820.906 251.228L871.358 251.228M770.453 251.228L771.739 245.389M770.453 251.228L720 251.228M720 251.228L720 245.389M823.478 245.389L771.739 245.389M823.478 245.389L875.217 245.389M773.092 239.244L771.739 245.389M773.092 239.244L774.518 232.77M773.092 239.244L720 239.244M771.739 245.389L720 245.389M875.217 245.389L926.956 245.389M875.217 245.389L871.358 251.228M720 245.389L720 239.244M871.358 251.228L921.812 251.228M774.518 232.77L776.023 225.938M774.518 232.77L720 232.77M720 239.244L720 232.77M720 232.77L720 225.938M832.046 225.938L835.226 218.718M832.046 225.938L776.023 225.938M832.046 225.938L888.069 225.938M776.023 225.938L777.613 218.718M776.023 225.938L720 225.938M720 225.938L720 218.718M835.226 218.718L777.613 218.718M835.226 218.718L892.84 218.718M779.296 211.076L777.613 218.718M779.296 211.076L781.081 202.975M779.296 211.076L720 211.076M777.613 218.718L720 218.718M892.84 218.718L950.453 218.718M892.84 218.718L888.069 225.938M720 218.718L720 211.076M888.069 225.938L944.093 225.938M781.081 202.975L782.976 194.37M781.081 202.975L720 202.975M720 211.076L720 202.975M720 202.975L720 194.37M845.952 194.37L849.984 185.215M845.952 194.37L782.976 194.37M845.952 194.37L908.927 194.37M782.976 194.37L784.992 185.215M782.976 194.37L720 194.37M720 194.37L720 185.215M849.984 185.215L784.992 185.215M849.984 185.215L914.977 185.215M787.142 175.454L784.992 185.215M787.142 175.454L789.439 165.026M787.142 175.454L720 175.454M784.992 185.215L720 185.215M914.977 185.215L979.969 185.215M914.977 185.215L908.927 194.37M720 185.215L720 175.454M908.927 194.37L971.903 194.37M789.439 165.026L791.899 153.858M789.439 165.026L720 165.026M720 175.454L720 165.026M720 165.026L720 153.858M863.797 153.858L869.078 141.87M863.797 153.858L791.899 153.858M863.797 153.858L935.696 153.858M791.899 153.858L794.539 141.87M791.899 153.858L720 153.858M720 153.858L720 141.87M869.078 141.87L794.539 141.87M869.078 141.87L943.617 141.87M797.381 128.968L794.539 141.87M797.381 128.968L800.447 115.043M797.381 128.968L720 128.968M794.539 141.87L720 141.87M943.617 141.87L1018.16 141.87M943.617 141.87L935.696 153.858M720 141.87L720 128.968M935.696 153.858L1007.6 153.858M800.447 115.043L803.768 99.9694M800.447 115.043L720 115.043M720 128.968L720 115.043M720 115.043L720 99.9694M887.535 99.9694L894.747 83.5977M887.535 99.9694L803.768 99.9694M887.535 99.9694L971.304 99.9694M803.768 99.9694L807.374 83.5977M803.768 99.9694L720 99.9694M720 99.9694L720 83.5977M894.747 83.5977L807.374 83.5977M894.747 83.5977L982.121 83.5977M811.304 65.7532L807.374 83.5977M811.304 65.7532L815.604 46.2278M811.304 65.7532L720 65.7532M807.374 83.5977L720 83.5977M982.121 83.5977L1069.49 83.5978M982.121 83.5977L971.304 99.9694M720 83.5977L720 65.7532M971.304 99.9694L1055.07 99.9695M815.604 46.2278L820.33 24.7717M815.604 46.2278L720 46.2278M720 65.7532L720 46.2278M720 46.2278L720 24.7717M920.66 24.7717L931.095 1.08413M920.66 24.7717L820.33 24.7717M920.66 24.7717L1020.99 24.7717M820.33 24.7717L825.548 1.08412M820.33 24.7717L720 24.7717M720 24.7717L720 1.08411M825.548 1.08412L931.095 1.08413M825.548 1.08412L720 1.08411M931.095 1.08413L1036.64 1.08414M1036.64 1.08414L1142.19 1.08415M1036.64 1.08414L1020.99 24.7717M1020.99 24.7717L1121.32 24.7717M936.582 316.407L938.525 314.937L940.503 313.44M936.582 316.407L900.485 316.407M936.582 316.407L972.678 316.407M897.331 319.271L894.286 322.037M897.331 319.271L900.485 316.407M897.331 319.271L861.865 319.271M894.286 322.037L859.429 322.037M894.286 322.037L892.07 324.049L891.343 324.708M925.612 324.708L891.343 324.708M925.612 324.708L924.318 325.687L922.198 327.292M925.612 324.708L959.881 324.708M900.485 316.407L903.752 313.44M900.485 316.407L864.388 316.407M861.865 319.271L859.429 322.037M861.865 319.271L864.388 316.407M859.429 322.037L858.241 323.384L857.364 324.379L857.075 324.708M891.343 324.708L857.075 324.708M891.343 324.708L889.201 326.654L888.499 327.292M864.388 316.407L866.34 314.192L867.002 313.44M822.806 324.708L822.59 325.036L822.159 325.687L821.521 326.654L821.099 327.292M822.806 324.708L857.075 324.708M857.075 324.708L856.786 325.036L856.212 325.687L854.799 327.292M940.503 313.44L903.752 313.44M940.503 313.44L977.254 313.44M907.141 310.363L906.71 310.754L906.282 311.143L904.588 312.682L903.752 313.44M907.141 310.363L909.765 307.981L910.657 307.171M907.141 310.363L869.712 310.363M903.752 313.44L867.002 313.44M977.254 313.44L1014 313.44M977.254 313.44L973.807 315.676L972.678 316.407M867.002 313.44L869.712 310.363M972.678 316.407L1008.78 316.407M910.657 307.171L911.105 306.764L911.556 306.354L912.921 305.114L913.382 304.697L914.307 303.857M910.657 307.171L872.526 307.171M869.712 310.363L870.059 309.971L872.526 307.171M872.526 307.171L872.884 306.764L873.245 306.354L873.607 305.943L875.445 303.857M953.168 303.857L957.719 300.412M953.168 303.857L914.307 303.857M953.168 303.857L992.029 303.857M914.307 303.857L918.1 300.412M914.307 303.857L875.445 303.857M875.445 303.857L878.48 300.412M957.719 300.412L918.1 300.412M957.719 300.412L997.339 300.412M922.043 296.831L918.1 300.412M922.043 296.831L926.147 293.105M922.043 296.831L881.635 296.831M918.1 300.412L878.48 300.412M997.339 300.412L1036.96 300.412M997.339 300.412L992.029 303.857M878.48 300.412L881.635 296.831M992.029 303.857L1030.89 303.857M926.147 293.105L930.421 289.223M926.147 293.105L884.918 293.104M881.635 296.831L882.443 295.914L884.918 293.104M884.918 293.104L886.184 291.668L887.47 290.209L888.338 289.223M972.506 289.223L975.151 287.222L977.852 285.178M972.506 289.223L930.421 289.223M972.506 289.223L1014.59 289.223M930.421 289.223L934.877 285.178M930.421 289.223L888.338 289.223M888.338 289.223L891.901 285.178M977.852 285.178L934.877 285.178M977.852 285.178L1020.83 285.178M939.524 280.957L934.877 285.178M939.524 280.957L944.378 276.55M939.524 280.957L895.62 280.957M934.877 285.178L891.901 285.178M1020.83 285.178L1063.8 285.178M1020.83 285.178L1014.59 289.223M891.901 285.178L895.62 280.957M1014.59 289.223L1056.67 289.223M944.378 276.55L945.625 275.418L949.451 271.944M944.378 276.55L899.503 276.55M895.62 280.957L899.503 276.55M899.503 276.55L900 275.985L901.509 274.273L903.561 271.944M995.341 271.944L1001.71 267.124M995.341 271.944L949.451 271.944M995.341 271.944L1041.23 271.944M949.451 271.944L954.759 267.124M949.451 271.944L903.561 271.944M903.561 271.944L907.807 267.124M1001.71 267.124L954.759 267.124M1001.71 267.124L1048.66 267.124M960.318 262.076L956.812 265.259L954.759 267.124M960.318 262.076L966.146 256.784M960.318 262.076L912.254 262.076M954.759 267.124L907.807 267.124M1048.66 267.124L1095.61 267.124M1048.66 267.124L1041.23 271.944M907.807 267.124L912.254 262.076M1041.23 271.944L1087.12 271.944M966.146 256.784L972.265 251.228M966.146 256.784L916.917 256.784M912.254 262.076L916.917 256.784M916.917 256.784L921.812 251.228M1022.72 251.228L1030.43 245.389M1022.72 251.228L972.265 251.228M1022.72 251.228L1073.17 251.228M972.265 251.228L978.695 245.389M972.265 251.228L921.812 251.228M921.812 251.228L926.956 245.389M1030.43 245.389L978.695 245.389M1030.43 245.389L1082.17 245.389M985.461 239.244L978.695 245.389M985.461 239.244L992.591 232.77M985.461 239.244L932.369 239.244M978.695 245.389L926.956 245.389M1082.17 245.389L1133.91 245.389M1082.17 245.389L1073.17 251.228M926.956 245.389L932.369 239.244M1073.17 251.228L1123.62 251.228M992.591 232.77L1000.12 225.938M992.591 232.77L938.073 232.77M932.369 239.244L938.073 232.77M938.073 232.77L944.093 225.938M1056.14 225.938L1065.68 218.718M1056.14 225.938L1000.12 225.938M1056.14 225.938L1112.16 225.938M1000.12 225.938L1008.07 218.718M1000.12 225.938L944.093 225.938M944.093 225.938L950.453 218.718M1065.68 218.718L1008.07 218.718M1065.68 218.718L1123.29 218.718M1016.48 211.076L1008.07 218.718M1016.48 211.076L1025.4 202.975M1016.48 211.076L957.185 211.076M1008.07 218.718L950.453 218.718M1123.29 218.718L1180.91 218.718M1123.29 218.718L1112.16 225.938M950.453 218.718L957.185 211.076M1112.16 225.938L1168.18 225.938M1025.4 202.975L1034.88 194.37M1025.4 202.975L964.323 202.975M957.185 211.076L964.323 202.975M964.323 202.975L971.903 194.37M1097.86 194.37L1109.95 185.215M1097.86 194.37L1034.88 194.37M1097.86 194.37L1160.83 194.37M1034.88 194.37L1044.96 185.215M1034.88 194.37L971.903 194.37M971.903 194.37L979.969 185.215M1109.95 185.215L1044.96 185.215M1109.95 185.215L1174.95 185.215M1055.71 175.454L1044.96 185.215M1055.71 175.454L1067.2 165.026M1055.71 175.454L988.568 175.454M1044.96 185.215L979.969 185.215M1174.95 185.215L1239.94 185.215M1174.95 185.215L1160.83 194.37M979.969 185.215L988.568 175.454M1160.83 194.37L1223.81 194.37M1067.2 165.026L1079.49 153.858M1067.2 165.026L997.756 165.026M988.568 175.454L997.756 165.026M997.756 165.026L1007.6 153.858M1151.39 153.858L1167.23 141.87M1151.39 153.858L1079.49 153.858M1151.39 153.858L1223.29 153.858M1079.49 153.858L1092.7 141.87M1079.49 153.858L1007.6 153.858M1007.6 153.858L1018.16 141.87M1167.23 141.87L1092.7 141.87M1167.23 141.87L1241.77 141.87M1106.9 128.968L1092.7 141.87M1106.9 128.968L1122.24 115.043M1106.9 128.968L1029.52 128.968M1092.7 141.87L1018.16 141.87M1241.77 141.87L1316.31 141.87M1241.77 141.87L1223.29 153.858M1018.16 141.87L1029.52 128.968M1223.29 153.858L1295.19 153.858M1122.24 115.043L1138.84 99.9695M1122.24 115.043L1041.79 115.043M1029.52 128.968L1041.79 115.043M1041.79 115.043L1055.07 99.9695M1222.61 99.9695L1244.24 83.5978M1222.61 99.9695L1138.84 99.9695M1222.61 99.9695L1306.37 99.9695M1138.84 99.9695L1156.87 83.5978M1138.84 99.9695L1055.07 99.9695M1055.07 99.9695L1069.49 83.5978M1244.24 83.5978L1156.87 83.5978M1244.24 83.5978L1331.62 83.5978M1176.52 65.7533L1156.87 83.5978M1176.52 65.7533L1198.02 46.2278M1176.52 65.7533L1085.22 65.7533M1156.87 83.5978L1069.49 83.5978M1331.62 83.5978L1418.99 83.5978M1331.62 83.5978L1306.37 99.9695M1069.49 83.5978L1085.22 65.7533M1306.37 99.9695L1390.14 99.9695M1198.02 46.2278L1221.65 24.7717M1198.02 46.2278L1102.42 46.2278M1085.22 65.7533L1102.42 46.2278M1102.42 46.2278L1121.32 24.7717M1321.98 24.7718L1353.28 1.08417M1321.98 24.7718L1221.65 24.7717M1321.98 24.7718L1422.31 24.7718M1221.65 24.7717L1247.74 1.08416M1221.65 24.7717L1121.32 24.7717M1121.32 24.7717L1142.19 1.08415M1247.74 1.08416L1353.28 1.08417M1247.74 1.08416L1142.19 1.08415M1353.28 1.08417L1439.61 1.08461M1422.31 24.7718L1439.61 13.5501M1422.31 24.7718L1439.61 24.7718M1080.97 316.408L1087.51 313.44M1080.97 316.408L1044.87 316.407M1080.97 316.408L1117.07 316.408M1039.2 319.271L1033.71 322.037M1039.2 319.271L1044.87 316.407M1039.2 319.271L1003.73 319.271M1033.71 322.037L998.857 322.037M1033.71 322.037L1028.42 324.708M1062.69 324.708L1028.42 324.708M1062.69 324.708L1060.53 325.687L1057 327.292M1062.69 324.708L1096.96 324.708M1044.87 316.407L1050.75 313.44M1044.87 316.407L1008.78 316.407M1003.73 319.271L998.857 322.037M1003.73 319.271L1008.78 316.407M998.857 322.037L995.311 324.049L994.149 324.708M1028.42 324.708L1027.77 325.036L1023.3 327.292M1028.42 324.708L994.149 324.708M1008.78 316.407L1014 313.44M959.881 324.708L955.898 327.292M959.881 324.708L994.149 324.708M994.149 324.708L992.424 325.687L989.597 327.292M1087.51 313.44L1050.75 313.44M1087.51 313.44L1124.26 313.44M1056.85 310.363L1050.75 313.44M1056.85 310.363L1063.18 307.171M1056.85 310.363L1019.43 310.363M1050.75 313.44L1014 313.44M1124.26 313.44L1161.01 313.44M1124.26 313.44L1117.07 316.408M1014 313.44L1019.43 310.363M1117.07 316.408L1153.16 316.408M1063.18 307.171L1064.8 306.354L1069.75 303.857M1063.18 307.171L1025.05 307.171M1019.43 310.363L1025.05 307.171M1025.05 307.171L1030.89 303.857M1108.61 303.857L1109.55 303.433L1116.2 300.412M1108.61 303.857L1069.75 303.857M1108.61 303.857L1147.48 303.857M1069.75 303.857L1076.58 300.412M1069.75 303.857L1030.89 303.857M1030.89 303.857L1031.64 303.433L1036.96 300.412M1116.2 300.412L1076.58 300.412M1116.2 300.412L1155.82 300.412M1083.68 296.831L1076.58 300.412M1083.68 296.831L1091.07 293.105M1083.68 296.831L1043.27 296.831M1076.58 300.412L1036.96 300.412M1155.82 300.412L1195.44 300.412M1155.82 300.412L1147.48 303.857M1036.96 300.412L1043.27 296.831M1147.48 303.857L1186.34 303.857M1091.07 293.105L1098.76 289.223M1091.07 293.105L1049.84 293.105M1043.27 296.831L1049.84 293.105M1049.84 293.105L1056.67 289.223M1140.84 289.223L1149.75 285.178M1140.84 289.223L1098.76 289.223M1140.84 289.223L1182.93 289.223M1098.76 289.223L1106.78 285.178M1098.76 289.223L1056.67 289.223M1056.67 289.223L1063.8 285.178M1149.75 285.178L1106.78 285.178M1149.75 285.178L1192.73 285.178M1115.14 280.957L1106.78 285.178M1115.14 280.957L1123.88 276.55M1115.14 280.957L1071.24 280.957M1106.78 285.178L1063.8 285.178M1192.73 285.178L1235.7 285.178M1192.73 285.178L1182.93 289.223M1063.8 285.178L1071.24 280.957M1182.93 289.223L1225.01 289.223M1123.88 276.55L1133.01 271.944M1123.88 276.55L1079 276.55M1071.24 280.957L1079 276.55M1079 276.55L1087.12 271.944M1178.9 271.944L1189.52 267.124M1178.9 271.944L1133.01 271.944M1178.9 271.944L1224.79 271.944M1133.01 271.944L1142.57 267.124M1133.01 271.944L1087.12 271.944M1087.12 271.944L1095.61 267.124M1189.52 267.124L1142.57 267.124M1189.52 267.124L1236.47 267.124M1152.57 262.076L1142.57 267.124M1152.57 262.076L1163.06 256.784M1152.57 262.076L1104.51 262.076M1142.57 267.124L1095.61 267.124M1236.47 267.124L1283.42 267.124M1236.47 267.124L1224.79 271.944M1095.61 267.124L1104.51 262.076M1224.79 271.944L1270.68 271.944M1163.06 256.784L1174.08 251.228M1163.06 256.784L1113.83 256.784M1104.51 262.076L1113.83 256.784M1113.83 256.784L1123.62 251.228M1224.53 251.228L1237.39 245.389M1224.53 251.228L1174.08 251.228M1224.53 251.228L1274.98 251.228M1174.08 251.228L1185.65 245.389M1174.08 251.228L1123.62 251.228M1123.62 251.228L1133.91 245.389M1237.39 245.389L1185.65 245.389M1237.39 245.389L1289.13 245.389M1197.83 239.244L1185.65 245.389M1197.83 239.244L1210.66 232.77M1197.83 239.244L1144.74 239.244M1185.65 245.389L1133.91 245.389M1289.13 245.389L1340.87 245.389M1289.13 245.389L1274.98 251.228M1133.91 245.389L1144.74 239.244M1274.98 251.228L1325.43 251.228M1210.66 232.77L1224.21 225.938M1210.66 232.77L1156.15 232.77M1144.74 239.244L1156.15 232.77M1156.15 232.77L1168.18 225.938M1280.23 225.938L1296.13 218.718M1280.23 225.938L1224.21 225.938M1280.23 225.938L1336.25 225.938M1224.21 225.938L1238.52 218.718M1224.21 225.938L1168.18 225.938M1168.18 225.938L1180.91 218.718M1296.13 218.718L1238.52 218.718M1296.13 218.718L1353.75 218.718M1253.67 211.076L1238.52 218.718M1253.67 211.076L1269.73 202.975M1253.67 211.076L1194.37 211.076M1238.52 218.718L1180.91 218.718M1353.75 218.718L1411.36 218.718M1353.75 218.718L1336.25 225.938M1180.91 218.718L1194.37 211.076M1336.25 225.938L1392.28 225.938M1269.73 202.975L1286.78 194.37M1269.73 202.975L1208.65 202.975M1194.37 211.076L1208.65 202.975M1208.65 202.975L1223.81 194.37M1349.76 194.37L1369.92 185.215M1349.76 194.37L1286.78 194.37M1349.76 194.37L1412.73 194.37M1286.78 194.37L1304.93 185.215M1286.78 194.37L1223.81 194.37M1223.81 194.37L1239.94 185.215M1369.92 185.215L1304.93 185.215M1369.92 185.215L1434.91 185.215M1324.28 175.454L1304.93 185.215M1324.28 175.454L1344.95 165.026M1324.28 175.454L1257.14 175.454M1304.93 185.215L1239.94 185.215M1434.91 185.215L1412.73 194.37M1434.91 185.215L1439.61 185.215M1434.91 185.215L1439.61 183.276M1239.94 185.215L1257.14 175.454M1412.73 194.37L1439.61 194.37M1344.95 165.026L1367.09 153.858M1344.95 165.026L1275.51 165.026M1257.14 175.454L1275.51 165.026M1275.51 165.026L1295.19 153.858M1438.99 153.858L1367.09 153.858M1438.99 153.858L1439.61 153.858M1438.99 153.858L1439.61 153.575M1367.09 153.858L1390.85 141.87M1367.09 153.858L1295.19 153.858M1295.19 153.858L1316.31 141.87M1416.43 128.968L1390.85 141.87M1416.43 128.968L1339.05 128.968M1416.43 128.968L1439.61 128.968M1416.43 128.968L1439.61 117.272M1390.85 141.87L1316.31 141.87M1390.85 141.87L1439.61 141.87M1316.31 141.87L1339.05 128.968M1339.05 128.968L1363.58 115.043M1363.58 115.043L1390.14 99.9695M1363.58 115.043L1439.61 115.043M1390.14 99.9695L1418.99 83.5978M1390.14 99.9695L1439.61 99.9695M1418.99 83.5978L1439.61 83.5978M1418.99 83.5978L1439.61 71.8935M1225.36 316.408L1234.51 313.44M1225.36 316.408L1189.26 316.408M1225.36 316.408L1261.45 316.408M1181.06 319.271L1173.14 322.037M1181.06 319.271L1189.26 316.408M1181.06 319.271L1145.59 319.271M1173.14 322.037L1138.29 322.037M1173.14 322.037L1165.49 324.708M1199.76 324.708L1165.49 324.708M1199.76 324.708L1191.8 327.292M1199.76 324.708L1234.03 324.708M1189.26 316.408L1197.76 313.44M1189.26 316.408L1153.16 316.408M1145.59 319.271L1138.29 322.037M1145.59 319.271L1153.16 316.408M1138.29 322.037L1131.22 324.708M1165.49 324.708L1164.55 325.036L1158.1 327.292M1165.49 324.708L1131.22 324.708M1153.16 316.408L1161.01 313.44M1096.96 324.708L1090.7 327.292M1096.96 324.708L1131.22 324.708M1131.22 324.708L1130.36 325.036L1124.4 327.292M1234.51 313.44L1197.76 313.44M1234.51 313.44L1271.26 313.44M1206.57 310.363L1197.76 313.44M1206.57 310.363L1215.71 307.171M1206.57 310.363L1169.14 310.363M1197.76 313.44L1161.01 313.44M1271.26 313.44L1308.01 313.44M1271.26 313.44L1261.45 316.408M1161.01 313.44L1169.14 310.363M1261.45 316.408L1297.55 316.408M1215.71 307.171L1225.2 303.857M1215.71 307.171L1177.58 307.171M1169.14 310.363L1170.18 309.971L1177.58 307.171M1177.58 307.171L1186.34 303.857M1264.06 303.857L1274.68 300.412M1264.06 303.857L1225.2 303.857M1264.06 303.857L1302.92 303.857M1225.2 303.857L1235.06 300.412M1225.2 303.857L1186.34 303.857M1186.34 303.857L1195.44 300.412M1274.68 300.412L1235.06 300.412M1274.68 300.412L1314.3 300.412M1245.31 296.831L1235.06 300.412M1245.31 296.831L1255.98 293.105M1245.31 296.831L1204.9 296.831M1235.06 300.412L1195.44 300.412M1314.3 300.412L1353.92 300.412M1314.3 300.412L1302.92 303.857M1195.44 300.412L1204.9 296.831M1302.92 303.857L1341.78 303.857M1255.98 293.105L1267.1 289.223M1255.98 293.105L1214.75 293.105M1204.9 296.831L1214.75 293.105M1214.75 293.105L1225.01 289.223M1309.18 289.223L1321.66 285.178M1309.18 289.223L1267.1 289.223M1309.18 289.223L1351.27 289.223M1267.1 289.223L1278.68 285.178M1267.1 289.223L1225.01 289.223M1225.01 289.223L1235.7 285.178M1321.66 285.178L1278.68 285.178M1321.66 285.178L1364.63 285.178M1290.76 280.957L1278.68 285.178M1290.76 280.957L1303.38 276.55M1290.76 280.957L1246.86 280.957M1278.68 285.178L1235.7 285.178M1364.63 285.178L1407.61 285.178M1364.63 285.178L1351.27 289.223M1235.7 285.178L1246.86 280.957M1351.27 289.223L1393.35 289.223M1303.38 276.55L1316.57 271.944M1303.38 276.55L1258.51 276.55M1246.86 280.957L1258.51 276.55M1258.51 276.55L1270.68 271.944M1362.46 271.944L1377.32 267.124M1362.46 271.944L1316.57 271.944M1362.46 271.944L1408.35 271.944M1316.57 271.944L1330.37 267.124M1316.57 271.944L1270.68 271.944M1270.68 271.944L1283.42 267.124M1377.32 267.124L1330.37 267.124M1344.83 262.076L1330.37 267.124M1344.83 262.076L1359.98 256.784M1344.83 262.076L1296.76 262.076M1330.37 267.124L1283.42 267.124M1283.42 267.124L1296.76 262.076M1408.35 271.944L1439.61 271.944M1359.98 256.784L1375.89 251.228M1359.98 256.784L1310.75 256.784M1296.76 262.076L1310.75 256.784M1310.75 256.784L1325.43 251.228M1426.34 251.228L1375.89 251.228M1426.34 251.228L1439.61 251.228M1426.34 251.228L1439.61 246.924M1375.89 251.228L1392.61 245.389M1375.89 251.228L1325.43 251.228M1325.43 251.228L1340.87 245.389M1410.2 239.244L1392.61 245.389M1410.2 239.244L1428.74 232.77M1410.2 239.244L1357.11 239.244M1410.2 239.244L1439.61 239.244M1392.61 245.389L1340.87 245.389M1392.61 245.389L1439.61 245.389M1340.87 245.389L1357.11 239.244M1439.76 246.877L1439.61 246.924M1428.74 232.77L1374.22 232.77M1428.74 232.77L1439.61 232.77M1428.74 232.77L1439.61 228.972M1357.11 239.244L1374.22 232.77M1374.22 232.77L1392.28 225.938M1392.28 225.938L1411.36 218.718M1392.28 225.938L1439.61 225.938M1431.56 211.076L1411.36 218.718M1431.56 211.076L1439.61 211.076M1431.56 211.076L1439.61 208.028M1411.36 218.718L1439.61 218.718M1369.74 316.408L1381.51 313.44M1369.74 316.408L1333.65 316.408M1369.74 316.408L1405.84 316.408M1322.93 319.271L1312.57 322.037M1322.93 319.271L1333.65 316.408M1322.93 319.271L1287.46 319.271M1312.57 322.037L1277.71 322.037M1312.57 322.037L1302.57 324.708M1336.84 324.708L1302.57 324.708M1336.84 324.708L1326.6 327.292M1336.84 324.708L1371.1 324.708M1333.65 316.408L1344.76 313.44M1333.65 316.408L1297.55 316.408M1287.46 319.271L1277.71 322.037M1287.46 319.271L1297.55 316.408M1277.71 322.037L1268.3 324.708M1302.57 324.708L1268.3 324.708M1302.57 324.708L1292.89 327.292M1297.55 316.408L1308.01 313.44M1234.03 324.708L1225.5 327.292M1234.03 324.708L1268.3 324.708M1268.3 324.708L1259.2 327.292M1381.51 313.44L1344.76 313.44M1381.51 313.44L1418.26 313.44M1356.28 310.363L1344.76 313.44M1356.28 310.363L1368.23 307.171M1356.28 310.363L1318.85 310.363M1344.76 313.44L1308.01 313.44M1418.26 313.44L1405.84 316.408M1418.26 313.44L1439.61 313.44M1308.01 313.44L1318.85 310.363M1405.84 316.408L1439.61 316.408M1368.23 307.171L1380.64 303.857M1368.23 307.171L1330.1 307.171M1318.85 310.363L1330.1 307.171M1330.1 307.171L1341.78 303.857M1419.5 303.857L1433.16 300.412M1419.5 303.857L1380.64 303.857M1419.5 303.857L1439.61 303.857M1380.64 303.857L1393.54 300.412M1380.64 303.857L1341.78 303.857M1341.78 303.857L1353.92 300.412M1406.95 296.831L1393.54 300.412M1406.95 296.831L1420.9 293.105M1406.95 296.831L1366.54 296.831M1406.95 296.831L1439.61 296.831M1393.54 300.412L1433.16 300.412M1393.54 300.412L1353.92 300.412M1433.16 300.412L1439.61 298.785M1433.16 300.412L1439.61 300.412M1353.92 300.412L1366.54 296.831M1420.9 293.105L1435.43 289.223M1420.9 293.105L1379.67 293.105M1420.9 293.105L1439.61 293.105M1366.54 296.831L1379.67 293.105M1379.67 293.105L1393.35 289.223M1435.43 289.223L1393.35 289.223M1435.43 289.223L1439.61 288.107M1435.43 289.223L1439.61 289.223M1393.35 289.223L1407.61 285.178M1422.48 280.957L1407.61 285.178M1422.48 280.957L1438.01 276.55M1422.48 280.957L1439.61 280.957M1407.61 285.178L1439.61 285.178M1439.84 285.178L1439.61 285.178M1438.01 276.55L1439.61 276.55M1438.01 276.55L1439.61 276.095M1440 275.986L1439.61 276.095M1429.32 319.271L1417.14 322.037M1429.32 319.271L1439.61 319.271M1429.32 319.271L1439.61 316.936M1417.14 322.037L1405.37 324.708M1417.14 322.037L1439.61 322.037M1371.1 324.708L1360.29 327.292M1371.1 324.708L1405.37 324.708M1405.37 324.708L1393.99 327.292M1405.37 324.708L1439.61 324.708M248.204 327.292L214.504 327.292M248.204 327.292L281.904 327.292M222.76 329.79L220.722 329.173L214.504 327.292M222.76 329.79L189.61 329.79M214.504 327.292L180.805 327.292M189.61 329.79L187.436 329.173L186.342 328.863L180.805 327.292M180.805 327.292L147.105 327.292M147.105 327.292L113.405 327.292M281.904 327.292L315.603 327.292M113.405 327.292L79.7052 327.292M79.7052 327.292L90.1629 329.79M79.7052 327.292L46.0057 327.292M90.1629 329.79L57.0135 329.79M383.003 327.292L349.303 327.292M383.003 327.292L416.703 327.292M355.357 329.79L353.863 329.173L353.11 328.863L349.303 327.292M355.357 329.79L322.208 329.79M349.303 327.292L315.603 327.292M322.208 329.79L315.603 327.292M416.703 327.292L450.402 327.292M517.802 327.292L484.102 327.292M517.802 327.292L551.501 327.292M487.955 329.79L487.48 329.483L487.004 329.173L486.525 328.863L484.102 327.292M487.955 329.79L454.806 329.79M484.102 327.292L450.402 327.292M454.806 329.79L450.402 327.292M551.501 327.292L585.202 327.292M652.601 327.292L618.901 327.292M652.601 327.292L686.3 327.292M620.552 329.79L618.901 327.292M620.552 329.79L587.402 329.79M618.901 327.292L585.202 327.292M587.402 329.79L587.131 329.483L586.859 329.173L586.585 328.863L585.202 327.292M686.3 327.292L720 327.292M787.399 327.292L753.7 327.292M787.399 327.292L821.099 327.292M753.149 329.79L753.7 327.292M753.149 329.79L720 329.79M753.7 327.292L720 327.292M720 329.79L720 327.292M821.099 327.292L854.799 327.292M922.198 327.292L888.499 327.292M922.198 327.292L955.898 327.292M885.747 329.79L886.426 329.173L887.802 327.924L888.499 327.292M885.747 329.79L852.598 329.79M888.499 327.292L854.799 327.292M852.598 329.79L852.869 329.483L853.141 329.173L853.415 328.863L854.799 327.292M955.898 327.292L989.597 327.292M1057 327.292L1023.3 327.292M1057 327.292L1090.7 327.292M1018.34 329.79L1019.57 329.173L1020.18 328.863L1023.3 327.292M1018.34 329.79L985.194 329.79M1023.3 327.292L989.597 327.292M985.194 329.79L985.737 329.483L989.597 327.292M1090.7 327.292L1124.4 327.292M1191.8 327.292L1158.1 327.292M1191.8 327.292L1225.5 327.292M1150.94 329.79L1152.71 329.173L1153.6 328.863L1158.1 327.292M1150.94 329.79L1117.79 329.79M1158.1 327.292L1124.4 327.292M1117.79 329.79L1118.61 329.483L1124.4 327.292M1225.5 327.292L1259.2 327.292M1326.6 327.292L1292.89 327.292M1326.6 327.292L1360.29 327.292M1283.54 329.79L1292.89 327.292M1283.54 329.79L1250.39 329.79M1292.89 327.292L1259.2 327.292M1250.39 329.79L1252.56 329.173L1253.66 328.863L1259.2 327.292M1360.29 327.292L1393.99 327.292M1416.14 329.79L1427.69 327.292M1416.14 329.79L1382.99 329.79M1416.14 329.79L1439.61 329.79M1427.69 327.292L1393.99 327.292M1427.69 327.292L1439.61 324.715M1427.69 327.292L1439.61 327.292M1382.99 329.79L1385.7 329.173L1393.99 327.292M57.0135 329.79L54.2955 329.173L46.0057 327.292M46.0057 327.292L12.3061 327.292M12.3061 327.292L0.387477 324.715M12.3061 327.292L0.387477 327.292M0.387488 208.028L0.387487 211.076M0.387488 208.028L0.387488 202.975M0.387487 211.076L0.387487 218.718M0.387488 202.975L0.387488 201.465L0.387489 194.37M0.387489 194.37L0.38749 185.215M0.387482 267.124L0.387482 271.944M0.387482 267.124L0.387483 262.482M0.387477 329.79L0.387477 327.292M0.387477 327.292L0.387477 324.715M0.387477 324.715L0.358288 324.708L0.387477 324.708M0.387477 324.715L0.387477 324.708M0.387477 324.708L0.387478 322.037M0.387478 322.037L0.387478 319.271M0.387478 319.271L0.387478 316.936M0.387478 316.936L0.387478 316.407M0.387478 316.407L0.387478 313.44M0.387478 313.44L0.387479 310.363M0.387479 310.363L0.387479 308.338M0.387479 308.338L0.387479 307.171M0.387479 307.171L0.387479 303.856M0.387479 303.856L0.38748 300.412M0.38748 300.412L0.38748 298.784M0.38748 298.784L0.38748 296.831M0.38748 296.831L0.38748 293.104M0.38748 293.104L0.38748 289.223M0.38748 289.223L0.387481 288.107M0.387481 288.107L0.387481 285.178M0.387481 285.178L0.387481 280.957M0.387481 280.957L0.387482 276.55M0.387482 276.55L0.387482 276.095M0.387482 276.095L0.387482 271.944M0.387483 262.076L0.387483 256.784M0.387483 262.076L0.387483 262.482M0.387483 256.784L0.387484 251.228M0.387484 251.228L0.387484 246.924M0.387484 246.924L0.387484 245.389M0.387484 245.389L0.387485 239.244M0.387485 239.244L0.387485 232.77M0.387485 232.77L0.387486 228.972M0.387486 228.972L0.387486 225.938M0.387486 225.938L0.387487 218.718M0.38749 185.215L0.38749 183.276M0.38749 183.276L0.38749 175.454M0.38749 175.454L0.387491 165.025M0.387491 165.025L0.387492 153.858M0.387492 153.858L0.387492 153.574M0.387492 153.574L0.387493 141.87M0.387493 141.87L0.387495 128.968M0.387495 128.968L0.387496 117.272M0.387496 117.272L0.387496 115.043M0.387496 115.043L0.387497 99.9694M0.387497 99.9694L0.387498 83.5977M0.387498 83.5977L0.387499 71.8934M0.387499 71.8934L0.3875 65.7532M0.3875 65.7532L0.387502 46.2277M0.387502 46.2277L0.387504 24.7716M0.387504 24.7716L0.387505 13.5499M0.387505 13.5499L0.387506 1.08448M0.387506 1.08448L0.387506 0.999902L1439.61 1.00003L1439.61 1.08461M1439.61 262.076L1439.61 256.784M1439.61 262.076L1439.61 262.482M1439.61 262.482L1439.61 267.124M1439.61 267.124L1439.61 271.944M1439.61 271.944L1439.61 276.095M1439.61 276.095L1439.61 276.55M1439.61 276.55L1439.61 280.957M1439.61 280.957L1439.61 285.178M1439.61 285.178L1439.61 288.107M1439.61 288.107L1439.61 289.223M1439.61 289.223L1439.61 293.105M1439.61 293.105L1439.61 296.831M1439.61 296.831L1439.61 298.785M1439.61 298.785L1439.61 300.412M1439.61 300.412L1439.61 303.857M1439.61 303.857L1439.61 307.171M1439.61 307.171L1439.61 308.338M1439.61 308.338L1439.61 310.363M1439.61 310.363L1439.61 313.44M1439.61 313.44L1439.61 316.408M1439.61 316.408L1439.61 316.936M1439.61 316.936L1439.61 319.271M1439.61 319.271L1439.61 322.037M1439.61 322.037L1439.61 324.708M1439.61 324.708L1439.64 324.708L1439.61 324.715M1439.61 324.708L1439.61 324.715M1439.61 324.715L1439.61 327.292M1439.61 327.292L1439.61 329.79M1439.61 1.08461L1439.61 13.5501M1439.61 13.5501L1439.61 24.7718M1439.61 24.7718L1439.61 46.2274M1439.61 46.2274L1439.61 65.7533M1439.61 65.7533L1439.61 71.8935M1439.61 71.8935L1439.61 83.5978M1439.61 83.5978L1439.61 99.9695M1439.61 99.9695L1439.61 115.043M1439.61 115.043L1439.61 117.272M1439.61 117.272L1439.61 128.968M1439.61 128.968L1439.61 141.87M1439.61 141.87L1439.61 153.575M1439.61 153.575L1439.61 153.858M1439.61 153.858L1439.61 165.026M1439.61 165.026L1439.61 175.454M1439.61 175.454L1439.61 183.276M1439.61 183.276L1439.61 185.215M1439.61 185.215L1439.61 194.37M1439.61 194.37L1439.61 202.975M1439.61 202.975L1439.61 208.028M1439.61 208.028L1439.61 211.076M1439.61 211.076L1439.61 218.718M1439.61 218.718L1439.61 225.938M1439.61 225.938L1439.61 228.972M1439.61 228.972L1439.61 232.77M1439.61 232.77L1439.61 239.244M1439.61 239.244L1439.61 245.389M1439.61 245.389L1439.61 246.924M1439.61 246.924L1439.61 251.228M1439.61 251.228L1439.61 256.784" stroke="url(#paint0_radial_4005_154)" stroke-opacity="0.6" stroke-width="0.870405" stroke-miterlimit="10" stroke-linecap="round" stroke-linejoin="round"/>
</g>
<defs>
<radialGradient id="paint0_radial_4005_154" cx="0" cy="0" r="1" gradientUnits="userSpaceOnUse" gradientTransform="translate(720 13.2073) rotate(90) scale(518.464 2254.13)">
<stop stop-color="#525252"/>
<stop offset="0.489074" stop-color="#CED2DF" stop-opacity="0"/>
</radialGradient>
</defs>
</svg>
