<svg width="105" height="39" viewBox="0 0 105 39" fill="none" xmlns="http://www.w3.org/2000/svg">
<g clip-path="url(#clip0_240_3782)">
<path d="M16.7833 3L31.6633 8.34483C31.6633 8.34483 31.6633 20.1034 23.651 27.5862C19.0725 31.8621 16.7833 34 16.7833 34C16.7833 34 14.4941 31.8621 9.91563 27.5862C1.90332 20.1034 1.90332 8.34483 1.90332 8.34483L16.7833 3Z" fill="#28A745"/>
<path d="M11.8237 17.2598L15.5437 21.5998L22.9837 12.9198" stroke="white" stroke-width="1.76324" stroke-linecap="round" stroke-linejoin="round"/>
<path d="M39.7395 12.4133C39.7111 12.1268 39.5892 11.9043 39.3738 11.7456C39.1583 11.587 38.8659 11.5077 38.4966 11.5077C38.2457 11.5077 38.0338 11.5432 37.861 11.6142C37.6882 11.6829 37.5556 11.7788 37.4632 11.9019C37.3733 12.025 37.3283 12.1647 37.3283 12.3209C37.3236 12.4511 37.3508 12.5648 37.41 12.6618C37.4715 12.7589 37.5556 12.8429 37.6621 12.914C37.7686 12.9826 37.8917 13.043 38.0314 13.0951C38.1711 13.1448 38.3203 13.1874 38.4789 13.2229L39.1323 13.3792C39.4495 13.4502 39.7407 13.5449 40.0059 13.6633C40.271 13.7816 40.5007 13.9272 40.6948 14.1C40.8889 14.2729 41.0392 14.4765 41.1458 14.7108C41.2547 14.9452 41.3103 15.2139 41.3127 15.5169C41.3103 15.962 41.1967 16.3479 40.9718 16.6746C40.7492 16.999 40.4273 17.2511 40.0059 17.431C39.5868 17.6086 39.0814 17.6973 38.4895 17.6973C37.9024 17.6973 37.391 17.6074 36.9554 17.4275C36.5222 17.2475 36.1837 16.9812 35.9398 16.6285C35.6983 16.2733 35.5717 15.8342 35.5598 15.311H37.0478C37.0643 15.5548 37.1342 15.7584 37.2573 15.9218C37.3828 16.0828 37.5497 16.2047 37.758 16.2875C37.9687 16.368 38.2066 16.4083 38.4718 16.4083C38.7322 16.4083 38.9583 16.3704 39.15 16.2946C39.3442 16.2189 39.4945 16.1135 39.601 15.9786C39.7076 15.8437 39.7608 15.6886 39.7608 15.5134C39.7608 15.35 39.7123 15.2127 39.6152 15.1015C39.5205 14.9902 39.3809 14.8955 39.1962 14.8174C39.0139 14.7392 38.7902 14.6682 38.525 14.6043L37.7331 14.4054C37.12 14.2563 36.6358 14.0231 36.2807 13.7059C35.9256 13.3886 35.7492 12.9613 35.7516 12.4239C35.7492 11.9836 35.8664 11.5989 36.1032 11.2698C36.3423 10.9407 36.6702 10.6838 37.0868 10.4992C37.5035 10.3145 37.977 10.2222 38.5073 10.2222C39.0471 10.2222 39.5182 10.3145 39.9206 10.4992C40.3255 10.6838 40.6403 10.9407 40.8652 11.2698C41.0901 11.5989 41.2061 11.98 41.2132 12.4133H39.7395ZM42.3469 17.5944V10.3216H47.2475V11.5894H43.8846V13.3223H46.9954V14.5901H43.8846V16.3266H47.2617V17.5944H42.3469ZM54.8869 12.8678H53.3315C53.3031 12.6666 53.2451 12.4878 53.1575 12.3316C53.0699 12.173 52.9574 12.038 52.8201 11.9267C52.6828 11.8155 52.5242 11.7303 52.3443 11.6711C52.1667 11.6119 51.9738 11.5823 51.7654 11.5823C51.389 11.5823 51.0611 11.6758 50.7818 11.8628C50.5024 12.0475 50.2858 12.3174 50.1319 12.6725C49.978 13.0252 49.9011 13.4537 49.9011 13.958C49.9011 14.4765 49.978 14.9121 50.1319 15.2648C50.2882 15.6176 50.506 15.8839 50.7853 16.0638C51.0647 16.2437 51.3878 16.3337 51.7548 16.3337C51.9608 16.3337 52.1513 16.3065 52.3265 16.252C52.5041 16.1976 52.6615 16.1183 52.7988 16.0141C52.9361 15.9076 53.0498 15.7785 53.1397 15.627C53.2321 15.4755 53.296 15.3027 53.3315 15.1086L54.8869 15.1157C54.8467 15.4495 54.746 15.7714 54.585 16.0816C54.4264 16.3893 54.2122 16.6651 53.9423 16.909C53.6748 17.1505 53.3552 17.3422 52.9835 17.4843C52.6142 17.624 52.1963 17.6938 51.7299 17.6938C51.0813 17.6938 50.5012 17.547 49.9899 17.2535C49.4809 16.9599 49.0784 16.5349 48.7825 15.9786C48.4889 15.4222 48.3422 14.7487 48.3422 13.958C48.3422 13.1649 48.4913 12.4902 48.7896 11.9338C49.0879 11.3775 49.4927 10.9537 50.0041 10.6625C50.5154 10.369 51.0907 10.2222 51.7299 10.2222C52.1513 10.2222 52.542 10.2814 52.9018 10.3998C53.264 10.5181 53.5848 10.691 53.8642 10.9182C54.1435 11.1431 54.3708 11.4189 54.546 11.7456C54.7235 12.0723 54.8372 12.4464 54.8869 12.8678ZM60.4817 10.3216H62.0194V15.0446C62.0194 15.5749 61.8927 16.039 61.6394 16.4367C61.3884 16.8344 61.0369 17.1445 60.5847 17.3671C60.1325 17.5873 59.6058 17.6973 59.0044 17.6973C58.4007 17.6973 57.8728 17.5873 57.4206 17.3671C56.9685 17.1445 56.6169 16.8344 56.3659 16.4367C56.115 16.039 55.9895 15.5749 55.9895 15.0446V10.3216H57.5272V14.9133C57.5272 15.1902 57.5875 15.4365 57.7083 15.6519C57.8314 15.8673 58.0042 16.0366 58.2267 16.1597C58.4493 16.2828 58.7085 16.3444 59.0044 16.3444C59.3027 16.3444 59.562 16.2828 59.7821 16.1597C60.0047 16.0366 60.1763 15.8673 60.2971 15.6519C60.4202 15.4365 60.4817 15.1902 60.4817 14.9133V10.3216ZM63.2844 17.5944V10.3216H66.1538C66.703 10.3216 67.1718 10.4199 67.56 10.6164C67.9506 10.8105 68.2478 11.0863 68.4513 11.4438C68.6573 11.7989 68.7603 12.2168 68.7603 12.6973C68.7603 13.1803 68.6561 13.5958 68.4478 13.9438C68.2395 14.2894 67.9376 14.5546 67.5423 14.7392C67.1493 14.9239 66.6734 15.0162 66.1147 15.0162H64.1935V13.7804H65.8661C66.1597 13.7804 66.4035 13.7402 66.5977 13.6597C66.7918 13.5792 66.9362 13.4585 67.0309 13.2975C67.128 13.1365 67.1765 12.9365 67.1765 12.6973C67.1765 12.4559 67.128 12.2523 67.0309 12.0865C66.9362 11.9208 66.7906 11.7954 66.5941 11.7101C66.4 11.6225 66.1549 11.5787 65.859 11.5787H64.8221V17.5944H63.2844ZM67.212 14.2847L69.0195 17.5944H67.3221L65.5536 14.2847H67.212ZM69.8469 17.5944V10.3216H74.7475V11.5894H71.3846V13.3223H74.4954V14.5901H71.3846V16.3266H74.7617V17.5944H69.8469Z" fill="#1A1A1A"/>
<path opacity="0.27" d="M38.9746 25.0884C38.9443 24.8195 38.8193 24.6111 38.5996 24.4634C38.3799 24.3138 38.1034 24.239 37.7701 24.239C37.5314 24.239 37.325 24.2768 37.1507 24.3526C36.9765 24.4265 36.8411 24.5287 36.7445 24.6594C36.6498 24.7882 36.6025 24.935 36.6025 25.0998C36.6025 25.238 36.6346 25.3573 36.699 25.4577C36.7653 25.5581 36.8515 25.6424 36.9576 25.7106C37.0655 25.7768 37.181 25.8327 37.3042 25.8782C37.4273 25.9217 37.5456 25.9577 37.6593 25.9861L38.2275 26.1339C38.4131 26.1793 38.6034 26.2409 38.7985 26.3185C38.9935 26.3962 39.1744 26.4984 39.3411 26.6253C39.5078 26.7522 39.6422 26.9094 39.7445 27.0969C39.8487 27.2844 39.9007 27.5089 39.9007 27.7702C39.9007 28.0998 39.8155 28.3924 39.6451 28.6481C39.4765 28.9037 39.2312 29.1054 38.9093 29.2532C38.5892 29.4009 38.2019 29.4748 37.7473 29.4748C37.3117 29.4748 36.9348 29.4056 36.6167 29.2674C36.2985 29.1291 36.0494 28.9331 35.8695 28.6793C35.6896 28.4236 35.5901 28.1206 35.5712 27.7702H36.4519C36.4689 27.9804 36.5371 28.1556 36.6564 28.2958C36.7776 28.434 36.932 28.5373 37.1195 28.6054C37.3089 28.6717 37.5163 28.7049 37.7417 28.7049C37.9898 28.7049 38.2104 28.6661 38.4036 28.5884C38.5987 28.5089 38.7521 28.399 38.8638 28.2589C38.9756 28.1168 39.0314 27.9511 39.0314 27.7617C39.0314 27.5893 38.9822 27.4482 38.8837 27.3384C38.7871 27.2286 38.6555 27.1376 38.4888 27.0657C38.324 26.9937 38.1375 26.9303 37.9292 26.8753L37.2417 26.6878C36.7757 26.5609 36.4064 26.3744 36.1337 26.1282C35.8629 25.882 35.7275 25.5562 35.7275 25.1509C35.7275 24.8157 35.8184 24.5231 36.0002 24.2731C36.182 24.0231 36.4282 23.8289 36.7388 23.6907C37.0494 23.5505 37.3998 23.4804 37.79 23.4804C38.1839 23.4804 38.5314 23.5496 38.8326 23.6878C39.1356 23.8261 39.3742 24.0164 39.5485 24.2589C39.7227 24.4994 39.8136 24.7759 39.8212 25.0884H38.9746ZM44.123 25.0884C44.0927 24.8195 43.9677 24.6111 43.748 24.4634C43.5284 24.3138 43.2518 24.239 42.9185 24.239C42.6799 24.239 42.4734 24.2768 42.2992 24.3526C42.1249 24.4265 41.9895 24.5287 41.8929 24.6594C41.7982 24.7882 41.7509 24.935 41.7509 25.0998C41.7509 25.238 41.7831 25.3573 41.8475 25.4577C41.9138 25.5581 41.9999 25.6424 42.106 25.7106C42.214 25.7768 42.3295 25.8327 42.4526 25.8782C42.5757 25.9217 42.6941 25.9577 42.8077 25.9861L43.3759 26.1339C43.5615 26.1793 43.7518 26.2409 43.9469 26.3185C44.142 26.3962 44.3229 26.4984 44.4895 26.6253C44.6562 26.7522 44.7907 26.9094 44.8929 27.0969C44.9971 27.2844 45.0492 27.5089 45.0492 27.7702C45.0492 28.0998 44.964 28.3924 44.7935 28.6481C44.6249 28.9037 44.3797 29.1054 44.0577 29.2532C43.7376 29.4009 43.3503 29.4748 42.8958 29.4748C42.4602 29.4748 42.0833 29.4056 41.7651 29.2674C41.4469 29.1291 41.1979 28.9331 41.0179 28.6793C40.838 28.4236 40.7386 28.1206 40.7196 27.7702H41.6003C41.6174 27.9804 41.6855 28.1556 41.8049 28.2958C41.9261 28.434 42.0804 28.5373 42.2679 28.6054C42.4573 28.6717 42.6647 28.7049 42.8901 28.7049C43.1382 28.7049 43.3588 28.6661 43.552 28.5884C43.7471 28.5089 43.9005 28.399 44.0123 28.2589C44.124 28.1168 44.1799 27.9511 44.1799 27.7617C44.1799 27.5893 44.1306 27.4482 44.0321 27.3384C43.9355 27.2286 43.8039 27.1376 43.6373 27.0657C43.4725 26.9937 43.2859 26.9303 43.0776 26.8753L42.3901 26.6878C41.9242 26.5609 41.5549 26.3744 41.2821 26.1282C41.0113 25.882 40.8759 25.5562 40.8759 25.1509C40.8759 24.8157 40.9668 24.5231 41.1486 24.2731C41.3304 24.0231 41.5766 23.8289 41.8873 23.6907C42.1979 23.5505 42.5482 23.4804 42.9384 23.4804C43.3323 23.4804 43.6799 23.5496 43.981 23.6878C44.284 23.8261 44.5227 24.0164 44.6969 24.2589C44.8712 24.4994 44.9621 24.7759 44.9696 25.0884H44.123ZM46.0982 29.3782V23.56H46.976V28.6225H49.6124V29.3782H46.0982ZM52.731 29.3782V23.56H56.3787V24.3157H53.6088V26.0884H56.1884V26.8412H53.6088V28.6225H56.4128V29.3782H52.731ZM62.2473 23.56V29.3782H61.4405L58.4831 25.1111H58.4292V29.3782H57.5513V23.56H58.3638L61.324 27.8327H61.378V23.56H62.2473ZM68.3603 25.452H67.4739C67.4398 25.2626 67.3764 25.096 67.2836 24.952C67.1908 24.8081 67.0771 24.6859 66.9426 24.5856C66.8082 24.4852 66.6576 24.4094 66.4909 24.3583C66.3262 24.3072 66.151 24.2816 65.9654 24.2816C65.6301 24.2816 65.33 24.3659 65.0648 24.5344C64.8016 24.703 64.5932 24.9501 64.4398 25.2759C64.2883 25.6017 64.2125 25.9994 64.2125 26.4691C64.2125 26.9426 64.2883 27.3422 64.4398 27.6679C64.5932 27.9937 64.8025 28.2399 65.0676 28.4066C65.3328 28.5732 65.6311 28.6566 65.9625 28.6566C66.1462 28.6566 66.3205 28.632 66.4853 28.5827C66.6519 28.5316 66.8025 28.4568 66.937 28.3583C67.0714 28.2598 67.1851 28.1395 67.2779 27.9975C67.3726 27.8536 67.4379 27.6888 67.4739 27.5032L68.3603 27.506C68.3129 27.792 68.2211 28.0553 68.0847 28.2958C67.9502 28.5344 67.7769 28.7409 67.5648 28.9151C67.3546 29.0875 67.1141 29.221 66.8432 29.3157C66.5724 29.4104 66.2769 29.4577 65.9569 29.4577C65.4531 29.4577 65.0042 29.3384 64.6103 29.0998C64.2163 28.8592 63.9057 28.5155 63.6784 28.0685C63.4531 27.6215 63.3404 27.0884 63.3404 26.4691C63.3404 25.8479 63.454 25.3147 63.6813 24.8697C63.9086 24.4227 64.2192 24.0799 64.6131 23.8412C65.007 23.6007 65.455 23.4804 65.9569 23.4804C66.2656 23.4804 66.5534 23.525 66.8205 23.614C67.0894 23.7011 67.3309 23.8299 67.5449 24.0003C67.7589 24.1689 67.936 24.3753 68.0762 24.6197C68.2163 24.8621 68.311 25.1395 68.3603 25.452ZM69.4107 29.3782V23.56H71.4846C71.9353 23.56 72.3094 23.6376 72.6067 23.7929C72.906 23.9482 73.1294 24.1632 73.2772 24.4378C73.4249 24.7106 73.4988 25.0259 73.4988 25.3839C73.4988 25.7399 73.4239 26.0534 73.2743 26.3242C73.1266 26.5931 72.9031 26.8024 72.6039 26.952C72.3065 27.1017 71.9325 27.1765 71.4817 27.1765H69.9107V26.4208H71.4022C71.6863 26.4208 71.9173 26.3801 72.0953 26.2986C72.2753 26.2172 72.4069 26.0988 72.4902 25.9435C72.5736 25.7882 72.6152 25.6017 72.6152 25.3839C72.6152 25.1642 72.5726 24.9738 72.4874 24.8128C72.4041 24.6518 72.2724 24.5287 72.0925 24.4435C71.9145 24.3564 71.6806 24.3128 71.3908 24.3128H70.2885V29.3782H69.4107ZM72.2828 26.7532L73.7203 29.3782H72.7203L71.3113 26.7532H72.2828ZM73.9071 23.56H74.9043L76.4242 26.2049H76.4867L78.0066 23.56H79.0037L76.8929 27.0941V29.3782H76.0179V27.0941L73.9071 23.56ZM79.8326 29.3782V23.56H81.9064C82.3591 23.56 82.7341 23.6424 83.0314 23.8072C83.3288 23.9719 83.5513 24.1973 83.699 24.4833C83.8468 24.7674 83.9206 25.0875 83.9206 25.4435C83.9206 25.8015 83.8458 26.1234 83.6962 26.4094C83.5485 26.6935 83.325 26.9189 83.0257 27.0856C82.7284 27.2503 82.3543 27.3327 81.9036 27.3327H80.4775V26.5884H81.824C82.11 26.5884 82.342 26.5392 82.5201 26.4407C82.6981 26.3403 82.8288 26.2039 82.9121 26.0316C82.9954 25.8592 83.0371 25.6632 83.0371 25.4435C83.0371 25.2238 82.9954 25.0287 82.9121 24.8583C82.8288 24.6878 82.6971 24.5543 82.5172 24.4577C82.3392 24.3611 82.1043 24.3128 81.8127 24.3128H80.7104V29.3782H79.8326ZM84.6628 24.3157V23.56H89.1657V24.3157H87.3503V29.3782H86.4753V24.3157H84.6628ZM91.0385 23.56V29.3782H90.1607V23.56H91.0385ZM97.3709 26.4691C97.3709 27.0903 97.2573 27.6244 97.03 28.0714C96.8027 28.5164 96.4912 28.8592 96.0953 29.0998C95.7014 29.3384 95.2535 29.4577 94.7516 29.4577C94.2478 29.4577 93.798 29.3384 93.4022 29.0998C93.0082 28.8592 92.6976 28.5155 92.4703 28.0685C92.2431 27.6215 92.1294 27.0884 92.1294 26.4691C92.1294 25.8479 92.2431 25.3147 92.4703 24.8697C92.6976 24.4227 93.0082 24.0799 93.4022 23.8412C93.798 23.6007 94.2478 23.4804 94.7516 23.4804C95.2535 23.4804 95.7014 23.6007 96.0953 23.8412C96.4912 24.0799 96.8027 24.4227 97.03 24.8697C97.2573 25.3147 97.3709 25.8479 97.3709 26.4691ZM96.5016 26.4691C96.5016 25.9956 96.4249 25.5969 96.2715 25.2731C96.12 24.9473 95.9116 24.7011 95.6465 24.5344C95.3832 24.3659 95.0849 24.2816 94.7516 24.2816C94.4164 24.2816 94.1171 24.3659 93.8539 24.5344C93.5906 24.7011 93.3823 24.9473 93.2289 25.2731C93.0774 25.5969 93.0016 25.9956 93.0016 26.4691C93.0016 26.9426 93.0774 27.3422 93.2289 27.6679C93.3823 27.9918 93.5906 28.238 93.8539 28.4066C94.1171 28.5732 94.4164 28.6566 94.7516 28.6566C95.0849 28.6566 95.3832 28.5732 95.6465 28.4066C95.9116 28.238 96.12 27.9918 96.2715 27.6679C96.4249 27.3422 96.5016 26.9426 96.5016 26.4691ZM103.161 23.56V29.3782H102.355L99.3972 25.1111H99.3432V29.3782H98.4654V23.56H99.2779L102.238 27.8327H102.292V23.56H103.161Z" fill="#1A1A1A"/>
</g>
<defs>
<clipPath id="clip0_240_3782">
<rect width="105" height="39" fill="white"/>
</clipPath>
</defs>
</svg>
