<svg width="20" height="20" viewBox="0 0 20 20" fill="none" xmlns="http://www.w3.org/2000/svg">
<path d="M18.304 8.97274L14.7884 12.0063L15.8594 16.5431C15.9185 16.7893 15.9033 17.0476 15.8157 17.2852C15.7281 17.5229 15.572 17.7292 15.3672 17.8782C15.1624 18.0272 14.918 18.1121 14.6649 18.1222C14.4119 18.1324 14.1615 18.0673 13.9454 17.9352L10.0001 15.5071L6.05242 17.9352C5.83635 18.0666 5.58625 18.131 5.33362 18.1205C5.08099 18.11 4.83712 18.0249 4.63273 17.8761C4.42834 17.7272 4.27255 17.5212 4.185 17.284C4.09744 17.0468 4.08203 16.789 4.1407 16.5431L5.2157 12.0063L1.70007 8.97274C1.5089 8.80752 1.37064 8.58963 1.30256 8.34629C1.23448 8.10296 1.2396 7.84496 1.31727 7.60452C1.39495 7.36407 1.54174 7.15184 1.73931 6.99432C1.93689 6.83681 2.17649 6.74099 2.4282 6.71884L7.03757 6.34696L8.8157 2.04384C8.91194 1.80932 9.07575 1.60872 9.2863 1.46754C9.49685 1.32636 9.74462 1.25098 9.99812 1.25098C10.2516 1.25098 10.4994 1.32636 10.7099 1.46754C10.9205 1.60872 11.0843 1.80932 11.1805 2.04384L12.9579 6.34696L17.5673 6.71884C17.8195 6.74017 18.0598 6.83545 18.2581 6.99275C18.4564 7.15005 18.6038 7.36236 18.682 7.6031C18.7601 7.84383 18.7655 8.10228 18.6974 8.34606C18.6294 8.58984 18.4909 8.80811 18.2993 8.97352L18.304 8.97274Z" fill="#48CF91"/>
</svg>
