<svg xmlns="http://www.w3.org/2000/svg" width="58" height="39" viewBox="0 0 58 39" fill="none">
<path d="M20.6634 26.4873L23.2419 11.3562H27.3661L24.7857 26.4873H20.6634ZM39.6863 11.6824C38.8694 11.3758 37.5889 11.0469 35.99 11.0469C31.9146 11.0469 29.0441 13.0991 29.0195 16.0404C28.9966 18.2146 31.069 19.4276 32.6334 20.1513C34.2388 20.8932 34.7784 21.366 34.7707 22.0282C34.7604 23.0425 33.4887 23.5057 32.3032 23.5057C30.6525 23.5057 29.7756 23.2764 28.4211 22.7117L27.8894 22.4712L27.3107 25.8584C28.274 26.2809 30.0553 26.6467 31.9049 26.6657C36.2404 26.6657 39.0548 24.6369 39.0868 21.4959C39.1022 19.7746 38.0034 18.4648 35.6239 17.3848C34.1824 16.6848 33.2996 16.2177 33.3089 15.5089C33.3089 14.88 34.0562 14.2074 35.671 14.2074C37.0195 14.1865 37.9966 14.4806 38.7578 14.7871L39.1274 14.9617L39.6863 11.6824ZM50.2996 11.356H47.1127C46.1255 11.356 45.3866 11.6254 44.9531 12.6108L38.8279 26.4773H43.1588C43.1588 26.4773 43.8667 24.6129 44.0269 24.2035C44.5002 24.2035 48.7075 24.21 49.3089 24.21C49.4322 24.7398 49.8107 26.4773 49.8107 26.4773H53.6377L50.2996 11.3555V11.356ZM45.2432 21.1267C45.5844 20.2549 46.8865 16.8969 46.8865 16.8969C46.8622 16.9372 47.2251 16.0208 47.4333 15.4527L47.712 16.7573C47.712 16.7573 48.5017 20.3692 48.6668 21.1265H45.2432V21.1267ZM17.1622 11.356L13.1245 21.6748L12.6943 19.5778C11.9425 17.1605 9.60061 14.5416 6.98242 13.2304L10.6745 26.4632L15.0382 26.4583L21.5312 11.3558L17.1622 11.3557" fill="#0E4595"/>
<path d="M9.35748 11.3555H2.70701L2.6543 11.6703C7.82829 12.9228 11.2517 15.9495 12.6732 19.5868L11.2271 12.6334C10.9775 11.6752 10.2534 11.3892 9.35764 11.3559" fill="#F2AE14"/>
</svg>