<svg width="1600" height="7132" viewBox="0 0 1600 7132" fill="none" xmlns="http://www.w3.org/2000/svg">
<g opacity="0.1">
<path d="M430.619 1L-624 739.452" stroke="#2D777A"/>
<path d="M460.156 1L-438.85 739.452" stroke="#2D777A"/>
<path d="M489.697 1L-280.353 739.452" stroke="#2D777A"/>
<path d="M519.23 1L-141.022 739.452" stroke="#2D777A"/>
<path d="M548.771 1L-15.8177 739.452" stroke="#2D777A"/>
<path d="M578.309 1L98.7522 739.452" stroke="#2D777A"/>
<path d="M607.848 1L205.231 739.452" stroke="#2D777A"/>
<path d="M637.383 1L305.509 739.452" stroke="#2D777A"/>
<path d="M666.924 1L401.065 739.452" stroke="#2D777A"/>
<path d="M696.461 1L493.057 739.452" stroke="#2D777A"/>
<path d="M726 1L582.459 739.452" stroke="#2D777A"/>
<path d="M755.535 1L670.093 739.452" stroke="#2D777A"/>
<path d="M785.074 1L756.706 739.452" stroke="#2D777A"/>
<path d="M814.613 1L842.982 739.452" stroke="#2D777A"/>
<path d="M844.152 1L929.594 739.452" stroke="#2D777A"/>
<path d="M873.691 1L1017.23 739.452" stroke="#2D777A"/>
<path d="M903.227 1L1106.63 739.452" stroke="#2D777A"/>
<path d="M932.766 1L1198.62 739.452" stroke="#2D777A"/>
<path d="M962.297 1L1294.17 739.452" stroke="#2D777A"/>
<path d="M991.84 1L1394.46 739.452" stroke="#2D777A"/>
<path d="M1021.37 1L1500.93 739.452" stroke="#2D777A"/>
<path d="M1050.92 1L1615.51 739.452" stroke="#2D777A"/>
<path d="M1080.45 1L1740.71 739.452" stroke="#2D777A"/>
<path d="M1109.99 1L1880.04 739.452" stroke="#2D777A"/>
<path d="M1139.53 1L2038.54 739.452" stroke="#2D777A"/>
<path d="M1169.07 1L2223.69 739.452" stroke="#2D777A"/>
<path d="M430.619 1H1169.07" stroke="#2D777A"/>
<path d="M430.619 1H1169.07" stroke="#2D777A"/>
<path d="M430.619 1H1169.07" stroke="#2D777A"/>
<path d="M430.619 1H1169.07" stroke="#2D777A"/>
<path d="M430.619 1.00098H1169.07" stroke="#2D777A"/>
<path d="M430.615 1.00342H1169.08" stroke="#2D777A"/>
<path d="M430.605 1.01074H1169.09" stroke="#2D777A"/>
<path d="M430.576 1.03076H1169.12" stroke="#2D777A"/>
<path d="M430.514 1.07397H1169.18" stroke="#2D777A"/>
<path d="M430.389 1.15869H1169.29" stroke="#2D777A"/>
<path d="M430.17 1.3147H1169.52" stroke="#2D777A"/>
<path d="M429.785 1.58496H1169.91" stroke="#2D777A"/>
<path d="M429.148 2.0293H1170.54" stroke="#2D777A"/>
<path d="M428.145 2.73242H1171.54" stroke="#2D777A"/>
<path d="M426.613 3.80444H1173.08" stroke="#2D777A"/>
<path d="M424.348 5.39087H1175.34" stroke="#2D777A"/>
<path d="M421.08 7.67993H1178.61" stroke="#2D777A"/>
<path d="M416.475 10.9058H1183.22" stroke="#2D777A"/>
<path d="M410.106 15.3633H1189.58" stroke="#2D777A"/>
<path d="M401.471 21.4116H1198.23" stroke="#2D777A"/>
<path d="M389.93 29.4888H1209.75" stroke="#2D777A"/>
<path d="M374.746 40.1201H1224.94" stroke="#2D777A"/>
<path d="M355.021 53.9329H1244.67" stroke="#2D777A"/>
<path d="M329.695 71.666H1269.99" stroke="#2D777A"/>
<path d="M297.533 94.1865H1302.15" stroke="#2D777A"/>
<path d="M257.092 122.504H1342.6" stroke="#2D777A"/>
<path d="M206.707 157.786H1392.99" stroke="#2D777A"/>
<path d="M144.453 201.376H1455.24" stroke="#2D777A"/>
<path d="M68.1387 254.81H1531.55" stroke="#2D777A"/>
<path d="M-24.7304 319.837H1624.42" stroke="#2D777A"/>
<path d="M-136.98 398.438H1736.68" stroke="#2D777A"/>
<path d="M-271.814 492.85H1871.51" stroke="#2D777A"/>
<path d="M-432.814 605.584H2032.51" stroke="#2D777A"/>
<path d="M-623.998 739.453H2223.7" stroke="#2D777A"/>
</g>
<g opacity="0.1">
<path d="M430.619 1477.91L-624 739.454" stroke="#2D777A"/>
<path d="M460.156 1477.91L-438.85 739.454" stroke="#2D777A"/>
<path d="M489.697 1477.91L-280.353 739.454" stroke="#2D777A"/>
<path d="M519.23 1477.91L-141.022 739.454" stroke="#2D777A"/>
<path d="M548.771 1477.91L-15.8177 739.454" stroke="#2D777A"/>
<path d="M578.309 1477.91L98.7522 739.454" stroke="#2D777A"/>
<path d="M607.848 1477.91L205.231 739.454" stroke="#2D777A"/>
<path d="M637.383 1477.91L305.509 739.454" stroke="#2D777A"/>
<path d="M666.924 1477.91L401.065 739.454" stroke="#2D777A"/>
<path d="M696.461 1477.91L493.057 739.454" stroke="#2D777A"/>
<path d="M726 1477.91L582.459 739.454" stroke="#2D777A"/>
<path d="M755.535 1477.91L670.093 739.454" stroke="#2D777A"/>
<path d="M785.074 1477.91L756.706 739.454" stroke="#2D777A"/>
<path d="M814.613 1477.91L842.982 739.454" stroke="#2D777A"/>
<path d="M844.152 1477.91L929.594 739.454" stroke="#2D777A"/>
<path d="M873.691 1477.91L1017.23 739.454" stroke="#2D777A"/>
<path d="M903.227 1477.91L1106.63 739.454" stroke="#2D777A"/>
<path d="M932.766 1477.91L1198.62 739.454" stroke="#2D777A"/>
<path d="M962.297 1477.91L1294.17 739.454" stroke="#2D777A"/>
<path d="M991.84 1477.91L1394.46 739.454" stroke="#2D777A"/>
<path d="M1021.37 1477.91L1500.93 739.454" stroke="#2D777A"/>
<path d="M1050.92 1477.91L1615.51 739.454" stroke="#2D777A"/>
<path d="M1080.45 1477.91L1740.71 739.454" stroke="#2D777A"/>
<path d="M1109.99 1477.91L1880.04 739.454" stroke="#2D777A"/>
<path d="M1139.53 1477.91L2038.54 739.454" stroke="#2D777A"/>
<path d="M1169.07 1477.91L2223.69 739.454" stroke="#2D777A"/>
<path d="M430.619 1477.91H1169.07" stroke="#2D777A"/>
<path d="M430.619 1477.91H1169.07" stroke="#2D777A"/>
<path d="M430.619 1477.91H1169.07" stroke="#2D777A"/>
<path d="M430.619 1477.91H1169.07" stroke="#2D777A"/>
<path d="M430.619 1477.9H1169.07" stroke="#2D777A"/>
<path d="M430.615 1477.9H1169.08" stroke="#2D777A"/>
<path d="M430.605 1477.9H1169.09" stroke="#2D777A"/>
<path d="M430.576 1477.88H1169.12" stroke="#2D777A"/>
<path d="M430.514 1477.83H1169.18" stroke="#2D777A"/>
<path d="M430.389 1477.75H1169.29" stroke="#2D777A"/>
<path d="M430.17 1477.59H1169.52" stroke="#2D777A"/>
<path d="M429.785 1477.32H1169.91" stroke="#2D777A"/>
<path d="M429.148 1476.88H1170.54" stroke="#2D777A"/>
<path d="M428.145 1476.17H1171.54" stroke="#2D777A"/>
<path d="M426.613 1475.1H1173.08" stroke="#2D777A"/>
<path d="M424.348 1473.51H1175.34" stroke="#2D777A"/>
<path d="M421.08 1471.23H1178.61" stroke="#2D777A"/>
<path d="M416.475 1468H1183.22" stroke="#2D777A"/>
<path d="M410.106 1463.54H1189.58" stroke="#2D777A"/>
<path d="M401.471 1457.49H1198.23" stroke="#2D777A"/>
<path d="M389.93 1449.42H1209.75" stroke="#2D777A"/>
<path d="M374.746 1438.79H1224.94" stroke="#2D777A"/>
<path d="M355.021 1424.97H1244.67" stroke="#2D777A"/>
<path d="M329.695 1407.24H1269.99" stroke="#2D777A"/>
<path d="M297.533 1384.72H1302.15" stroke="#2D777A"/>
<path d="M257.092 1356.4H1342.6" stroke="#2D777A"/>
<path d="M206.707 1321.12H1392.99" stroke="#2D777A"/>
<path d="M144.453 1277.53H1455.24" stroke="#2D777A"/>
<path d="M68.1387 1224.1H1531.55" stroke="#2D777A"/>
<path d="M-24.7304 1159.07H1624.42" stroke="#2D777A"/>
<path d="M-136.98 1080.47H1736.68" stroke="#2D777A"/>
<path d="M-271.814 986.056H1871.51" stroke="#2D777A"/>
<path d="M-432.814 873.322H2032.51" stroke="#2D777A"/>
<path d="M-623.998 739.453H2223.7" stroke="#2D777A"/>
</g>
<g opacity="0.1">
<path d="M430.619 1477.91L-624 2216.36" stroke="#2D777A"/>
<path d="M460.156 1477.91L-438.85 2216.36" stroke="#2D777A"/>
<path d="M489.697 1477.91L-280.353 2216.36" stroke="#2D777A"/>
<path d="M519.23 1477.91L-141.022 2216.36" stroke="#2D777A"/>
<path d="M548.771 1477.91L-15.8177 2216.36" stroke="#2D777A"/>
<path d="M578.309 1477.91L98.7522 2216.36" stroke="#2D777A"/>
<path d="M607.848 1477.91L205.231 2216.36" stroke="#2D777A"/>
<path d="M637.383 1477.91L305.509 2216.36" stroke="#2D777A"/>
<path d="M666.924 1477.91L401.065 2216.36" stroke="#2D777A"/>
<path d="M696.461 1477.91L493.057 2216.36" stroke="#2D777A"/>
<path d="M726 1477.91L582.459 2216.36" stroke="#2D777A"/>
<path d="M755.535 1477.91L670.093 2216.36" stroke="#2D777A"/>
<path d="M785.074 1477.91L756.706 2216.36" stroke="#2D777A"/>
<path d="M814.613 1477.91L842.982 2216.36" stroke="#2D777A"/>
<path d="M844.152 1477.91L929.594 2216.36" stroke="#2D777A"/>
<path d="M873.691 1477.91L1017.23 2216.36" stroke="#2D777A"/>
<path d="M903.227 1477.91L1106.63 2216.36" stroke="#2D777A"/>
<path d="M932.766 1477.91L1198.62 2216.36" stroke="#2D777A"/>
<path d="M962.297 1477.91L1294.17 2216.36" stroke="#2D777A"/>
<path d="M991.84 1477.91L1394.46 2216.36" stroke="#2D777A"/>
<path d="M1021.37 1477.91L1500.93 2216.36" stroke="#2D777A"/>
<path d="M1050.92 1477.91L1615.51 2216.36" stroke="#2D777A"/>
<path d="M1080.45 1477.91L1740.71 2216.36" stroke="#2D777A"/>
<path d="M1109.99 1477.91L1880.04 2216.36" stroke="#2D777A"/>
<path d="M1139.53 1477.91L2038.54 2216.36" stroke="#2D777A"/>
<path d="M1169.07 1477.91L2223.69 2216.36" stroke="#2D777A"/>
<path d="M430.619 1477.91H1169.07" stroke="#2D777A"/>
<path d="M430.619 1477.91H1169.07" stroke="#2D777A"/>
<path d="M430.619 1477.91H1169.07" stroke="#2D777A"/>
<path d="M430.619 1477.91H1169.07" stroke="#2D777A"/>
<path d="M430.619 1477.91H1169.07" stroke="#2D777A"/>
<path d="M430.615 1477.91H1169.08" stroke="#2D777A"/>
<path d="M430.605 1477.92H1169.09" stroke="#2D777A"/>
<path d="M430.576 1477.94H1169.12" stroke="#2D777A"/>
<path d="M430.514 1477.98H1169.18" stroke="#2D777A"/>
<path d="M430.389 1478.06H1169.29" stroke="#2D777A"/>
<path d="M430.17 1478.22H1169.52" stroke="#2D777A"/>
<path d="M429.785 1478.49H1169.91" stroke="#2D777A"/>
<path d="M429.148 1478.94H1170.54" stroke="#2D777A"/>
<path d="M428.145 1479.64H1171.54" stroke="#2D777A"/>
<path d="M426.613 1480.71H1173.08" stroke="#2D777A"/>
<path d="M424.348 1482.3H1175.34" stroke="#2D777A"/>
<path d="M421.08 1484.59H1178.61" stroke="#2D777A"/>
<path d="M416.475 1487.81H1183.22" stroke="#2D777A"/>
<path d="M410.106 1492.27H1189.58" stroke="#2D777A"/>
<path d="M401.471 1498.32H1198.23" stroke="#2D777A"/>
<path d="M389.93 1506.39H1209.75" stroke="#2D777A"/>
<path d="M374.746 1517.03H1224.94" stroke="#2D777A"/>
<path d="M355.021 1530.84H1244.67" stroke="#2D777A"/>
<path d="M329.695 1548.57H1269.99" stroke="#2D777A"/>
<path d="M297.533 1571.09H1302.15" stroke="#2D777A"/>
<path d="M257.092 1599.41H1342.6" stroke="#2D777A"/>
<path d="M206.707 1634.69H1392.99" stroke="#2D777A"/>
<path d="M144.453 1678.28H1455.24" stroke="#2D777A"/>
<path d="M68.1387 1731.72H1531.55" stroke="#2D777A"/>
<path d="M-24.7304 1796.74H1624.42" stroke="#2D777A"/>
<path d="M-136.98 1875.34H1736.68" stroke="#2D777A"/>
<path d="M-271.814 1969.76H1871.51" stroke="#2D777A"/>
<path d="M-432.814 2082.49H2032.51" stroke="#2D777A"/>
<path d="M-623.998 2216.36H2223.7" stroke="#2D777A"/>
</g>
<g opacity="0.1">
<path d="M430.619 2954.81L-624 2216.36" stroke="#2D777A"/>
<path d="M460.156 2954.81L-438.85 2216.36" stroke="#2D777A"/>
<path d="M489.697 2954.81L-280.353 2216.36" stroke="#2D777A"/>
<path d="M519.23 2954.81L-141.022 2216.36" stroke="#2D777A"/>
<path d="M548.771 2954.81L-15.8177 2216.36" stroke="#2D777A"/>
<path d="M578.309 2954.81L98.7522 2216.36" stroke="#2D777A"/>
<path d="M607.848 2954.81L205.231 2216.36" stroke="#2D777A"/>
<path d="M637.383 2954.81L305.509 2216.36" stroke="#2D777A"/>
<path d="M666.924 2954.81L401.065 2216.36" stroke="#2D777A"/>
<path d="M696.461 2954.81L493.057 2216.36" stroke="#2D777A"/>
<path d="M726 2954.81L582.459 2216.36" stroke="#2D777A"/>
<path d="M755.535 2954.81L670.093 2216.36" stroke="#2D777A"/>
<path d="M785.074 2954.81L756.706 2216.36" stroke="#2D777A"/>
<path d="M814.613 2954.81L842.982 2216.36" stroke="#2D777A"/>
<path d="M844.152 2954.81L929.594 2216.36" stroke="#2D777A"/>
<path d="M873.691 2954.81L1017.23 2216.36" stroke="#2D777A"/>
<path d="M903.227 2954.81L1106.63 2216.36" stroke="#2D777A"/>
<path d="M932.766 2954.81L1198.62 2216.36" stroke="#2D777A"/>
<path d="M962.297 2954.81L1294.17 2216.36" stroke="#2D777A"/>
<path d="M991.84 2954.81L1394.46 2216.36" stroke="#2D777A"/>
<path d="M1021.37 2954.81L1500.93 2216.36" stroke="#2D777A"/>
<path d="M1050.92 2954.81L1615.51 2216.36" stroke="#2D777A"/>
<path d="M1080.45 2954.81L1740.71 2216.36" stroke="#2D777A"/>
<path d="M1109.99 2954.81L1880.04 2216.36" stroke="#2D777A"/>
<path d="M1139.53 2954.81L2038.54 2216.36" stroke="#2D777A"/>
<path d="M1169.07 2954.81L2223.69 2216.36" stroke="#2D777A"/>
<path d="M430.619 2954.81H1169.07" stroke="#2D777A"/>
<path d="M430.619 2954.81H1169.07" stroke="#2D777A"/>
<path d="M430.619 2954.81H1169.07" stroke="#2D777A"/>
<path d="M430.619 2954.81H1169.07" stroke="#2D777A"/>
<path d="M430.619 2954.81H1169.07" stroke="#2D777A"/>
<path d="M430.615 2954.81H1169.08" stroke="#2D777A"/>
<path d="M430.605 2954.8H1169.09" stroke="#2D777A"/>
<path d="M430.576 2954.78H1169.12" stroke="#2D777A"/>
<path d="M430.514 2954.74H1169.18" stroke="#2D777A"/>
<path d="M430.389 2954.65H1169.29" stroke="#2D777A"/>
<path d="M430.17 2954.5H1169.52" stroke="#2D777A"/>
<path d="M429.785 2954.23H1169.91" stroke="#2D777A"/>
<path d="M429.148 2953.78H1170.54" stroke="#2D777A"/>
<path d="M428.145 2953.08H1171.54" stroke="#2D777A"/>
<path d="M426.613 2952.01H1173.08" stroke="#2D777A"/>
<path d="M424.348 2950.42H1175.34" stroke="#2D777A"/>
<path d="M421.08 2948.13H1178.61" stroke="#2D777A"/>
<path d="M416.475 2944.91H1183.22" stroke="#2D777A"/>
<path d="M410.106 2940.45H1189.58" stroke="#2D777A"/>
<path d="M401.471 2934.4H1198.23" stroke="#2D777A"/>
<path d="M389.93 2926.32H1209.75" stroke="#2D777A"/>
<path d="M374.746 2915.69H1224.94" stroke="#2D777A"/>
<path d="M355.021 2901.88H1244.67" stroke="#2D777A"/>
<path d="M329.695 2884.15H1269.99" stroke="#2D777A"/>
<path d="M297.533 2861.62H1302.15" stroke="#2D777A"/>
<path d="M257.092 2833.31H1342.6" stroke="#2D777A"/>
<path d="M206.707 2798.03H1392.99" stroke="#2D777A"/>
<path d="M144.453 2754.44H1455.24" stroke="#2D777A"/>
<path d="M68.1387 2701H1531.55" stroke="#2D777A"/>
<path d="M-24.7304 2635.97H1624.42" stroke="#2D777A"/>
<path d="M-136.98 2557.37H1736.68" stroke="#2D777A"/>
<path d="M-271.814 2462.96H1871.51" stroke="#2D777A"/>
<path d="M-432.814 2350.23H2032.51" stroke="#2D777A"/>
<path d="M-623.998 2216.36H2223.7" stroke="#2D777A"/>
</g>
<g opacity="0.1">
<path d="M430.619 2954.81L-624 3693.26" stroke="#2D777A"/>
<path d="M460.156 2954.81L-438.85 3693.26" stroke="#2D777A"/>
<path d="M489.697 2954.81L-280.353 3693.26" stroke="#2D777A"/>
<path d="M519.23 2954.81L-141.022 3693.26" stroke="#2D777A"/>
<path d="M548.771 2954.81L-15.8177 3693.26" stroke="#2D777A"/>
<path d="M578.309 2954.81L98.7522 3693.26" stroke="#2D777A"/>
<path d="M607.848 2954.81L205.231 3693.26" stroke="#2D777A"/>
<path d="M637.383 2954.81L305.509 3693.26" stroke="#2D777A"/>
<path d="M666.924 2954.81L401.065 3693.26" stroke="#2D777A"/>
<path d="M696.461 2954.81L493.057 3693.26" stroke="#2D777A"/>
<path d="M726 2954.81L582.459 3693.26" stroke="#2D777A"/>
<path d="M755.535 2954.81L670.093 3693.26" stroke="#2D777A"/>
<path d="M785.074 2954.81L756.706 3693.26" stroke="#2D777A"/>
<path d="M814.613 2954.81L842.982 3693.26" stroke="#2D777A"/>
<path d="M844.152 2954.81L929.594 3693.26" stroke="#2D777A"/>
<path d="M873.691 2954.81L1017.23 3693.26" stroke="#2D777A"/>
<path d="M903.227 2954.81L1106.63 3693.26" stroke="#2D777A"/>
<path d="M932.766 2954.81L1198.62 3693.26" stroke="#2D777A"/>
<path d="M962.297 2954.81L1294.17 3693.26" stroke="#2D777A"/>
<path d="M991.84 2954.81L1394.46 3693.26" stroke="#2D777A"/>
<path d="M1021.37 2954.81L1500.93 3693.26" stroke="#2D777A"/>
<path d="M1050.92 2954.81L1615.51 3693.26" stroke="#2D777A"/>
<path d="M1080.45 2954.81L1740.71 3693.26" stroke="#2D777A"/>
<path d="M1109.99 2954.81L1880.04 3693.26" stroke="#2D777A"/>
<path d="M1139.53 2954.81L2038.54 3693.26" stroke="#2D777A"/>
<path d="M1169.07 2954.81L2223.69 3693.26" stroke="#2D777A"/>
<path d="M430.619 2954.81H1169.07" stroke="#2D777A"/>
<path d="M430.619 2954.81H1169.07" stroke="#2D777A"/>
<path d="M430.619 2954.81H1169.07" stroke="#2D777A"/>
<path d="M430.619 2954.81H1169.07" stroke="#2D777A"/>
<path d="M430.619 2954.81H1169.07" stroke="#2D777A"/>
<path d="M430.615 2954.82H1169.08" stroke="#2D777A"/>
<path d="M430.605 2954.82H1169.09" stroke="#2D777A"/>
<path d="M430.576 2954.84H1169.12" stroke="#2D777A"/>
<path d="M430.514 2954.89H1169.18" stroke="#2D777A"/>
<path d="M430.389 2954.97H1169.29" stroke="#2D777A"/>
<path d="M430.17 2955.13H1169.52" stroke="#2D777A"/>
<path d="M429.785 2955.4H1169.91" stroke="#2D777A"/>
<path d="M429.148 2955.84H1170.54" stroke="#2D777A"/>
<path d="M428.145 2956.54H1171.54" stroke="#2D777A"/>
<path d="M426.613 2957.62H1173.08" stroke="#2D777A"/>
<path d="M424.348 2959.2H1175.34" stroke="#2D777A"/>
<path d="M421.08 2961.49H1178.61" stroke="#2D777A"/>
<path d="M416.475 2964.72H1183.22" stroke="#2D777A"/>
<path d="M410.106 2969.17H1189.58" stroke="#2D777A"/>
<path d="M401.471 2975.22H1198.23" stroke="#2D777A"/>
<path d="M389.93 2983.3H1209.75" stroke="#2D777A"/>
<path d="M374.746 2993.93H1224.94" stroke="#2D777A"/>
<path d="M355.021 3007.74H1244.67" stroke="#2D777A"/>
<path d="M329.695 3025.48H1269.99" stroke="#2D777A"/>
<path d="M297.533 3048H1302.15" stroke="#2D777A"/>
<path d="M257.092 3076.32H1342.6" stroke="#2D777A"/>
<path d="M206.707 3111.6H1392.99" stroke="#2D777A"/>
<path d="M144.453 3155.19H1455.24" stroke="#2D777A"/>
<path d="M68.1387 3208.62H1531.55" stroke="#2D777A"/>
<path d="M-24.7304 3273.65H1624.42" stroke="#2D777A"/>
<path d="M-136.98 3352.25H1736.68" stroke="#2D777A"/>
<path d="M-271.814 3446.66H1871.51" stroke="#2D777A"/>
<path d="M-432.814 3559.4H2032.51" stroke="#2D777A"/>
<path d="M-623.998 3693.26H2223.7" stroke="#2D777A"/>
</g>
<g opacity="0.1">
<path d="M430.619 4431.72L-624 3693.27" stroke="#2D777A"/>
<path d="M460.156 4431.72L-438.85 3693.27" stroke="#2D777A"/>
<path d="M489.697 4431.72L-280.353 3693.27" stroke="#2D777A"/>
<path d="M519.23 4431.72L-141.022 3693.27" stroke="#2D777A"/>
<path d="M548.771 4431.72L-15.8177 3693.27" stroke="#2D777A"/>
<path d="M578.309 4431.72L98.7522 3693.27" stroke="#2D777A"/>
<path d="M607.848 4431.72L205.231 3693.27" stroke="#2D777A"/>
<path d="M637.383 4431.72L305.509 3693.27" stroke="#2D777A"/>
<path d="M666.924 4431.72L401.065 3693.27" stroke="#2D777A"/>
<path d="M696.461 4431.72L493.057 3693.27" stroke="#2D777A"/>
<path d="M726 4431.72L582.459 3693.27" stroke="#2D777A"/>
<path d="M755.535 4431.72L670.093 3693.27" stroke="#2D777A"/>
<path d="M785.074 4431.72L756.706 3693.27" stroke="#2D777A"/>
<path d="M814.613 4431.72L842.982 3693.27" stroke="#2D777A"/>
<path d="M844.152 4431.72L929.594 3693.27" stroke="#2D777A"/>
<path d="M873.691 4431.72L1017.23 3693.27" stroke="#2D777A"/>
<path d="M903.227 4431.72L1106.63 3693.27" stroke="#2D777A"/>
<path d="M932.766 4431.72L1198.62 3693.27" stroke="#2D777A"/>
<path d="M962.297 4431.72L1294.17 3693.27" stroke="#2D777A"/>
<path d="M991.84 4431.72L1394.46 3693.27" stroke="#2D777A"/>
<path d="M1021.37 4431.72L1500.93 3693.27" stroke="#2D777A"/>
<path d="M1050.92 4431.72L1615.51 3693.27" stroke="#2D777A"/>
<path d="M1080.45 4431.72L1740.71 3693.27" stroke="#2D777A"/>
<path d="M1109.99 4431.72L1880.04 3693.27" stroke="#2D777A"/>
<path d="M1139.53 4431.72L2038.54 3693.27" stroke="#2D777A"/>
<path d="M1169.07 4431.72L2223.69 3693.27" stroke="#2D777A"/>
<path d="M430.619 4431.72H1169.07" stroke="#2D777A"/>
<path d="M430.619 4431.72H1169.07" stroke="#2D777A"/>
<path d="M430.619 4431.72H1169.07" stroke="#2D777A"/>
<path d="M430.619 4431.72H1169.07" stroke="#2D777A"/>
<path d="M430.619 4431.72H1169.07" stroke="#2D777A"/>
<path d="M430.615 4431.71H1169.08" stroke="#2D777A"/>
<path d="M430.605 4431.71H1169.09" stroke="#2D777A"/>
<path d="M430.576 4431.69H1169.12" stroke="#2D777A"/>
<path d="M430.514 4431.64H1169.18" stroke="#2D777A"/>
<path d="M430.389 4431.56H1169.29" stroke="#2D777A"/>
<path d="M430.17 4431.4H1169.52" stroke="#2D777A"/>
<path d="M429.785 4431.13H1169.91" stroke="#2D777A"/>
<path d="M429.148 4430.69H1170.54" stroke="#2D777A"/>
<path d="M428.145 4429.98H1171.54" stroke="#2D777A"/>
<path d="M426.613 4428.91H1173.08" stroke="#2D777A"/>
<path d="M424.348 4427.33H1175.34" stroke="#2D777A"/>
<path d="M421.08 4425.04H1178.61" stroke="#2D777A"/>
<path d="M416.475 4421.81H1183.22" stroke="#2D777A"/>
<path d="M410.106 4417.35H1189.58" stroke="#2D777A"/>
<path d="M401.471 4411.31H1198.23" stroke="#2D777A"/>
<path d="M389.93 4403.23H1209.75" stroke="#2D777A"/>
<path d="M374.746 4392.6H1224.94" stroke="#2D777A"/>
<path d="M355.021 4378.78H1244.67" stroke="#2D777A"/>
<path d="M329.695 4361.05H1269.99" stroke="#2D777A"/>
<path d="M297.533 4338.53H1302.15" stroke="#2D777A"/>
<path d="M257.092 4310.21H1342.6" stroke="#2D777A"/>
<path d="M206.707 4274.93H1392.99" stroke="#2D777A"/>
<path d="M144.453 4231.34H1455.24" stroke="#2D777A"/>
<path d="M68.1387 4177.91H1531.55" stroke="#2D777A"/>
<path d="M-24.7304 4112.88H1624.42" stroke="#2D777A"/>
<path d="M-136.98 4034.28H1736.68" stroke="#2D777A"/>
<path d="M-271.814 3939.87H1871.51" stroke="#2D777A"/>
<path d="M-432.814 3827.13H2032.51" stroke="#2D777A"/>
<path d="M-623.998 3693.26H2223.7" stroke="#2D777A"/>
</g>
<g opacity="0.1">
<path d="M430.619 4431.72L-624 5170.17" stroke="#2D777A"/>
<path d="M460.156 4431.72L-438.85 5170.17" stroke="#2D777A"/>
<path d="M489.697 4431.72L-280.353 5170.17" stroke="#2D777A"/>
<path d="M519.23 4431.72L-141.022 5170.17" stroke="#2D777A"/>
<path d="M548.771 4431.72L-15.8177 5170.17" stroke="#2D777A"/>
<path d="M578.309 4431.72L98.7522 5170.17" stroke="#2D777A"/>
<path d="M607.848 4431.72L205.231 5170.17" stroke="#2D777A"/>
<path d="M637.383 4431.72L305.509 5170.17" stroke="#2D777A"/>
<path d="M666.924 4431.72L401.065 5170.17" stroke="#2D777A"/>
<path d="M696.461 4431.72L493.057 5170.17" stroke="#2D777A"/>
<path d="M726 4431.72L582.459 5170.17" stroke="#2D777A"/>
<path d="M755.535 4431.72L670.093 5170.17" stroke="#2D777A"/>
<path d="M785.074 4431.72L756.706 5170.17" stroke="#2D777A"/>
<path d="M814.613 4431.72L842.982 5170.17" stroke="#2D777A"/>
<path d="M844.152 4431.72L929.594 5170.17" stroke="#2D777A"/>
<path d="M873.691 4431.72L1017.23 5170.17" stroke="#2D777A"/>
<path d="M903.227 4431.72L1106.63 5170.17" stroke="#2D777A"/>
<path d="M932.766 4431.72L1198.62 5170.17" stroke="#2D777A"/>
<path d="M962.297 4431.72L1294.17 5170.17" stroke="#2D777A"/>
<path d="M991.84 4431.72L1394.46 5170.17" stroke="#2D777A"/>
<path d="M1021.37 4431.72L1500.93 5170.17" stroke="#2D777A"/>
<path d="M1050.92 4431.72L1615.51 5170.17" stroke="#2D777A"/>
<path d="M1080.45 4431.72L1740.71 5170.17" stroke="#2D777A"/>
<path d="M1109.99 4431.72L1880.04 5170.17" stroke="#2D777A"/>
<path d="M1139.53 4431.72L2038.54 5170.17" stroke="#2D777A"/>
<path d="M1169.07 4431.72L2223.69 5170.17" stroke="#2D777A"/>
<path d="M430.619 4431.72H1169.07" stroke="#2D777A"/>
<path d="M430.619 4431.72H1169.07" stroke="#2D777A"/>
<path d="M430.619 4431.72H1169.07" stroke="#2D777A"/>
<path d="M430.619 4431.72H1169.07" stroke="#2D777A"/>
<path d="M430.619 4431.72H1169.07" stroke="#2D777A"/>
<path d="M430.615 4431.72H1169.08" stroke="#2D777A"/>
<path d="M430.605 4431.73H1169.09" stroke="#2D777A"/>
<path d="M430.576 4431.75H1169.12" stroke="#2D777A"/>
<path d="M430.514 4431.79H1169.18" stroke="#2D777A"/>
<path d="M430.389 4431.88H1169.29" stroke="#2D777A"/>
<path d="M430.17 4432.03H1169.52" stroke="#2D777A"/>
<path d="M429.785 4432.3H1169.91" stroke="#2D777A"/>
<path d="M429.148 4432.75H1170.54" stroke="#2D777A"/>
<path d="M428.145 4433.45H1171.54" stroke="#2D777A"/>
<path d="M426.613 4434.52H1173.08" stroke="#2D777A"/>
<path d="M424.348 4436.11H1175.34" stroke="#2D777A"/>
<path d="M421.08 4438.4H1178.61" stroke="#2D777A"/>
<path d="M416.475 4441.62H1183.22" stroke="#2D777A"/>
<path d="M410.106 4446.08H1189.58" stroke="#2D777A"/>
<path d="M401.471 4452.13H1198.23" stroke="#2D777A"/>
<path d="M389.93 4460.21H1209.75" stroke="#2D777A"/>
<path d="M374.746 4470.84H1224.94" stroke="#2D777A"/>
<path d="M355.021 4484.65H1244.67" stroke="#2D777A"/>
<path d="M329.695 4502.38H1269.99" stroke="#2D777A"/>
<path d="M297.533 4524.9H1302.15" stroke="#2D777A"/>
<path d="M257.092 4553.22H1342.6" stroke="#2D777A"/>
<path d="M206.707 4588.5H1392.99" stroke="#2D777A"/>
<path d="M144.453 4632.09H1455.24" stroke="#2D777A"/>
<path d="M68.1387 4685.53H1531.55" stroke="#2D777A"/>
<path d="M-24.7304 4750.55H1624.42" stroke="#2D777A"/>
<path d="M-136.98 4829.16H1736.68" stroke="#2D777A"/>
<path d="M-271.814 4923.57H1871.51" stroke="#2D777A"/>
<path d="M-432.814 5036.3H2032.51" stroke="#2D777A"/>
<path d="M-623.998 5170.17H2223.7" stroke="#2D777A"/>
</g>
<g opacity="0.1">
<path d="M430.619 5908.62L-624 5170.17" stroke="#2D777A"/>
<path d="M460.156 5908.62L-438.85 5170.17" stroke="#2D777A"/>
<path d="M489.697 5908.62L-280.353 5170.17" stroke="#2D777A"/>
<path d="M519.23 5908.62L-141.022 5170.17" stroke="#2D777A"/>
<path d="M548.771 5908.62L-15.8177 5170.17" stroke="#2D777A"/>
<path d="M578.309 5908.62L98.7522 5170.17" stroke="#2D777A"/>
<path d="M607.848 5908.62L205.231 5170.17" stroke="#2D777A"/>
<path d="M637.383 5908.62L305.509 5170.17" stroke="#2D777A"/>
<path d="M666.924 5908.62L401.065 5170.17" stroke="#2D777A"/>
<path d="M696.461 5908.62L493.057 5170.17" stroke="#2D777A"/>
<path d="M726 5908.62L582.459 5170.17" stroke="#2D777A"/>
<path d="M755.535 5908.62L670.093 5170.17" stroke="#2D777A"/>
<path d="M785.074 5908.62L756.706 5170.17" stroke="#2D777A"/>
<path d="M814.613 5908.62L842.982 5170.17" stroke="#2D777A"/>
<path d="M844.152 5908.62L929.594 5170.17" stroke="#2D777A"/>
<path d="M873.691 5908.62L1017.23 5170.17" stroke="#2D777A"/>
<path d="M903.227 5908.62L1106.63 5170.17" stroke="#2D777A"/>
<path d="M932.766 5908.62L1198.62 5170.17" stroke="#2D777A"/>
<path d="M962.297 5908.62L1294.17 5170.17" stroke="#2D777A"/>
<path d="M991.84 5908.62L1394.46 5170.17" stroke="#2D777A"/>
<path d="M1021.37 5908.62L1500.93 5170.17" stroke="#2D777A"/>
<path d="M1050.92 5908.62L1615.51 5170.17" stroke="#2D777A"/>
<path d="M1080.45 5908.62L1740.71 5170.17" stroke="#2D777A"/>
<path d="M1109.99 5908.62L1880.04 5170.17" stroke="#2D777A"/>
<path d="M1139.53 5908.62L2038.54 5170.17" stroke="#2D777A"/>
<path d="M1169.07 5908.62L2223.69 5170.17" stroke="#2D777A"/>
<path d="M430.619 5908.62H1169.07" stroke="#2D777A"/>
<path d="M430.619 5908.62H1169.07" stroke="#2D777A"/>
<path d="M430.619 5908.62H1169.07" stroke="#2D777A"/>
<path d="M430.619 5908.62H1169.07" stroke="#2D777A"/>
<path d="M430.619 5908.62H1169.07" stroke="#2D777A"/>
<path d="M430.615 5908.62H1169.08" stroke="#2D777A"/>
<path d="M430.605 5908.61H1169.09" stroke="#2D777A"/>
<path d="M430.576 5908.59H1169.12" stroke="#2D777A"/>
<path d="M430.514 5908.55H1169.18" stroke="#2D777A"/>
<path d="M430.389 5908.46H1169.29" stroke="#2D777A"/>
<path d="M430.17 5908.31H1169.52" stroke="#2D777A"/>
<path d="M429.785 5908.04H1169.91" stroke="#2D777A"/>
<path d="M429.148 5907.59H1170.54" stroke="#2D777A"/>
<path d="M428.145 5906.89H1171.54" stroke="#2D777A"/>
<path d="M426.613 5905.82H1173.08" stroke="#2D777A"/>
<path d="M424.348 5904.23H1175.34" stroke="#2D777A"/>
<path d="M421.08 5901.94H1178.61" stroke="#2D777A"/>
<path d="M416.475 5898.72H1183.22" stroke="#2D777A"/>
<path d="M410.106 5894.26H1189.58" stroke="#2D777A"/>
<path d="M401.471 5888.21H1198.23" stroke="#2D777A"/>
<path d="M389.93 5880.13H1209.75" stroke="#2D777A"/>
<path d="M374.746 5869.5H1224.94" stroke="#2D777A"/>
<path d="M355.021 5855.69H1244.67" stroke="#2D777A"/>
<path d="M329.695 5837.96H1269.99" stroke="#2D777A"/>
<path d="M297.533 5815.44H1302.15" stroke="#2D777A"/>
<path d="M257.092 5787.12H1342.6" stroke="#2D777A"/>
<path d="M206.707 5751.84H1392.99" stroke="#2D777A"/>
<path d="M144.453 5708.25H1455.24" stroke="#2D777A"/>
<path d="M68.1387 5654.81H1531.55" stroke="#2D777A"/>
<path d="M-24.7304 5589.79H1624.42" stroke="#2D777A"/>
<path d="M-136.98 5511.18H1736.68" stroke="#2D777A"/>
<path d="M-271.814 5416.77H1871.51" stroke="#2D777A"/>
<path d="M-432.814 5304.04H2032.51" stroke="#2D777A"/>
<path d="M-623.998 5170.17H2223.7" stroke="#2D777A"/>
</g>
<g opacity="0.1">
<path d="M430.619 5908.62L-624 6647.08" stroke="#2D777A"/>
<path d="M460.156 5908.62L-438.85 6647.08" stroke="#2D777A"/>
<path d="M489.697 5908.62L-280.353 6647.08" stroke="#2D777A"/>
<path d="M519.23 5908.62L-141.022 6647.08" stroke="#2D777A"/>
<path d="M548.771 5908.62L-15.8177 6647.08" stroke="#2D777A"/>
<path d="M578.309 5908.62L98.7522 6647.08" stroke="#2D777A"/>
<path d="M607.848 5908.62L205.231 6647.08" stroke="#2D777A"/>
<path d="M637.383 5908.62L305.509 6647.08" stroke="#2D777A"/>
<path d="M666.924 5908.62L401.065 6647.08" stroke="#2D777A"/>
<path d="M696.461 5908.62L493.057 6647.08" stroke="#2D777A"/>
<path d="M726 5908.62L582.459 6647.08" stroke="#2D777A"/>
<path d="M755.535 5908.62L670.093 6647.08" stroke="#2D777A"/>
<path d="M785.074 5908.62L756.706 6647.08" stroke="#2D777A"/>
<path d="M814.613 5908.62L842.982 6647.08" stroke="#2D777A"/>
<path d="M844.152 5908.62L929.594 6647.08" stroke="#2D777A"/>
<path d="M873.691 5908.62L1017.23 6647.08" stroke="#2D777A"/>
<path d="M903.227 5908.62L1106.63 6647.08" stroke="#2D777A"/>
<path d="M932.766 5908.62L1198.62 6647.08" stroke="#2D777A"/>
<path d="M962.297 5908.62L1294.17 6647.08" stroke="#2D777A"/>
<path d="M991.84 5908.62L1394.46 6647.08" stroke="#2D777A"/>
<path d="M1021.37 5908.62L1500.93 6647.08" stroke="#2D777A"/>
<path d="M1050.92 5908.62L1615.51 6647.08" stroke="#2D777A"/>
<path d="M1080.45 5908.62L1740.71 6647.08" stroke="#2D777A"/>
<path d="M1109.99 5908.62L1880.04 6647.08" stroke="#2D777A"/>
<path d="M1139.53 5908.62L2038.54 6647.08" stroke="#2D777A"/>
<path d="M1169.07 5908.62L2223.69 6647.08" stroke="#2D777A"/>
<path d="M430.619 5908.62H1169.07" stroke="#2D777A"/>
<path d="M430.619 5908.62H1169.07" stroke="#2D777A"/>
<path d="M430.619 5908.62H1169.07" stroke="#2D777A"/>
<path d="M430.619 5908.62H1169.07" stroke="#2D777A"/>
<path d="M430.619 5908.62H1169.07" stroke="#2D777A"/>
<path d="M430.615 5908.63H1169.08" stroke="#2D777A"/>
<path d="M430.605 5908.63H1169.09" stroke="#2D777A"/>
<path d="M430.576 5908.65H1169.12" stroke="#2D777A"/>
<path d="M430.514 5908.7H1169.18" stroke="#2D777A"/>
<path d="M430.389 5908.78H1169.29" stroke="#2D777A"/>
<path d="M430.17 5908.94H1169.52" stroke="#2D777A"/>
<path d="M429.785 5909.21H1169.91" stroke="#2D777A"/>
<path d="M429.148 5909.65H1170.54" stroke="#2D777A"/>
<path d="M428.145 5910.36H1171.54" stroke="#2D777A"/>
<path d="M426.613 5911.43H1173.08" stroke="#2D777A"/>
<path d="M424.348 5913.01H1175.34" stroke="#2D777A"/>
<path d="M421.08 5915.3H1178.61" stroke="#2D777A"/>
<path d="M416.475 5918.53H1183.22" stroke="#2D777A"/>
<path d="M410.106 5922.99H1189.58" stroke="#2D777A"/>
<path d="M401.471 5929.03H1198.23" stroke="#2D777A"/>
<path d="M389.93 5937.11H1209.75" stroke="#2D777A"/>
<path d="M374.746 5947.74H1224.94" stroke="#2D777A"/>
<path d="M355.021 5961.56H1244.67" stroke="#2D777A"/>
<path d="M329.695 5979.29H1269.99" stroke="#2D777A"/>
<path d="M297.533 6001.81H1302.15" stroke="#2D777A"/>
<path d="M257.092 6030.13H1342.6" stroke="#2D777A"/>
<path d="M206.707 6065.41H1392.99" stroke="#2D777A"/>
<path d="M144.453 6109H1455.24" stroke="#2D777A"/>
<path d="M68.1387 6162.43H1531.55" stroke="#2D777A"/>
<path d="M-24.7304 6227.46H1624.42" stroke="#2D777A"/>
<path d="M-136.98 6306.06H1736.68" stroke="#2D777A"/>
<path d="M-271.814 6400.47H1871.51" stroke="#2D777A"/>
<path d="M-432.814 6513.21H2032.51" stroke="#2D777A"/>
<path d="M-623.998 6647.08H2223.7" stroke="#2D777A"/>
</g>
<g opacity="0.1">
<path d="M430.619 7385.53L-624 6647.08" stroke="#2D777A"/>
<path d="M460.156 7385.53L-438.85 6647.08" stroke="#2D777A"/>
<path d="M489.697 7385.53L-280.353 6647.08" stroke="#2D777A"/>
<path d="M519.23 7385.53L-141.022 6647.08" stroke="#2D777A"/>
<path d="M548.771 7385.53L-15.8177 6647.08" stroke="#2D777A"/>
<path d="M578.309 7385.53L98.7522 6647.08" stroke="#2D777A"/>
<path d="M607.848 7385.53L205.231 6647.08" stroke="#2D777A"/>
<path d="M637.383 7385.53L305.509 6647.08" stroke="#2D777A"/>
<path d="M666.924 7385.53L401.065 6647.08" stroke="#2D777A"/>
<path d="M696.461 7385.53L493.057 6647.08" stroke="#2D777A"/>
<path d="M726 7385.53L582.459 6647.08" stroke="#2D777A"/>
<path d="M755.535 7385.53L670.093 6647.08" stroke="#2D777A"/>
<path d="M785.074 7385.53L756.706 6647.08" stroke="#2D777A"/>
<path d="M814.613 7385.53L842.982 6647.08" stroke="#2D777A"/>
<path d="M844.152 7385.53L929.594 6647.08" stroke="#2D777A"/>
<path d="M873.691 7385.53L1017.23 6647.08" stroke="#2D777A"/>
<path d="M903.227 7385.53L1106.63 6647.08" stroke="#2D777A"/>
<path d="M932.766 7385.53L1198.62 6647.08" stroke="#2D777A"/>
<path d="M962.297 7385.53L1294.17 6647.08" stroke="#2D777A"/>
<path d="M991.84 7385.53L1394.46 6647.08" stroke="#2D777A"/>
<path d="M1021.37 7385.53L1500.93 6647.08" stroke="#2D777A"/>
<path d="M1050.92 7385.53L1615.51 6647.08" stroke="#2D777A"/>
<path d="M1080.45 7385.53L1740.71 6647.08" stroke="#2D777A"/>
<path d="M1109.99 7385.53L1880.04 6647.08" stroke="#2D777A"/>
<path d="M1139.53 7385.53L2038.54 6647.08" stroke="#2D777A"/>
<path d="M1169.07 7385.53L2223.69 6647.08" stroke="#2D777A"/>
<path d="M68.1387 7131.72H1531.55" stroke="#2D777A"/>
<path d="M-24.7304 7066.69H1624.42" stroke="#2D777A"/>
<path d="M-136.98 6988.09H1736.68" stroke="#2D777A"/>
<path d="M-271.814 6893.68H1871.51" stroke="#2D777A"/>
<path d="M-432.814 6780.95H2032.51" stroke="#2D777A"/>
<path d="M-623.998 6647.08H2223.7" stroke="#2D777A"/>
</g>
</svg>
