<svg width="52" height="38" viewBox="0 0 52 38" fill="none" xmlns="http://www.w3.org/2000/svg">
<g id="icon_logo">
<g id="Vector">
<path d="M18.3364 14.0991L14.9802 17.4229C14.3396 18.0573 14.3396 19.086 14.9802 19.7204L18.6771 23.3816C19.3655 24.0634 21.1066 23.4178 21.7951 22.736L24.6495 19.9091C24.9571 19.6045 25.1299 19.1912 25.1299 18.7604L25.1299 16.9836C25.1299 14.2918 27.3333 12.1097 30.0513 12.1097L34.8533 12.1097C37.5713 12.1097 39.7747 14.2918 39.7747 16.9836L39.7747 21.7393C39.7747 24.431 37.5713 26.6131 34.8533 26.6131H33.0594C32.6243 26.6131 32.2071 26.7843 31.8994 27.089L29.0449 29.9159C28.3565 30.5977 27.7046 32.322 28.393 33.0038L32.0899 36.665C32.7305 37.2995 33.7692 37.2995 34.4098 36.665L37.977 33.1323C38.3999 32.7135 38.5393 32.1012 38.4752 31.5123C38.3018 29.9192 38.8316 28.2652 40.0647 27.0439C41.2979 25.8227 42.968 25.298 44.5766 25.4697C45.1713 25.5332 45.7895 25.3952 46.2124 24.9763L51.5195 19.7204C52.1602 19.086 52.1602 18.0573 51.5195 17.4229L46.7986 12.7475C46.3562 12.3093 45.7023 12.1812 45.0818 12.2614C43.5575 12.4585 41.9608 11.9771 40.7897 10.8173C39.6187 9.65758 39.1326 8.07631 39.3316 6.56664C39.4126 5.95215 39.2832 5.30462 38.8407 4.86642L34.4098 0.478284C33.7692 -0.156173 32.7305 -0.156172 32.0899 0.478284L26.9937 5.52525C26.5361 5.97847 26.4124 6.65322 26.5237 7.28462C26.8234 8.98429 26.3105 10.797 24.985 12.1097C23.6595 13.4224 21.8291 13.9304 20.1129 13.6336C19.4753 13.5233 18.794 13.6459 18.3364 14.0991Z" fill="#E3FF34"/>
<path d="M14.234 4.66366L17.5902 1.33987C18.2308 0.705416 19.2695 0.705415 19.9101 1.33987L23.607 5.00106C24.2954 5.68288 23.6435 7.40717 22.9551 8.08898L20.1007 10.9158C19.793 11.2205 19.3758 11.3917 18.9407 11.3917L17.1466 11.3917C14.4286 11.3917 12.2253 13.5738 12.2253 16.2656L12.2253 21.0212C12.2253 23.713 14.4286 25.8951 17.1466 25.8951L21.9486 25.8951C24.6666 25.8951 26.87 23.713 26.87 21.0212V19.2446C26.87 18.8137 27.0428 18.4005 27.3505 18.0958L30.2049 15.2689C30.8934 14.5871 32.6345 13.9414 33.3229 14.6233L37.0198 18.2845C37.6604 18.9189 37.6604 19.9476 37.0198 20.582L33.4527 24.1147C33.0298 24.5336 32.4115 24.6717 31.8169 24.6082C30.2082 24.4364 28.5381 24.9611 27.305 26.1823C26.0718 27.4036 25.542 29.0576 25.7154 30.6507C25.7796 31.2396 25.6401 31.8519 25.2172 32.2707L19.9101 37.5266C19.2695 38.1611 18.2308 38.1611 17.5902 37.5266L12.8693 32.8513C12.4268 32.4131 12.2974 31.7655 12.3784 31.151C12.5774 29.6414 12.0914 28.0601 10.9203 26.9003C9.74922 25.7406 8.15253 25.2592 6.62816 25.4563C6.00768 25.5365 5.35384 25.4084 4.91137 24.9702L0.480478 20.582C-0.16016 19.9476 -0.160159 18.9189 0.480479 18.2844L5.57662 13.2375C6.03426 12.7843 6.71558 12.6618 7.35313 12.772C9.06936 13.0688 10.8998 12.5609 12.2253 11.2481C13.5508 9.93543 14.0637 8.1227 13.764 6.42303C13.6526 5.79163 13.7763 5.11688 14.234 4.66366Z" fill="#E3FF34"/>
</g>
</g>
</svg>
