<svg width="36" height="36" viewBox="0 0 36 36" fill="none" xmlns="http://www.w3.org/2000/svg">
<path d="M21.75 3.625C21.75 5.62703 20.127 7.25 18.125 7.25C16.123 7.25 14.5 5.62703 14.5 3.625C14.5 1.62297 16.123 0 18.125 0C20.127 0 21.75 1.62297 21.75 3.625Z" fill="#E3FF34"/>
<path fill-rule="evenodd" clip-rule="evenodd" d="M23.75 19.272C23.75 17.9786 22.8187 17.0979 21.7722 16.576L21.75 16.565V12.0672L28.2891 5.82473C28.8171 5.32068 28.8365 4.48403 28.3324 3.95603C27.8284 3.42803 26.9917 3.40862 26.4637 3.91267L20.611 9.5H15.3841L9.53137 3.91267C9.00337 3.40862 8.16672 3.42803 7.66267 3.95603C7.15861 4.48403 7.17802 5.32068 7.70602 5.82473C9.96533 7.98158 12.1634 10.2369 14.5 12.3093V16.3466C14.4097 16.3848 14.3211 16.4249 14.2345 16.467C13.1509 16.9939 12.25 17.9081 12.25 19.272V21.0964C12.0956 20.9974 11.9353 20.9073 11.7722 20.826C10.7089 20.2957 9.34201 20.0269 8.01408 20.0019C6.688 19.977 5.31095 20.1936 4.23455 20.717C3.15094 21.2439 2.25 22.1581 2.25 23.522V31.2918C2.25 32.645 3.13783 33.5887 4.21234 34.1559C5.28476 34.7221 6.66169 34.9915 7.9953 34.9998C9.32834 35.0081 10.7087 34.7563 11.7855 34.1923C12.2508 33.9486 12.6781 33.6339 13.0145 33.2455C13.3472 33.6163 13.7635 33.919 14.2123 34.1559C15.2848 34.7221 16.6617 34.9915 17.9953 34.9998C19.3283 35.0081 20.7087 34.7563 21.7855 34.1923C22.2508 33.9486 22.6781 33.6339 23.0145 33.2455C23.3472 33.6163 23.7635 33.919 24.2123 34.1559C25.2848 34.7221 26.6617 34.9915 27.9953 34.9998C29.3283 35.0081 30.7087 34.7563 31.7855 34.1923C32.8712 33.6236 33.75 32.6688 33.75 31.2918V27.772C33.75 26.4786 32.8187 25.5979 31.7722 25.076C30.7089 24.5457 29.342 24.2769 28.0141 24.2519C26.688 24.227 25.311 24.4436 24.2345 24.967C24.0678 25.0481 23.9054 25.1383 23.75 25.2379V19.272ZM13.75 23.529C13.75 24.1165 14.1122 24.644 14.9127 25.0667C15.7152 25.4904 16.8383 25.7297 18.0047 25.737C19.1717 25.7443 20.2913 25.5188 21.0895 25.1007C21.8788 24.6873 22.25 24.1553 22.25 23.529V21.8957C22.1011 21.9964 21.9455 22.0886 21.7855 22.1725C20.7087 22.7365 19.3283 22.9883 17.9953 22.98C16.6617 22.9716 15.2848 22.7023 14.2123 22.1361C14.0534 22.0522 13.8985 21.96 13.75 21.8595V23.529ZM21.0895 20.8437C21.8788 20.4303 22.25 19.8983 22.25 19.272C22.25 18.8124 21.9313 18.3315 21.1028 17.9183C20.2911 17.5135 19.158 17.2737 17.9859 17.2517C16.812 17.2296 15.689 17.4277 14.8905 17.816C14.0991 18.2008 13.75 18.6952 13.75 19.272C13.75 19.8595 14.1122 20.387 14.9127 20.8096C15.7152 21.2334 16.8383 21.4727 18.0047 21.48C19.1717 21.4873 20.2913 21.2618 21.0895 20.8437ZM22.25 26.1527C22.1011 26.2534 21.9455 26.3457 21.7855 26.4295C20.7087 26.9935 19.3283 27.2453 17.9953 27.237C16.6617 27.2286 15.2848 26.9593 14.2123 26.3931C14.0534 26.3092 13.8985 26.2171 13.75 26.1166V27.786C13.75 28.3736 14.1122 28.9011 14.9127 29.3237C15.7152 29.7474 16.8383 29.9867 18.0047 29.994C19.1717 30.0014 20.2913 29.7759 21.0895 29.3578C21.8788 28.9443 22.25 28.4123 22.25 27.786V26.1527ZM22.25 30.4097C22.1011 30.5105 21.9455 30.6027 21.7855 30.6865C20.7087 31.2505 19.3283 31.5024 17.9953 31.494C16.6617 31.4857 15.2848 31.2163 14.2123 30.6502C14.0534 30.5662 13.8985 30.4741 13.75 30.3736V31.2918C13.75 31.8793 14.1122 32.4068 14.9127 32.8295C15.7152 33.2532 16.8383 33.4925 18.0047 33.4998C19.1717 33.5071 20.2913 33.2816 21.0895 32.8635C21.8788 32.4501 22.25 31.9181 22.25 31.2918V30.4097ZM23.75 31.2918C23.75 31.8793 24.1122 32.4068 24.9127 32.8295C25.7152 33.2532 26.8383 33.4925 28.0047 33.4998C29.1717 33.5071 30.2913 33.2816 31.0895 32.8635C31.8788 32.4501 32.25 31.9181 32.25 31.2918V30.4097C32.1011 30.5105 31.9455 30.6027 31.7855 30.6865C30.7087 31.2505 29.3283 31.5024 27.9953 31.494C26.6617 31.4857 25.2848 31.2163 24.2123 30.6502C24.0534 30.5662 23.8985 30.4741 23.75 30.3736V31.2918ZM31.0895 29.3578C31.8788 28.9443 32.25 28.4123 32.25 27.786V27.772C32.25 27.3124 31.9313 26.8315 31.1028 26.4183C30.2911 26.0135 29.158 25.7737 27.9859 25.7517C26.812 25.7296 25.689 25.9277 24.8905 26.316C24.0991 26.7008 23.75 27.1952 23.75 27.772V27.786C23.75 28.3736 24.1122 28.9011 24.9127 29.3237C25.7152 29.7474 26.8383 29.9867 28.0047 29.994C29.1717 30.0014 30.2913 29.7759 31.0895 29.3578ZM12.25 31.2918V30.4097C12.1011 30.5105 11.9455 30.6027 11.7855 30.6865C10.7087 31.2505 9.32834 31.5024 7.9953 31.494C6.66169 31.4857 5.28476 31.2163 4.21234 30.6502C4.05338 30.5662 3.89851 30.4741 3.75 30.3736V31.2918C3.75 31.8793 4.11217 32.4068 4.91266 32.8295C5.71524 33.2532 6.83831 33.4925 8.0047 33.4998C9.17166 33.5071 10.2913 33.2816 11.0895 32.8635C11.8788 32.4501 12.25 31.9181 12.25 31.2918ZM3.75 27.786C3.75 28.3736 4.11217 28.9011 4.91266 29.3237C5.71524 29.7474 6.83831 29.9867 8.0047 29.994C9.17166 30.0014 10.2913 29.7759 11.0895 29.3578C11.8788 28.9443 12.25 28.4123 12.25 27.786V26.1527C12.1011 26.2534 11.9455 26.3457 11.7855 26.4295C10.7087 26.9935 9.32834 27.2453 7.9953 27.237C6.66169 27.2286 5.28476 26.9593 4.21234 26.3931C4.05338 26.3092 3.89851 26.2171 3.75 26.1166V27.786ZM3.75 23.529C3.75 24.1165 4.11217 24.644 4.91266 25.0667C5.71524 25.4904 6.83831 25.7297 8.0047 25.737C9.17166 25.7443 10.2913 25.5188 11.0895 25.1007C11.8788 24.6873 12.25 24.1553 12.25 23.529V23.522C12.25 23.0624 11.9313 22.5815 11.1028 22.1683C10.2911 21.7635 9.15799 21.5237 7.98592 21.5017C6.812 21.4796 5.68905 21.6777 4.89045 22.066C4.09906 22.4508 3.75 22.9452 3.75 23.522V23.529Z" fill="#E3FF34"/>
</svg>
