<svg width="36" height="36" viewBox="0 0 36 36" fill="none" xmlns="http://www.w3.org/2000/svg">
<g clip-path="url(#clip0_592_1210)">
<path d="M9.67581 28.9869C6.26502 25.77 5.93438 20.5811 5.93438 20.5811C5.93438 20.5811 11.1337 20.6079 14.5445 23.8248L14.5445 31.628C12.9644 31.1745 11.1525 30.3797 9.67581 28.9869Z" fill="#E3FF34"/>
<path fill-rule="evenodd" clip-rule="evenodd" d="M30.036 20.5811C30.036 20.5811 29.7054 25.77 26.2946 28.9869C23.681 31.4519 20.9206 32.1094 19.25 32.25L17.8763 32.25L16.75 32.25L16.75 20.4273C12.5181 19.8761 9.25005 16.2572 9.25006 11.875C9.25006 7.11157 13.1116 3.25003 17.8751 3.25003C22.6385 3.25003 26.5001 7.11157 26.5001 11.875C26.5001 16.1705 23.36 19.7326 19.25 20.391L19.25 26.7841C19.7797 25.7478 20.4858 24.7114 21.4258 23.8248C24.8366 20.6079 30.036 20.5811 30.036 20.5811ZM14.7914 15.8306C15.1331 16.2926 15.5759 16.6367 16.1197 16.8629C16.5103 17.0239 16.9266 17.1276 17.3685 17.174L17.3685 18.25L18.5091 18.25L18.5091 17.1786C19.0374 17.1347 19.5018 17.0294 19.9023 16.8629C20.4461 16.6367 20.86 16.3191 21.1439 15.91C21.4279 15.4961 21.5698 15.0077 21.5698 14.4446C21.5698 13.8286 21.3846 13.3161 21.014 12.907C20.6434 12.4979 20.1117 12.1587 19.4187 11.8892L17.3685 11.0951C16.998 10.9555 16.7237 10.8112 16.5456 10.662C16.3723 10.508 16.2857 10.301 16.2857 10.0412C16.2857 9.73796 16.4253 9.48771 16.7044 9.2904C16.9835 9.08828 17.3637 8.98721 17.845 8.98721C18.3888 8.98721 18.7978 9.10031 19.0722 9.32649C19.3465 9.54787 19.5149 9.84384 19.5775 10.2144L21.2522 10.2144C21.1752 9.34334 20.8504 8.66478 20.2777 8.17871C19.8323 7.79692 19.2427 7.5636 18.5091 7.47876L18.5091 6.37503L17.3685 6.37503L17.3685 7.45884C16.5164 7.51979 15.8355 7.75012 15.3256 8.14984C14.7241 8.62146 14.4233 9.23746 14.4233 9.99784C14.4233 10.6572 14.6158 11.1745 15.0008 11.5499C15.3858 11.9252 15.9392 12.2549 16.6611 12.5388L18.5091 13.2752C18.9278 13.4243 19.231 13.588 19.4187 13.766C19.6112 13.9441 19.7074 14.1895 19.7074 14.5023C19.7074 14.7382 19.628 14.9427 19.4692 15.1159C19.3152 15.2844 19.101 15.4143 18.8267 15.5057C18.5572 15.5972 18.2492 15.6429 17.9027 15.6429C17.5418 15.6429 17.2097 15.5876 16.9065 15.4769C16.6082 15.3614 16.3699 15.1881 16.1919 14.9571C16.0138 14.7261 15.9248 14.4302 15.9248 14.0692L14.25 14.0692C14.2741 14.7815 14.4546 15.3686 14.7914 15.8306Z" fill="#E3FF34"/>
</g>
<defs>
<clipPath id="clip0_592_1210">
<rect width="36" height="36" fill="white"/>
</clipPath>
</defs>
</svg>
