<svg width="36" height="36" viewBox="0 0 36 36" fill="none" xmlns="http://www.w3.org/2000/svg">
<g clip-path="url(#clip0_592_1207)">
<path d="M3.625 31.2499H17.625C16.7917 28.5832 16.35 22.4249 21.25 19.1249C22.5 18.2499 23.875 16.7499 24 15.7499C24.375 15.5832 25.0349 15.0161 25.125 14.1249C25.2151 13.2337 24.7703 12.6182 24.5 12.4999C26.125 8.87492 24.9532 4.88556 21.625 4.12491C18.5 0.749914 8.875 2.62492 11.5 12.4999C11.5 12.4999 10.7321 13.1249 10.875 14.1249C11.053 15.3711 12 15.7499 12 15.7499C12.628 17.4131 13.0657 18.141 14.5 18.8749V21.9999C14.5 22.4999 12.75 23.4999 8.75 24.6249C4.75 25.7499 3.625 28.1249 3.625 31.2499Z" fill="#E3FF34"/>
<path fill-rule="evenodd" clip-rule="evenodd" d="M27.5 35.9999C32.1944 35.9999 36 32.1943 36 27.4999C36 22.8055 32.1944 18.9999 27.5 18.9999C22.8056 18.9999 19 22.8055 19 27.4999C19 32.1943 22.8056 35.9999 27.5 35.9999ZM28.75 23.4999C28.75 23.0857 28.4142 22.7499 28 22.7499H27C26.5858 22.7499 26.25 23.0857 26.25 23.4999V26.2499H23.5C23.0858 26.2499 22.75 26.5857 22.75 26.9999V27.9999C22.75 28.4141 23.0858 28.7499 23.5 28.7499H26.25V31.4999C26.25 31.9141 26.5858 32.2499 27 32.2499H28C28.4142 32.2499 28.75 31.9141 28.75 31.4999V28.7499H31.5C31.9142 28.7499 32.25 28.4141 32.25 27.9999V26.9999C32.25 26.5857 31.9142 26.2499 31.5 26.2499H28.75V23.4999Z" fill="#E3FF34"/>
</g>
<defs>
<clipPath id="clip0_592_1207">
<rect width="36" height="36" fill="white"/>
</clipPath>
</defs>
</svg>
